<?xml version="1.0" encoding="UTF-8" standalone="no"?>
<!DOCTYPE svg PUBLIC "-//W3C//DTD SVG 1.1//EN"
 "http://www.w3.org/Graphics/SVG/1.1/DTD/svg11.dtd">
<!-- Generated by graphviz version 2.43.0 (0)
 -->
<!-- Title: geometry.h Pages: 1 -->
<!--zoomable 95 -->
<svg id="main" version="1.1" xmlns="http://www.w3.org/2000/svg" xmlns:xlink="http://www.w3.org/1999/xlink" xml:space="preserve" onload="init(evt)">
<style type="text/css"><![CDATA[
.edge:hover path { stroke: red; }
.edge:hover polygon { stroke: red; fill: red; }
]]></style>
<script type="text/javascript"><![CDATA[
var edges = document.getElementsByTagName('g');
if (edges && edges.length) {
  for (var i=0;i<edges.length;i++) {
    if (edges[i].id.substr(0,4)=='edge') {
      edges[i].setAttribute('class','edge');
    }
  }
}
]]></script>
        <defs>
                <circle id="rim" cx="0" cy="0" r="7"/>
                <circle id="rim2" cx="0" cy="0" r="3.5"/>
                <g id="zoomPlus">
                        <use xlink:href="#rim" fill="#404040">
                                <set attributeName="fill" to="#808080" begin="zoomplus.mouseover" end="zoomplus.mouseout"/>
                        </use>
                        <path d="M-4,0h8M0,-4v8" fill="none" stroke="white" stroke-width="1.5" pointer-events="none"/>
                </g>
                <g id="zoomMin">
                        <use xlink:href="#rim" fill="#404040">
                                <set attributeName="fill" to="#808080" begin="zoomminus.mouseover" end="zoomminus.mouseout"/>
                        </use>
                        <path d="M-4,0h8" fill="none" stroke="white" stroke-width="1.5" pointer-events="none"/>
                </g>
                <g id="dirArrow">
                        <path fill="none" stroke="white" stroke-width="1.5" d="M0,-3.0v7 M-2.5,-0.5L0,-3.0L2.5,-0.5"/>
                </g>
               <g id="resetDef">
                       <use xlink:href="#rim2" fill="#404040">
                               <set attributeName="fill" to="#808080" begin="reset.mouseover" end="reset.mouseout"/>
                       </use>
               </g>
        </defs>

<script type="text/javascript">
var viewWidth = 1368;
var viewHeight = 95;
var sectionId = 'dynsection-0';
</script>
<script xlink:href="../../svgpan.js"/>
<svg id="graph" class="graph">
<g id="viewport">
<title>geometry.h</title>
<!-- Node1 -->
<g id="node1" class="node">
<title>Node1</title>
<g id="a_node1"><a xlink:title="This file contains information on the geometry of the local lattice, block decomposed geometry,...">
<polygon fill="#bfbfbf" stroke="black" points="673.5,-67.5 673.5,-86.5 744.5,-86.5 744.5,-67.5 673.5,-67.5"/>
<text text-anchor="middle" x="709" y="-74.5" font-family="Helvetica,sans-Serif" font-size="10.00">geometry.h</text>
</a>
</g>
</g>
<!-- Node2 -->
<g id="node2" class="node">
<title>Node2</title>
<g id="a_node2"><a xlink:href="../../dd/da6/Dphi__gpu__kernels_8hpp_source.html" target="_top" xlink:title=" ">
<polygon fill="none" stroke="black" points="0,-6 0,-25 124,-25 124,-6 0,-6"/>
<text text-anchor="middle" x="62" y="-13" font-family="Helvetica,sans-Serif" font-size="10.00">Dphi_gpu_kernels.hpp</text>
</a>
</g>
</g>
<!-- Node1&#45;&gt;Node2 -->
<g id="edge1" class="edge">
<title>Node1&#45;&gt;Node2</title>
<path fill="none" stroke="midnightblue" d="M663.32,-74.35C565.61,-70.4 329.22,-58.59 133,-31 122.04,-29.46 110.22,-27.26 99.43,-25.05"/>
<polygon fill="midnightblue" stroke="midnightblue" points="663.31,-77.85 673.44,-74.75 663.59,-70.86 663.31,-77.85"/>
</g>
<!-- Node3 -->
<g id="node3" class="node">
<title>Node3</title>
<g id="a_node3"><a xlink:href="../../d2/d6f/communications_8h.html" target="_top" xlink:title="Communications to send and receive sites from other nodes using MPI with GPU.">
<polygon fill="none" stroke="black" points="142.5,-6 142.5,-25 249.5,-25 249.5,-6 142.5,-6"/>
<text text-anchor="middle" x="196" y="-13" font-family="Helvetica,sans-Serif" font-size="10.00">communications.h</text>
</a>
</g>
</g>
<!-- Node1&#45;&gt;Node3 -->
<g id="edge2" class="edge">
<title>Node1&#45;&gt;Node3</title>
<path fill="none" stroke="midnightblue" d="M663.19,-73.72C579.96,-68.89 399.18,-55.95 249,-31 239.51,-29.42 229.31,-27.24 220.33,-25.05"/>
<polygon fill="midnightblue" stroke="midnightblue" points="663.15,-77.23 673.33,-74.3 663.54,-70.24 663.15,-77.23"/>
</g>
<!-- Node4 -->
<g id="node4" class="node">
<title>Node4</title>
<g id="a_node4"><a xlink:href="../../d4/da4/communications__reduced_8h_source.html" target="_top" xlink:title=" ">
<polygon fill="none" stroke="black" points="267.5,-6 267.5,-25 418.5,-25 418.5,-6 267.5,-6"/>
<text text-anchor="middle" x="343" y="-13" font-family="Helvetica,sans-Serif" font-size="10.00">communications_reduced.h</text>
</a>
</g>
</g>
<!-- Node1&#45;&gt;Node4 -->
<g id="edge4" class="edge">
<title>Node1&#45;&gt;Node4</title>
<path fill="none" stroke="midnightblue" d="M663.24,-69.83C605.68,-61.3 504.33,-45.34 418,-31 406.61,-29.11 394.37,-27.02 383.1,-25.04"/>
<polygon fill="midnightblue" stroke="midnightblue" points="663.06,-73.34 673.47,-71.33 664.08,-66.41 663.06,-73.34"/>
</g>
<!-- Node5 -->
<g id="node5" class="node">
<title>Node5</title>
<g id="a_node5"><a xlink:href="../../d8/de4/convert__kernels_8hpp_source.html" target="_top" xlink:title=" ">
<polygon fill="none" stroke="black" points="436.5,-6 436.5,-25 551.5,-25 551.5,-6 436.5,-6"/>
<text text-anchor="middle" x="494" y="-13" font-family="Helvetica,sans-Serif" font-size="10.00">convert_kernels.hpp</text>
</a>
</g>
</g>
<!-- Node1&#45;&gt;Node5 -->
<g id="edge6" class="edge">
<title>Node1&#45;&gt;Node5</title>
<path fill="none" stroke="midnightblue" d="M668.35,-64.75C626.58,-53.19 562.48,-35.45 524.75,-25.01"/>
<polygon fill="midnightblue" stroke="midnightblue" points="667.62,-68.18 678.2,-67.48 669.49,-61.43 667.62,-68.18"/>
</g>
<!-- Node6 -->
<g id="node6" class="node">
<title>Node6</title>
<g id="a_node6"><a xlink:href="../../d0/d40/dirac_8h_source.html" target="_top" xlink:title=" ">
<polygon fill="none" stroke="red" points="570,-6 570,-25 620,-25 620,-6 570,-6"/>
<text text-anchor="middle" x="595" y="-13" font-family="Helvetica,sans-Serif" font-size="10.00">dirac.h</text>
</a>
</g>
</g>
<!-- Node1&#45;&gt;Node6 -->
<g id="edge7" class="edge">
<title>Node1&#45;&gt;Node6</title>
<path fill="none" stroke="midnightblue" d="M683.54,-62.71C661.46,-51.19 630.17,-34.86 611.3,-25.01"/>
<polygon fill="midnightblue" stroke="midnightblue" points="682.18,-65.95 692.67,-67.48 685.42,-59.75 682.18,-65.95"/>
</g>
<!-- Node10 -->
<g id="node7" class="node">
<title>Node10</title>
<g id="a_node7"><a xlink:href="../../db/dcc/error_8c.html" target="_top" xlink:title="Error handling functions.">
<polygon fill="none" stroke="black" points="638.5,-6 638.5,-25 685.5,-25 685.5,-6 638.5,-6"/>
<text text-anchor="middle" x="662" y="-13" font-family="Helvetica,sans-Serif" font-size="10.00">error.c</text>
</a>
</g>
</g>
<!-- Node1&#45;&gt;Node10 -->
<g id="edge8" class="edge">
<title>Node1&#45;&gt;Node10</title>
<path fill="none" stroke="midnightblue" d="M695.84,-59.34C687.02,-48.17 675.77,-33.93 668.72,-25.01"/>
<polygon fill="midnightblue" stroke="midnightblue" points="693.32,-61.8 702.27,-67.48 698.81,-57.46 693.32,-61.8"/>
</g>
<!-- Node11 -->
<g id="node8" class="node">
<title>Node11</title>
<g id="a_node8"><a xlink:href="../../d4/d3d/geometry__check_8h.html" target="_top" xlink:title="Validity checks on the geometry of spinor fields that are passed as function parameters....">
<polygon fill="none" stroke="black" points="703.5,-6 703.5,-25 810.5,-25 810.5,-6 703.5,-6"/>
<text text-anchor="middle" x="757" y="-13" font-family="Helvetica,sans-Serif" font-size="10.00">geometry_check.h</text>
</a>
</g>
</g>
<!-- Node1&#45;&gt;Node11 -->
<g id="edge9" class="edge">
<title>Node1&#45;&gt;Node11</title>
<path fill="none" stroke="midnightblue" d="M716.54,-59.01C724.43,-47.89 736.19,-33.84 745.24,-25.01"/>
<polygon fill="midnightblue" stroke="midnightblue" points="713.55,-57.2 710.98,-67.48 719.39,-61.04 713.55,-57.2"/>
</g>
<!-- Node12 -->
<g id="node9" class="node">
<title>Node12</title>
<g id="a_node9"><a xlink:href="../../d2/d49/global_8h.html" target="_top" xlink:title="Global parameters and arrays.">
<polygon fill="none" stroke="red" points="829,-6 829,-25 885,-25 885,-6 829,-6"/>
<text text-anchor="middle" x="857" y="-13" font-family="Helvetica,sans-Serif" font-size="10.00">global.h</text>
</a>
</g>
</g>
<!-- Node1&#45;&gt;Node12 -->
<g id="edge11" class="edge">
<title>Node1&#45;&gt;Node12</title>
<path fill="none" stroke="midnightblue" d="M739.77,-63.63C768.52,-52.07 810.68,-35.12 835.83,-25.01"/>
<polygon fill="midnightblue" stroke="midnightblue" points="738.18,-60.5 730.2,-67.48 740.79,-66.99 738.18,-60.5"/>
</g>
<!-- Node31 -->
<g id="node10" class="node">
<title>Node31</title>
<g id="a_node10"><a xlink:href="../../d4/d44/global__gpu_8h.html" target="_top" xlink:title="Global variables need to be declared once in the main program and then again as extern variables in t...">
<polygon fill="none" stroke="red" points="903.5,-6 903.5,-25 982.5,-25 982.5,-6 903.5,-6"/>
<text text-anchor="middle" x="943" y="-13" font-family="Helvetica,sans-Serif" font-size="10.00">global_gpu.h</text>
</a>
</g>
</g>
<!-- Node1&#45;&gt;Node31 -->
<g id="edge12" class="edge">
<title>Node1&#45;&gt;Node31</title>
<path fill="none" stroke="midnightblue" d="M754.72,-65.54C792.25,-56.79 846.74,-43.73 894,-31 900.85,-29.15 908.21,-27.05 915.08,-25.02"/>
<polygon fill="midnightblue" stroke="midnightblue" points="753.55,-62.22 744.6,-67.89 755.13,-69.04 753.55,-62.22"/>
</g>
<!-- Node21 -->
<g id="node11" class="node">
<title>Node21</title>
<g id="a_node11"><a xlink:href="../../d7/d6a/hr__sendrecv_8c.html" target="_top" xlink:title="Abstracted sendrecv of buffers of given fields.">
<polygon fill="none" stroke="black" points="1000.5,-6 1000.5,-25 1083.5,-25 1083.5,-6 1000.5,-6"/>
<text text-anchor="middle" x="1042" y="-13" font-family="Helvetica,sans-Serif" font-size="10.00">hr_sendrecv.c</text>
</a>
</g>
</g>
<!-- Node1&#45;&gt;Node21 -->
<g id="edge13" class="edge">
<title>Node1&#45;&gt;Node21</title>
<path fill="none" stroke="midnightblue" d="M754.55,-70.53C810.75,-63.38 909.04,-49.55 992,-31 999.5,-29.32 1007.53,-27.16 1014.91,-25.02"/>
<polygon fill="midnightblue" stroke="midnightblue" points="754.05,-67.07 744.56,-71.79 754.92,-74.02 754.05,-67.07"/>
</g>
<!-- Node22 -->
<g id="node12" class="node">
<title>Node22</title>
<g id="a_node12"><a xlink:href="../../d0/d39/init__gpu_8c.html" target="_top" xlink:title="Functions initialize the GPU for the simulation and print collective information on cluster drivers,...">
<polygon fill="none" stroke="black" points="1102,-6 1102,-25 1166,-25 1166,-6 1102,-6"/>
<text text-anchor="middle" x="1134" y="-13" font-family="Helvetica,sans-Serif" font-size="10.00">init_gpu.c</text>
</a>
</g>
</g>
<!-- Node1&#45;&gt;Node22 -->
<g id="edge14" class="edge">
<title>Node1&#45;&gt;Node22</title>
<path fill="none" stroke="midnightblue" d="M754.83,-73.94C827.41,-69.94 972.88,-58.91 1093,-31 1099.47,-29.5 1106.34,-27.31 1112.56,-25.1"/>
<polygon fill="midnightblue" stroke="midnightblue" points="754.46,-70.45 744.66,-74.48 754.83,-77.44 754.46,-70.45"/>
</g>
<!-- Node8 -->
<g id="node13" class="node">
<title>Node8</title>
<g id="a_node13"><a xlink:href="../../d9/dce/libhr_8h_source.html" target="_top" xlink:title=" ">
<polygon fill="none" stroke="black" points="1184.5,-6 1184.5,-25 1231.5,-25 1231.5,-6 1184.5,-6"/>
<text text-anchor="middle" x="1208" y="-13" font-family="Helvetica,sans-Serif" font-size="10.00">libhr.h</text>
</a>
</g>
</g>
<!-- Node1&#45;&gt;Node8 -->
<g id="edge15" class="edge">
<title>Node1&#45;&gt;Node8</title>
<path fill="none" stroke="midnightblue" d="M754.78,-76.35C839.25,-75.95 1024.76,-70.19 1175,-31 1180.45,-29.58 1186.15,-27.36 1191.24,-25.09"/>
<polygon fill="midnightblue" stroke="midnightblue" points="754.73,-72.85 744.74,-76.37 754.75,-79.85 754.73,-72.85"/>
</g>
<!-- Node25 -->
<g id="node14" class="node">
<title>Node25</title>
<g id="a_node14"><a xlink:href="../../d9/d5f/linear__algebra__gpu__kernels_8hpp_source.html" target="_top" xlink:title=" ">
<polygon fill="none" stroke="black" points="1250,-0.5 1250,-30.5 1360,-30.5 1360,-0.5 1250,-0.5"/>
<text text-anchor="start" x="1258" y="-18.5" font-family="Helvetica,sans-Serif" font-size="10.00">linear_algebra_gpu</text>
<text text-anchor="middle" x="1305" y="-7.5" font-family="Helvetica,sans-Serif" font-size="10.00">_kernels.hpp</text>
</a>
</g>
</g>
<!-- Node1&#45;&gt;Node25 -->
<g id="edge16" class="edge">
<title>Node1&#45;&gt;Node25</title>
<path fill="none" stroke="midnightblue" d="M754.82,-74.26C847.23,-70.29 1062.39,-58.65 1241,-31 1243.93,-30.55 1246.92,-30.04 1249.93,-29.48"/>
<polygon fill="midnightblue" stroke="midnightblue" points="754.53,-70.77 744.69,-74.69 754.83,-77.76 754.53,-70.77"/>
</g>
<!-- Node3&#45;&gt;Node1 -->
<g id="edge3" class="edge">
<title>Node3&#45;&gt;Node1</title>
<path fill="none" stroke="midnightblue" d="M247.75,-27.29C254.24,-28.67 260.77,-29.97 267,-31 417.2,-55.95 598.01,-68.89 673.45,-73.72"/>
<polygon fill="midnightblue" stroke="midnightblue" points="248.15,-23.79 237.63,-25.05 246.64,-30.62 248.15,-23.79"/>
</g>
<!-- Node4&#45;&gt;Node1 -->
<g id="edge5" class="edge">
<title>Node4&#45;&gt;Node1</title>
<path fill="none" stroke="midnightblue" d="M410.61,-26.73C419.19,-28.18 427.82,-29.64 436,-31 521.1,-45.13 620.79,-60.84 673.1,-69.46"/>
<polygon fill="midnightblue" stroke="midnightblue" points="411.03,-23.25 400.59,-25.04 409.86,-30.16 411.03,-23.25"/>
</g>
<!-- Node11&#45;&gt;Node1 -->
<g id="edge10" class="edge">
<title>Node11&#45;&gt;Node1</title>
<path fill="none" stroke="midnightblue" d="M749.47,-33.48C741.59,-44.59 729.83,-58.64 720.78,-67.48"/>
<polygon fill="midnightblue" stroke="midnightblue" points="752.47,-35.29 755.03,-25.01 746.62,-31.44 752.47,-35.29"/>
</g>
</g>
</svg>
        <g id="navigator" transform="translate(0 0)" fill="#404254">
                <rect fill="#f2f5e9" fill-opacity="0.5" stroke="#606060" stroke-width=".5" x="0" y="0" width="60" height="60"/>
                <use id="zoomplus" xlink:href="#zoomPlus" x="17" y="9" onmousedown="handleZoom(evt,'in')"/>
                <use id="zoomminus" xlink:href="#zoomMin" x="42" y="9" onmousedown="handleZoom(evt,'out')"/>
                <use id="reset" xlink:href="#resetDef" x="30" y="36" onmousedown="handleReset()"/>
                <g id="arrowUp" xlink:href="#dirArrow" transform="translate(30 24)" onmousedown="handlePan(0,-1)">
                  <use xlink:href="#rim" fill="#404040">
                        <set attributeName="fill" to="#808080" begin="arrowUp.mouseover" end="arrowUp.mouseout"/>
                  </use>
                  <path fill="none" stroke="white" stroke-width="1.5" d="M0,-3.0v7 M-2.5,-0.5L0,-3.0L2.5,-0.5"/>
                </g>
                <g id="arrowRight" xlink:href="#dirArrow" transform="rotate(90) translate(36 -43)" onmousedown="handlePan(1,0)">
                  <use xlink:href="#rim" fill="#404040">
                        <set attributeName="fill" to="#808080" begin="arrowRight.mouseover" end="arrowRight.mouseout"/>
                  </use>
                  <path fill="none" stroke="white" stroke-width="1.5" d="M0,-3.0v7 M-2.5,-0.5L0,-3.0L2.5,-0.5"/>
                </g>
                <g id="arrowDown" xlink:href="#dirArrow" transform="rotate(180) translate(-30 -48)" onmousedown="handlePan(0,1)">
                  <use xlink:href="#rim" fill="#404040">
                        <set attributeName="fill" to="#808080" begin="arrowDown.mouseover" end="arrowDown.mouseout"/>
                  </use>
                  <path fill="none" stroke="white" stroke-width="1.5" d="M0,-3.0v7 M-2.5,-0.5L0,-3.0L2.5,-0.5"/>
                </g>
                <g id="arrowLeft" xlink:href="#dirArrow" transform="rotate(270) translate(-36 17)" onmousedown="handlePan(-1,0)">
                  <use xlink:href="#rim" fill="#404040">
                        <set attributeName="fill" to="#808080" begin="arrowLeft.mouseover" end="arrowLeft.mouseout"/>
                  </use>
                  <path fill="none" stroke="white" stroke-width="1.5" d="M0,-3.0v7 M-2.5,-0.5L0,-3.0L2.5,-0.5"/>
                </g>
        </g>
        <svg viewBox="0 0 15 15" width="100%" height="30px" preserveAspectRatio="xMaxYMin meet">
         <g id="arrow_out" transform="scale(0.3 0.3)">
          <a xlink:href="geometry_8h__dep__incl_org.svg" target="_base">
           <rect id="button" ry="5" rx="5" y="6" x="6" height="38" width="38"
                fill="#f2f5e9" fill-opacity="0.5" stroke="#606060" stroke-width="1.0"/>
           <path id="arrow"
             d="M 11.500037,31.436501 C 11.940474,20.09759 22.043105,11.32322 32.158766,21.979434 L 37.068811,17.246167 C 37.068811,17.246167 37.088388,32 37.088388,32 L 22.160133,31.978069 C 22.160133,31.978069 26.997745,27.140456 26.997745,27.140456 C 18.528582,18.264221 13.291696,25.230495 11.500037,31.436501 z"
             style="fill:#404040;"/>
          </a>
         </g>
        </svg>
</svg>
