<?xml version="1.0" encoding="UTF-8" standalone="no"?>
<!DOCTYPE svg PUBLIC "-//W3C//DTD SVG 1.1//EN"
 "http://www.w3.org/Graphics/SVG/1.1/DTD/svg11.dtd">
<!-- Generated by graphviz version 2.43.0 (0)
 -->
<!-- Title: force_scalar_par Pages: 1 -->
<svg width="216pt" height="95pt"
 viewBox="0.00 0.00 216.00 95.00" xmlns="http://www.w3.org/2000/svg" xmlns:xlink="http://www.w3.org/1999/xlink">
<g id="graph0" class="graph" transform="scale(1 1) rotate(0) translate(4 91)">
<title>force_scalar_par</title>
<!-- Node1 -->
<g id="node1" class="node">
<title>Node1</title>
<g id="a_node1"><a xlink:title=" ">
<polygon fill="#bfbfbf" stroke="black" points="58.5,-0.5 58.5,-19.5 155.5,-19.5 155.5,-0.5 58.5,-0.5"/>
<text text-anchor="middle" x="107" y="-7.5" font-family="Helvetica,sans-Serif" font-size="10.00">force_scalar_par</text>
</a>
</g>
</g>
<!-- Node2 -->
<g id="node2" class="node">
<title>Node2</title>
<g id="a_node2"><a xlink:href="../../d6/d10/structsuNg__scalar__field.html" target="_top" xlink:title="SU(N_g) scalar field of SU(N_g) vectors.">
<polygon fill="none" stroke="red" points="0,-67.5 0,-86.5 102,-86.5 102,-67.5 0,-67.5"/>
<text text-anchor="middle" x="51" y="-74.5" font-family="Helvetica,sans-Serif" font-size="10.00">suNg_scalar_field</text>
</a>
</g>
</g>
<!-- Node2&#45;&gt;Node1 -->
<g id="edge1" class="edge">
<title>Node2&#45;&gt;Node1</title>
<path fill="none" stroke="#9a32cd" stroke-dasharray="5,2" d="M65.1,-59.63C76.05,-46.92 90.8,-29.8 99.57,-19.63"/>
<polygon fill="#9a32cd" stroke="#9a32cd" points="62.43,-57.37 58.55,-67.23 67.73,-61.94 62.43,-57.37"/>
<text text-anchor="middle" x="108.5" y="-41" font-family="Helvetica,sans-Serif" font-size="10.00"> momenta</text>
</g>
<!-- Node4 -->
<g id="node3" class="node">
<title>Node4</title>
<g id="a_node3"><a xlink:href="../../db/dc8/structsuNg__av__field.html" target="_top" xlink:title="Field of SU(N_g) algebra vectors.">
<polygon fill="none" stroke="red" points="120.5,-67.5 120.5,-86.5 205.5,-86.5 205.5,-67.5 120.5,-67.5"/>
<text text-anchor="middle" x="163" y="-74.5" font-family="Helvetica,sans-Serif" font-size="10.00">suNg_av_field</text>
</a>
</g>
</g>
<!-- Node4&#45;&gt;Node1 -->
<g id="edge2" class="edge">
<title>Node4&#45;&gt;Node1</title>
<path fill="none" stroke="#9a32cd" stroke-dasharray="5,2" d="M152.84,-58.42C148.62,-51.73 143.45,-44.23 138,-38 132.08,-31.23 124.48,-24.58 118.29,-19.58"/>
<polygon fill="#9a32cd" stroke="#9a32cd" points="150.08,-60.63 158.25,-67.38 156.08,-57.01 150.08,-60.63"/>
<text text-anchor="middle" x="177" y="-41" font-family="Helvetica,sans-Serif" font-size="10.00"> g_momenta</text>
</g>
</g>
</svg>
