<?xml version="1.0" encoding="UTF-8" standalone="no"?>
<!DOCTYPE svg PUBLIC "-//W3C//DTD SVG 1.1//EN"
 "http://www.w3.org/Graphics/SVG/1.1/DTD/svg11.dtd">
<!-- Generated by graphviz version 2.43.0 (0)
 -->
<!-- Title: moreio.h Pages: 1 -->
<svg width="180pt" height="84pt"
 viewBox="0.00 0.00 179.50 84.00" xmlns="http://www.w3.org/2000/svg" xmlns:xlink="http://www.w3.org/1999/xlink">
<g id="graph0" class="graph" transform="scale(1 1) rotate(0) translate(4 80)">
<title>moreio.h</title>
<!-- Node1 -->
<g id="node1" class="node">
<title>Node1</title>
<g id="a_node1"><a xlink:title="Reading and saving configurations from other lattice libraries.">
<polygon fill="#bfbfbf" stroke="black" points="52.5,-56.5 52.5,-75.5 112.5,-75.5 112.5,-56.5 52.5,-56.5"/>
<text text-anchor="middle" x="82.5" y="-63.5" font-family="Helvetica,sans-Serif" font-size="10.00">moreio.h</text>
</a>
</g>
</g>
<!-- Node2 -->
<g id="node2" class="node">
<title>Node2</title>
<g id="a_node2"><a xlink:href="../../d8/d5a/input__par_8h_source.html" target="_top" xlink:title=" ">
<polygon fill="none" stroke="black" points="0,-0.5 0,-19.5 71,-19.5 71,-0.5 0,-0.5"/>
<text text-anchor="middle" x="35.5" y="-7.5" font-family="Helvetica,sans-Serif" font-size="10.00">input_par.h</text>
</a>
</g>
</g>
<!-- Node1&#45;&gt;Node2 -->
<g id="edge1" class="edge">
<title>Node1&#45;&gt;Node2</title>
<path fill="none" stroke="midnightblue" d="M74.74,-56.08C67.96,-48.3 57.96,-36.8 49.74,-27.37"/>
<polygon fill="midnightblue" stroke="midnightblue" points="52.32,-25 43.12,-19.75 47.04,-29.59 52.32,-25"/>
</g>
<!-- Node3 -->
<g id="node3" class="node">
<title>Node3</title>
<g id="a_node3"><a xlink:href="../../d3/ded/spinor__field_8h.html" target="_top" xlink:title="The elementary site structures defined in suN.h are used in this file to define field structures that...">
<polygon fill="none" stroke="red" points="89.5,-0.5 89.5,-19.5 171.5,-19.5 171.5,-0.5 89.5,-0.5"/>
<text text-anchor="middle" x="130.5" y="-7.5" font-family="Helvetica,sans-Serif" font-size="10.00">spinor_field.h</text>
</a>
</g>
</g>
<!-- Node1&#45;&gt;Node3 -->
<g id="edge2" class="edge">
<title>Node1&#45;&gt;Node3</title>
<path fill="none" stroke="midnightblue" d="M90.43,-56.08C97.35,-48.3 107.57,-36.8 115.95,-27.37"/>
<polygon fill="midnightblue" stroke="midnightblue" points="118.69,-29.55 122.72,-19.75 113.46,-24.9 118.69,-29.55"/>
</g>
</g>
</svg>
