<?xml version="1.0" encoding="UTF-8" standalone="no"?>
<!DOCTYPE svg PUBLIC "-//W3C//DTD SVG 1.1//EN"
 "http://www.w3.org/Graphics/SVG/1.1/DTD/svg11.dtd">
<!-- Generated by graphviz version 2.43.0 (0)
 -->
<!-- Title: random_generic.h Pages: 1 -->
<svg width="157pt" height="84pt"
 viewBox="0.00 0.00 156.50 84.00" xmlns="http://www.w3.org/2000/svg" xmlns:xlink="http://www.w3.org/1999/xlink">
<g id="graph0" class="graph" transform="scale(1 1) rotate(0) translate(4 80)">
<title>random_generic.h</title>
<!-- Node1 -->
<g id="node1" class="node">
<title>Node1</title>
<g id="a_node1"><a xlink:title="Generic random functions.">
<polygon fill="#bfbfbf" stroke="black" points="0,-56.5 0,-75.5 104,-75.5 104,-56.5 0,-56.5"/>
<text text-anchor="middle" x="52" y="-63.5" font-family="Helvetica,sans-Serif" font-size="10.00">random_generic.h</text>
</a>
</g>
</g>
<!-- Node2 -->
<g id="node2" class="node">
<title>Node2</title>
<g id="a_node2"><a xlink:href="../../d1/d79/random_8h_source.html" target="_top" xlink:title=" ">
<polygon fill="none" stroke="red" points="20.5,-0.5 20.5,-19.5 83.5,-19.5 83.5,-0.5 20.5,-0.5"/>
<text text-anchor="middle" x="52" y="-7.5" font-family="Helvetica,sans-Serif" font-size="10.00">random.h</text>
</a>
</g>
</g>
<!-- Node1&#45;&gt;Node2 -->
<g id="edge1" class="edge">
<title>Node1&#45;&gt;Node2</title>
<path fill="none" stroke="midnightblue" d="M46.83,-56.08C45.32,-48.93 44.89,-38.64 45.54,-29.69"/>
<polygon fill="midnightblue" stroke="midnightblue" points="49.02,-30.13 46.87,-19.75 42.08,-29.2 49.02,-30.13"/>
</g>
<!-- Node12 -->
<g id="node3" class="node">
<title>Node12</title>
<g id="a_node3"><a xlink:href="../../d5/d60/utils_8h_source.html" target="_top" xlink:title=" ">
<polygon fill="none" stroke="red" points="101.5,-0.5 101.5,-19.5 148.5,-19.5 148.5,-0.5 101.5,-0.5"/>
<text text-anchor="middle" x="125" y="-7.5" font-family="Helvetica,sans-Serif" font-size="10.00">utils.h</text>
</a>
</g>
</g>
<!-- Node1&#45;&gt;Node12 -->
<g id="edge3" class="edge">
<title>Node1&#45;&gt;Node12</title>
<path fill="none" stroke="midnightblue" d="M63.73,-56.32C74.84,-48.11 91.74,-35.6 104.98,-25.81"/>
<polygon fill="midnightblue" stroke="midnightblue" points="107.1,-28.59 113.06,-19.83 102.94,-22.97 107.1,-28.59"/>
</g>
<!-- Node2&#45;&gt;Node1 -->
<g id="edge2" class="edge">
<title>Node2&#45;&gt;Node1</title>
<path fill="none" stroke="midnightblue" d="M57.13,-19.75C58.66,-26.86 59.1,-37.14 58.47,-46.1"/>
<polygon fill="midnightblue" stroke="midnightblue" points="54.99,-45.71 57.17,-56.08 61.93,-46.62 54.99,-45.71"/>
</g>
</g>
</svg>
