<?xml version="1.0" encoding="UTF-8" standalone="no"?>
<!DOCTYPE svg PUBLIC "-//W3C//DTD SVG 1.1//EN"
 "http://www.w3.org/Graphics/SVG/1.1/DTD/svg11.dtd">
<!-- Generated by graphviz version 2.43.0 (0)
 -->
<!-- Title: gpu.h Pages: 1 -->
<svg width="1009pt" height="140pt"
 viewBox="0.00 0.00 1009.00 140.00" xmlns="http://www.w3.org/2000/svg" xmlns:xlink="http://www.w3.org/1999/xlink">
<g id="graph0" class="graph" transform="scale(1 1) rotate(0) translate(4 136)">
<title>gpu.h</title>
<!-- Node1 -->
<g id="node1" class="node">
<title>Node1</title>
<g id="a_node1"><a xlink:title="Basic gpu imports and structs. Include this in files that define GPU logic.">
<polygon fill="#bfbfbf" stroke="black" points="445.5,-112.5 445.5,-131.5 489.5,-131.5 489.5,-112.5 445.5,-112.5"/>
<text text-anchor="middle" x="467.5" y="-119.5" font-family="Helvetica,sans-Serif" font-size="10.00">gpu.h</text>
</a>
</g>
</g>
<!-- Node2 -->
<g id="node2" class="node">
<title>Node2</title>
<g id="a_node2"><a xlink:href="../../d8/d58/error__gpu_8c.html" target="_top" xlink:title="Error checking on the GPU.">
<polygon fill="none" stroke="black" points="0,-56.5 0,-75.5 71,-75.5 71,-56.5 0,-56.5"/>
<text text-anchor="middle" x="35.5" y="-63.5" font-family="Helvetica,sans-Serif" font-size="10.00">error_gpu.c</text>
</a>
</g>
</g>
<!-- Node1&#45;&gt;Node2 -->
<g id="edge1" class="edge">
<title>Node1&#45;&gt;Node2</title>
<path fill="none" stroke="midnightblue" d="M434.87,-118.11C368.11,-112.01 211.19,-96.63 80.5,-76 77.51,-75.53 74.42,-75 71.31,-74.44"/>
<polygon fill="midnightblue" stroke="midnightblue" points="434.89,-121.63 445.16,-119.05 435.52,-114.66 434.89,-121.63"/>
</g>
<!-- Node3 -->
<g id="node3" class="node">
<title>Node3</title>
<g id="a_node3"><a xlink:href="../../d2/d41/error__gpu_8h.html" target="_top" xlink:title="Error checking for GPU.">
<polygon fill="none" stroke="red" points="89.5,-56.5 89.5,-75.5 161.5,-75.5 161.5,-56.5 89.5,-56.5"/>
<text text-anchor="middle" x="125.5" y="-63.5" font-family="Helvetica,sans-Serif" font-size="10.00">error_gpu.h</text>
</a>
</g>
</g>
<!-- Node1&#45;&gt;Node3 -->
<g id="edge2" class="edge">
<title>Node1&#45;&gt;Node3</title>
<path fill="none" stroke="midnightblue" d="M435.07,-116.53C380.53,-108.91 267.04,-92.6 171.5,-76 168.29,-75.44 164.97,-74.84 161.63,-74.22"/>
<polygon fill="midnightblue" stroke="midnightblue" points="434.78,-120.02 445.17,-117.93 435.75,-113.09 434.78,-120.02"/>
</g>
<!-- Node37 -->
<g id="node4" class="node">
<title>Node37</title>
<g id="a_node4"><a xlink:href="../../de/d2e/geometry__gpu__init_8h.html" target="_top" xlink:title="Initialization functions, that determine all important parameters of the geometry,...">
<polygon fill="none" stroke="red" points="180,-56.5 180,-75.5 297,-75.5 297,-56.5 180,-56.5"/>
<text text-anchor="middle" x="238.5" y="-63.5" font-family="Helvetica,sans-Serif" font-size="10.00">geometry_gpu_init.h</text>
</a>
</g>
</g>
<!-- Node1&#45;&gt;Node37 -->
<g id="edge3" class="edge">
<title>Node1&#45;&gt;Node37</title>
<path fill="none" stroke="midnightblue" d="M435.36,-113.42C393.1,-103.46 319.06,-86 274.82,-75.56"/>
<polygon fill="midnightblue" stroke="midnightblue" points="434.59,-116.84 445.13,-115.72 436.2,-110.02 434.59,-116.84"/>
</g>
<!-- Node16 -->
<g id="node5" class="node">
<title>Node16</title>
<g id="a_node5"><a xlink:href="../../d2/d49/global_8h.html" target="_top" xlink:title="Global parameters and arrays.">
<polygon fill="none" stroke="black" points="315.5,-56.5 315.5,-75.5 371.5,-75.5 371.5,-56.5 315.5,-56.5"/>
<text text-anchor="middle" x="343.5" y="-63.5" font-family="Helvetica,sans-Serif" font-size="10.00">global.h</text>
</a>
</g>
</g>
<!-- Node1&#45;&gt;Node16 -->
<g id="edge4" class="edge">
<title>Node1&#45;&gt;Node16</title>
<path fill="none" stroke="midnightblue" d="M438.49,-108.37C415.27,-98.26 383.34,-84.35 363.06,-75.52"/>
<polygon fill="midnightblue" stroke="midnightblue" points="437.29,-111.66 447.85,-112.44 440.08,-105.24 437.29,-111.66"/>
</g>
<!-- Node17 -->
<g id="node6" class="node">
<title>Node17</title>
<g id="a_node6"><a xlink:href="../../d8/d1f/libhr__core_8h_source.html" target="_top" xlink:title=" ">
<polygon fill="none" stroke="red" points="362.5,-0.5 362.5,-19.5 436.5,-19.5 436.5,-0.5 362.5,-0.5"/>
<text text-anchor="middle" x="399.5" y="-7.5" font-family="Helvetica,sans-Serif" font-size="10.00">libhr_core.h</text>
</a>
</g>
</g>
<!-- Node1&#45;&gt;Node17 -->
<g id="edge11" class="edge">
<title>Node1&#45;&gt;Node17</title>
<path fill="none" stroke="midnightblue" d="M447.18,-106.06C437.6,-98.08 426.7,-87.54 419.5,-76 408.12,-57.77 402.81,-32.61 400.69,-19.58"/>
<polygon fill="midnightblue" stroke="midnightblue" points="445.14,-108.9 455.15,-112.37 449.48,-103.42 445.14,-108.9"/>
</g>
<!-- Node35 -->
<g id="node7" class="node">
<title>Node35</title>
<g id="a_node7"><a xlink:href="../../d4/d44/global__gpu_8h.html" target="_top" xlink:title="Global variables need to be declared once in the main program and then again as extern variables in t...">
<polygon fill="none" stroke="black" points="428,-56.5 428,-75.5 507,-75.5 507,-56.5 428,-56.5"/>
<text text-anchor="middle" x="467.5" y="-63.5" font-family="Helvetica,sans-Serif" font-size="10.00">global_gpu.h</text>
</a>
</g>
</g>
<!-- Node1&#45;&gt;Node35 -->
<g id="edge6" class="edge">
<title>Node1&#45;&gt;Node35</title>
<path fill="none" stroke="midnightblue" d="M467.5,-101.8C467.5,-92.91 467.5,-82.78 467.5,-75.75"/>
<polygon fill="midnightblue" stroke="midnightblue" points="464,-102.08 467.5,-112.08 471,-102.08 464,-102.08"/>
</g>
<!-- Node38 -->
<g id="node8" class="node">
<title>Node38</title>
<g id="a_node8"><a xlink:href="../../d4/de3/gpu__complex_8hpp_source.html" target="_top" xlink:title=" ">
<polygon fill="none" stroke="black" points="525,-56.5 525,-75.5 628,-75.5 628,-56.5 525,-56.5"/>
<text text-anchor="middle" x="576.5" y="-63.5" font-family="Helvetica,sans-Serif" font-size="10.00">gpu_complex.hpp</text>
</a>
</g>
</g>
<!-- Node1&#45;&gt;Node38 -->
<g id="edge8" class="edge">
<title>Node1&#45;&gt;Node38</title>
<path fill="none" stroke="midnightblue" d="M494.02,-107.86C514.23,-97.85 541.49,-84.35 559.03,-75.65"/>
<polygon fill="midnightblue" stroke="midnightblue" points="492.42,-104.75 485.01,-112.32 495.53,-111.02 492.42,-104.75"/>
</g>
<!-- Node36 -->
<g id="node9" class="node">
<title>Node36</title>
<g id="a_node9"><a xlink:href="../../d5/ddc/gpu__info_8c.html" target="_top" xlink:title="Prints information on available hardware and software on the cluster relating to GPUs.">
<polygon fill="none" stroke="black" points="646,-56.5 646,-75.5 713,-75.5 713,-56.5 646,-56.5"/>
<text text-anchor="middle" x="679.5" y="-63.5" font-family="Helvetica,sans-Serif" font-size="10.00">gpu_info.c</text>
</a>
</g>
</g>
<!-- Node1&#45;&gt;Node36 -->
<g id="edge9" class="edge">
<title>Node1&#45;&gt;Node36</title>
<path fill="none" stroke="midnightblue" d="M499.7,-112.8C539.24,-102.73 606,-85.72 646.09,-75.51"/>
<polygon fill="midnightblue" stroke="midnightblue" points="498.61,-109.46 489.79,-115.32 500.34,-116.25 498.61,-109.46"/>
</g>
<!-- Node39 -->
<g id="node10" class="node">
<title>Node39</title>
<g id="a_node10"><a xlink:href="../../da/dee/gpu__info_8h.html" target="_top" xlink:title="Functions that print collective information on cluster drivers, necessary software and available hard...">
<polygon fill="none" stroke="red" points="731.5,-56.5 731.5,-75.5 799.5,-75.5 799.5,-56.5 731.5,-56.5"/>
<text text-anchor="middle" x="765.5" y="-63.5" font-family="Helvetica,sans-Serif" font-size="10.00">gpu_info.h</text>
</a>
</g>
</g>
<!-- Node1&#45;&gt;Node39 -->
<g id="edge10" class="edge">
<title>Node1&#45;&gt;Node39</title>
<path fill="none" stroke="midnightblue" d="M499.6,-115.67C548,-107.56 642.51,-91.42 722.5,-76 725.35,-75.45 728.29,-74.87 731.25,-74.27"/>
<polygon fill="midnightblue" stroke="midnightblue" points="499,-112.22 489.71,-117.32 500.15,-119.13 499,-112.22"/>
</g>
<!-- Node41 -->
<g id="node11" class="node">
<title>Node41</title>
<g id="a_node11"><a xlink:href="../../d3/d6f/linear__solvers_8h_source.html" target="_top" xlink:title=" ">
<polygon fill="none" stroke="red" points="817.5,-56.5 817.5,-75.5 911.5,-75.5 911.5,-56.5 817.5,-56.5"/>
<text text-anchor="middle" x="864.5" y="-63.5" font-family="Helvetica,sans-Serif" font-size="10.00">linear_solvers.h</text>
</a>
</g>
</g>
<!-- Node1&#45;&gt;Node41 -->
<g id="edge12" class="edge">
<title>Node1&#45;&gt;Node41</title>
<path fill="none" stroke="midnightblue" d="M499.98,-117.02C560.67,-109.52 695.35,-92.55 808.5,-76 811.42,-75.57 814.43,-75.12 817.46,-74.66"/>
<polygon fill="midnightblue" stroke="midnightblue" points="499.37,-113.57 489.87,-118.27 500.23,-120.52 499.37,-113.57"/>
</g>
<!-- Node51 -->
<g id="node12" class="node">
<title>Node51</title>
<g id="a_node12"><a xlink:href="../../de/d2f/mat__utils_8h_source.html" target="_top" xlink:title=" ">
<polygon fill="none" stroke="red" points="930,-56.5 930,-75.5 1001,-75.5 1001,-56.5 930,-56.5"/>
<text text-anchor="middle" x="965.5" y="-63.5" font-family="Helvetica,sans-Serif" font-size="10.00">mat_utils.h</text>
</a>
</g>
</g>
<!-- Node1&#45;&gt;Node51 -->
<g id="edge13" class="edge">
<title>Node1&#45;&gt;Node51</title>
<path fill="none" stroke="midnightblue" d="M499.9,-118.88C574.42,-113.77 763.67,-99.41 920.5,-76 923.49,-75.55 926.59,-75.04 929.69,-74.49"/>
<polygon fill="midnightblue" stroke="midnightblue" points="499.49,-115.4 489.75,-119.57 499.96,-122.38 499.49,-115.4"/>
</g>
<!-- Node16&#45;&gt;Node17 -->
<g id="edge5" class="edge">
<title>Node16&#45;&gt;Node17</title>
<path fill="none" stroke="midnightblue" d="M359.83,-49.25C369.76,-39.67 382.09,-27.79 390.34,-19.83"/>
<polygon fill="midnightblue" stroke="midnightblue" points="357.27,-46.86 352.5,-56.32 362.13,-51.9 357.27,-46.86"/>
</g>
<!-- Node35&#45;&gt;Node17 -->
<g id="edge7" class="edge">
<title>Node35&#45;&gt;Node17</title>
<path fill="none" stroke="midnightblue" d="M448.74,-50.1C436.5,-40.38 420.94,-28.03 410.62,-19.83"/>
<polygon fill="midnightblue" stroke="midnightblue" points="446.57,-52.85 456.57,-56.32 450.92,-47.36 446.57,-52.85"/>
</g>
</g>
</svg>
