<?xml version="1.0" encoding="UTF-8" standalone="no"?>
<!DOCTYPE svg PUBLIC "-//W3C//DTD SVG 1.1//EN"
 "http://www.w3.org/Graphics/SVG/1.1/DTD/svg11.dtd">
<!-- Generated by graphviz version 2.43.0 (0)
 -->
<!-- Title: force_rhmc_par Pages: 1 -->
<svg width="279pt" height="95pt"
 viewBox="0.00 0.00 279.00 95.00" xmlns="http://www.w3.org/2000/svg" xmlns:xlink="http://www.w3.org/1999/xlink">
<g id="graph0" class="graph" transform="scale(1 1) rotate(0) translate(4 91)">
<title>force_rhmc_par</title>
<!-- Node1 -->
<g id="node1" class="node">
<title>Node1</title>
<g id="a_node1"><a xlink:title=" ">
<polygon fill="#bfbfbf" stroke="black" points="83.5,-0.5 83.5,-19.5 175.5,-19.5 175.5,-0.5 83.5,-0.5"/>
<text text-anchor="middle" x="129.5" y="-7.5" font-family="Helvetica,sans-Serif" font-size="10.00">force_rhmc_par</text>
</a>
</g>
</g>
<!-- Node2 -->
<g id="node2" class="node">
<title>Node2</title>
<g id="a_node2"><a xlink:href="../../d0/da8/structspinor__field.html" target="_top" xlink:title="Spinor field array containing SU(N_f) spinors in chosen fermion representation.">
<polygon fill="none" stroke="red" points="0,-67.5 0,-86.5 73,-86.5 73,-67.5 0,-67.5"/>
<text text-anchor="middle" x="36.5" y="-74.5" font-family="Helvetica,sans-Serif" font-size="10.00">spinor_field</text>
</a>
</g>
</g>
<!-- Node2&#45;&gt;Node1 -->
<g id="edge1" class="edge">
<title>Node2&#45;&gt;Node1</title>
<path fill="none" stroke="#9a32cd" stroke-dasharray="5,2" d="M57.36,-61.42C75.75,-48.57 101.91,-30.28 117.16,-19.63"/>
<polygon fill="#9a32cd" stroke="#9a32cd" points="55.23,-58.64 49.04,-67.23 59.24,-64.37 55.23,-58.64"/>
<text text-anchor="middle" x="96" y="-41" font-family="Helvetica,sans-Serif" font-size="10.00"> pf</text>
</g>
<!-- Node4 -->
<g id="node3" class="node">
<title>Node4</title>
<g id="a_node3"><a xlink:href="../../d3/d47/structrational__app.html" target="_top" xlink:title=" ">
<polygon fill="none" stroke="#bfbfbf" points="91,-67.5 91,-86.5 168,-86.5 168,-67.5 91,-67.5"/>
<text text-anchor="middle" x="129.5" y="-74.5" font-family="Helvetica,sans-Serif" font-size="10.00">rational_app</text>
</a>
</g>
</g>
<!-- Node4&#45;&gt;Node1 -->
<g id="edge2" class="edge">
<title>Node4&#45;&gt;Node1</title>
<path fill="none" stroke="#9a32cd" stroke-dasharray="5,2" d="M129.5,-57.04C129.5,-44.67 129.5,-29.12 129.5,-19.63"/>
<polygon fill="#9a32cd" stroke="#9a32cd" points="126,-57.23 129.5,-67.23 133,-57.23 126,-57.23"/>
<text text-anchor="middle" x="142.5" y="-41" font-family="Helvetica,sans-Serif" font-size="10.00"> ratio</text>
</g>
<!-- Node5 -->
<g id="node4" class="node">
<title>Node5</title>
<g id="a_node4"><a xlink:href="../../db/dc8/structsuNg__av__field.html" target="_top" xlink:title="Field of SU(N_g) algebra vectors.">
<polygon fill="none" stroke="red" points="186,-67.5 186,-86.5 271,-86.5 271,-67.5 186,-67.5"/>
<text text-anchor="middle" x="228.5" y="-74.5" font-family="Helvetica,sans-Serif" font-size="10.00">suNg_av_field</text>
</a>
</g>
</g>
<!-- Node5&#45;&gt;Node1 -->
<g id="edge3" class="edge">
<title>Node5&#45;&gt;Node1</title>
<path fill="none" stroke="#9a32cd" stroke-dasharray="5,2" d="M206.56,-61.59C186.97,-48.74 158.94,-30.33 142.64,-19.63"/>
<polygon fill="#9a32cd" stroke="#9a32cd" points="204.87,-64.67 215.15,-67.23 208.71,-58.82 204.87,-64.67"/>
<text text-anchor="middle" x="210" y="-41" font-family="Helvetica,sans-Serif" font-size="10.00"> momenta</text>
</g>
</g>
</svg>
