<?xml version="1.0" encoding="UTF-8" standalone="no"?>
<!DOCTYPE svg PUBLIC "-//W3C//DTD SVG 1.1//EN"
 "http://www.w3.org/Graphics/SVG/1.1/DTD/svg11.dtd">
<!-- Generated by graphviz version 2.43.0 (0)
 -->
<!-- Title: new_geometry.h Pages: 1 -->
<svg width="227pt" height="137pt"
 viewBox="0.00 0.00 227.06 137.00" xmlns="http://www.w3.org/2000/svg" xmlns:xlink="http://www.w3.org/1999/xlink">
<g id="graph0" class="graph" transform="scale(1 1) rotate(0) translate(4 133)">
<title>new_geometry.h</title>
<!-- Node1 -->
<g id="Node000001" class="node">
<title>Node1</title>
<g id="a_Node000001"><a xlink:title="Functions needed for the new geometry implementation that will replace the current geometry in the fu...">
<polygon fill="#999999" stroke="#666666" points="107.06,-129 10.06,-129 10.06,-110 107.06,-110 107.06,-129"/>
<text text-anchor="middle" x="58.56" y="-117" font-family="Helvetica,sans-Serif" font-size="10.00">new_geometry.h</text>
</a>
</g>
</g>
<!-- Node2 -->
<g id="Node000002" class="node">
<title>Node2</title>
<g id="a_Node000002"><a xlink:href="../../d4/d67/geometry_8h.html" target="_top" xlink:title="This file contains information on the geometry of the local lattice, block decomposed geometry,...">
<polygon fill="#fff0f0" stroke="red" points="94.06,-19 23.06,-19 23.06,0 94.06,0 94.06,-19"/>
<text text-anchor="middle" x="58.56" y="-7" font-family="Helvetica,sans-Serif" font-size="10.00">geometry.h</text>
</a>
</g>
</g>
<!-- Node1&#45;&gt;Node2 -->
<g id="edge1_Node000001_Node000002" class="edge">
<title>Node1&#45;&gt;Node2</title>
<g id="a_edge1_Node000001_Node000002"><a xlink:title=" ">
<path fill="none" stroke="#63b8ff" d="M32.01,-104.62C20.74,-97.18 8.78,-86.88 2.56,-74 -8.43,-51.23 20.62,-30.39 40.88,-19.17"/>
<polygon fill="#63b8ff" stroke="#63b8ff" points="30.43,-107.75 40.79,-109.96 34.07,-101.77 30.43,-107.75"/>
</a>
</g>
</g>
<!-- Node35 -->
<g id="Node000035" class="node">
<title>Node35</title>
<g id="a_Node000035"><a xlink:href="../../d9/d46/geometry__init_8h.html" target="_top" xlink:title="Initialization functions, that determine all important parameters of the geometry,...">
<polygon fill="white" stroke="#666666" points="105.56,-74 11.56,-74 11.56,-55 105.56,-55 105.56,-74"/>
<text text-anchor="middle" x="58.56" y="-62" font-family="Helvetica,sans-Serif" font-size="10.00">geometry_init.h</text>
</a>
</g>
</g>
<!-- Node1&#45;&gt;Node35 -->
<g id="edge2_Node000001_Node000035" class="edge">
<title>Node1&#45;&gt;Node35</title>
<g id="a_edge2_Node000001_Node000035"><a xlink:title=" ">
<path fill="none" stroke="#63b8ff" d="M58.56,-99.66C58.56,-90.93 58.56,-80.99 58.56,-74.09"/>
<polygon fill="#63b8ff" stroke="#63b8ff" points="55.06,-99.75 58.56,-109.75 62.06,-99.75 55.06,-99.75"/>
</a>
</g>
</g>
<!-- Node36 -->
<g id="Node000036" class="node">
<title>Node36</title>
<g id="a_Node000036"><a xlink:href="../../d9/de8/gpu__geometry_8h_source.html" target="_top" xlink:title=" ">
<polygon fill="white" stroke="#666666" points="219.06,-74 124.06,-74 124.06,-55 219.06,-55 219.06,-74"/>
<text text-anchor="middle" x="171.56" y="-62" font-family="Helvetica,sans-Serif" font-size="10.00">gpu_geometry.h</text>
</a>
</g>
</g>
<!-- Node1&#45;&gt;Node36 -->
<g id="edge4_Node000001_Node000036" class="edge">
<title>Node1&#45;&gt;Node36</title>
<g id="a_edge4_Node000001_Node000036"><a xlink:title=" ">
<path fill="none" stroke="#63b8ff" d="M85.99,-105.63C106.81,-95.87 134.85,-82.71 153.07,-74.17"/>
<polygon fill="#63b8ff" stroke="#63b8ff" points="84.28,-102.57 76.71,-109.98 87.25,-108.91 84.28,-102.57"/>
</a>
</g>
</g>
<!-- Node35&#45;&gt;Node2 -->
<g id="edge3_Node000035_Node000002" class="edge">
<title>Node35&#45;&gt;Node2</title>
<g id="a_edge3_Node000035_Node000002"><a xlink:title=" ">
<path fill="none" stroke="#63b8ff" d="M58.56,-44.66C58.56,-35.93 58.56,-25.99 58.56,-19.09"/>
<polygon fill="#63b8ff" stroke="#63b8ff" points="55.06,-44.75 58.56,-54.75 62.06,-44.75 55.06,-44.75"/>
</a>
</g>
</g>
<!-- Node36&#45;&gt;Node2 -->
<g id="edge5_Node000036_Node000002" class="edge">
<title>Node36&#45;&gt;Node2</title>
<g id="a_edge5_Node000036_Node000002"><a xlink:title=" ">
<path fill="none" stroke="#63b8ff" d="M144.12,-50.63C123.31,-40.87 95.26,-27.71 77.04,-19.17"/>
<polygon fill="#63b8ff" stroke="#63b8ff" points="142.86,-53.91 153.4,-54.98 145.83,-47.57 142.86,-53.91"/>
</a>
</g>
</g>
</g>
</svg>
