<?xml version="1.0" encoding="UTF-8" standalone="no"?>
<!DOCTYPE svg PUBLIC "-//W3C//DTD SVG 1.1//EN"
 "http://www.w3.org/Graphics/SVG/1.1/DTD/svg11.dtd">
<!-- Generated by graphviz version 2.43.0 (0)
 -->
<!-- Title: new_geometry.h Pages: 1 -->
<svg width="227pt" height="140pt"
 viewBox="0.00 0.00 227.09 140.00" xmlns="http://www.w3.org/2000/svg" xmlns:xlink="http://www.w3.org/1999/xlink">
<g id="graph0" class="graph" transform="scale(1 1) rotate(0) translate(4 136)">
<title>new_geometry.h</title>
<!-- Node1 -->
<g id="node1" class="node">
<title>Node1</title>
<g id="a_node1"><a xlink:title="Functions needed for the new geometry implementation that will replace the current geometry in the fu...">
<polygon fill="#bfbfbf" stroke="black" points="10.09,-112.5 10.09,-131.5 107.09,-131.5 107.09,-112.5 10.09,-112.5"/>
<text text-anchor="middle" x="58.59" y="-119.5" font-family="Helvetica,sans-Serif" font-size="10.00">new_geometry.h</text>
</a>
</g>
</g>
<!-- Node2 -->
<g id="node2" class="node">
<title>Node2</title>
<g id="a_node2"><a xlink:href="../../d4/d67/geometry_8h.html" target="_top" xlink:title="This file contains information on the geometry of the local lattice, block decomposed geometry,...">
<polygon fill="none" stroke="red" points="23.09,-0.5 23.09,-19.5 94.09,-19.5 94.09,-0.5 23.09,-0.5"/>
<text text-anchor="middle" x="58.59" y="-7.5" font-family="Helvetica,sans-Serif" font-size="10.00">geometry.h</text>
</a>
</g>
</g>
<!-- Node1&#45;&gt;Node2 -->
<g id="edge1" class="edge">
<title>Node1&#45;&gt;Node2</title>
<path fill="none" stroke="midnightblue" d="M32.27,-107.05C20.92,-99.51 8.84,-89.05 2.59,-76 -8.61,-52.63 21.28,-31 41.58,-19.54"/>
<polygon fill="midnightblue" stroke="midnightblue" points="30.73,-110.21 41.09,-112.46 34.4,-104.25 30.73,-110.21"/>
</g>
<!-- Node33 -->
<g id="node3" class="node">
<title>Node33</title>
<g id="a_node3"><a xlink:href="../../d9/d46/geometry__init_8h.html" target="_top" xlink:title="Initialization functions, that determine all important parameters of the geometry,...">
<polygon fill="none" stroke="black" points="11.59,-56.5 11.59,-75.5 105.59,-75.5 105.59,-56.5 11.59,-56.5"/>
<text text-anchor="middle" x="58.59" y="-63.5" font-family="Helvetica,sans-Serif" font-size="10.00">geometry_init.h</text>
</a>
</g>
</g>
<!-- Node1&#45;&gt;Node33 -->
<g id="edge2" class="edge">
<title>Node1&#45;&gt;Node33</title>
<path fill="none" stroke="midnightblue" d="M58.59,-101.8C58.59,-92.91 58.59,-82.78 58.59,-75.75"/>
<polygon fill="midnightblue" stroke="midnightblue" points="55.09,-102.08 58.59,-112.08 62.09,-102.08 55.09,-102.08"/>
</g>
<!-- Node34 -->
<g id="node4" class="node">
<title>Node34</title>
<g id="a_node4"><a xlink:href="../../d9/de8/gpu__geometry_8h_source.html" target="_top" xlink:title=" ">
<polygon fill="none" stroke="black" points="124.09,-56.5 124.09,-75.5 219.09,-75.5 219.09,-56.5 124.09,-56.5"/>
<text text-anchor="middle" x="171.59" y="-63.5" font-family="Helvetica,sans-Serif" font-size="10.00">gpu_geometry.h</text>
</a>
</g>
</g>
<!-- Node1&#45;&gt;Node34 -->
<g id="edge4" class="edge">
<title>Node1&#45;&gt;Node34</title>
<path fill="none" stroke="midnightblue" d="M85.59,-108.1C106.7,-98.01 135.45,-84.27 153.77,-75.52"/>
<polygon fill="midnightblue" stroke="midnightblue" points="84.01,-104.97 76.49,-112.44 87.03,-111.29 84.01,-104.97"/>
</g>
<!-- Node33&#45;&gt;Node2 -->
<g id="edge3" class="edge">
<title>Node33&#45;&gt;Node2</title>
<path fill="none" stroke="midnightblue" d="M58.59,-45.8C58.59,-36.91 58.59,-26.78 58.59,-19.75"/>
<polygon fill="midnightblue" stroke="midnightblue" points="55.09,-46.08 58.59,-56.08 62.09,-46.08 55.09,-46.08"/>
</g>
<!-- Node34&#45;&gt;Node2 -->
<g id="edge5" class="edge">
<title>Node34&#45;&gt;Node2</title>
<path fill="none" stroke="midnightblue" d="M144.59,-52.1C123.47,-42.01 94.73,-28.27 76.41,-19.52"/>
<polygon fill="midnightblue" stroke="midnightblue" points="143.15,-55.29 153.68,-56.44 146.17,-48.97 143.15,-55.29"/>
</g>
</g>
</svg>
