<?xml version="1.0" encoding="UTF-8" standalone="no"?>
<!DOCTYPE svg PUBLIC "-//W3C//DTD SVG 1.1//EN"
 "http://www.w3.org/Graphics/SVG/1.1/DTD/svg11.dtd">
<!-- Generated by graphviz version 2.43.0 (0)
 -->
<!-- Title: block_info Pages: 1 -->
<svg width="136pt" height="99pt"
 viewBox="0.00 0.00 136.00 99.00" xmlns="http://www.w3.org/2000/svg" xmlns:xlink="http://www.w3.org/1999/xlink">
<g id="graph0" class="graph" transform="scale(1 1) rotate(0) translate(4 95)">
<title>block_info</title>
<!-- Node1 -->
<g id="node1" class="node">
<title>Node1</title>
<g id="a_node1"><a xlink:title=" ">
<polygon fill="#bfbfbf" stroke="black" points="0,-1.5 0,-20.5 67,-20.5 67,-1.5 0,-1.5"/>
<text text-anchor="middle" x="33.5" y="-8.5" font-family="Helvetica,sans-Serif" font-size="10.00">block_info</text>
</a>
</g>
</g>
<!-- Node1&#45;&gt;Node1 -->
<g id="edge3" class="edge">
<title>Node1&#45;&gt;Node1</title>
<path fill="none" stroke="#9a32cd" stroke-dasharray="5,2" d="M77.22,-16.33C81.95,-15.31 85,-13.53 85,-11 85,-6.95 77.2,-4.83 67.18,-4.64"/>
<polygon fill="#9a32cd" stroke="#9a32cd" points="76.77,-12.86 67.18,-17.36 77.49,-19.82 76.77,-12.86"/>
<text text-anchor="middle" x="106.5" y="-14" font-family="Helvetica,sans-Serif" font-size="10.00"> receiver</text>
<text text-anchor="middle" x="106.5" y="-3" font-family="Helvetica,sans-Serif" font-size="10.00">senders</text>
</g>
<!-- Node2 -->
<g id="node2" class="node">
<title>Node2</title>
<g id="a_node2"><a xlink:href="../../d5/d9d/structsite__info.html" target="_top" xlink:title=" ">
<polygon fill="none" stroke="#bfbfbf" points="4,-70.5 4,-89.5 63,-89.5 63,-70.5 4,-70.5"/>
<text text-anchor="middle" x="33.5" y="-77.5" font-family="Helvetica,sans-Serif" font-size="10.00">site_info</text>
</a>
</g>
</g>
<!-- Node2&#45;&gt;Node1 -->
<g id="edge1" class="edge">
<title>Node2&#45;&gt;Node1</title>
<path fill="none" stroke="#9a32cd" stroke-dasharray="5,2" d="M33.5,-60.02C33.5,-47.03 33.5,-30.44 33.5,-20.55"/>
<polygon fill="#9a32cd" stroke="#9a32cd" points="30,-60.24 33.5,-70.24 37,-60.24 30,-60.24"/>
<text text-anchor="middle" x="46.5" y="-43" font-family="Helvetica,sans-Serif" font-size="10.00"> start</text>
</g>
<!-- Node2&#45;&gt;Node2 -->
<g id="edge2" class="edge">
<title>Node2&#45;&gt;Node2</title>
<path fill="none" stroke="#9a32cd" stroke-dasharray="5,2" d="M73.17,-85.48C77.91,-84.48 81,-82.66 81,-80 81,-75.75 73.08,-73.62 63.19,-73.62"/>
<polygon fill="#9a32cd" stroke="#9a32cd" points="72.83,-81.99 63.19,-86.38 73.46,-88.97 72.83,-81.99"/>
<text text-anchor="middle" x="99.5" y="-83" font-family="Helvetica,sans-Serif" font-size="10.00"> copies</text>
<text text-anchor="middle" x="99.5" y="-72" font-family="Helvetica,sans-Serif" font-size="10.00">original</text>
</g>
</g>
</svg>
