<?xml version="1.0" encoding="UTF-8" standalone="no"?>
<!DOCTYPE svg PUBLIC "-//W3C//DTD SVG 1.1//EN"
 "http://www.w3.org/Graphics/SVG/1.1/DTD/svg11.dtd">
<!-- Generated by graphviz version 2.43.0 (0)
 -->
<!-- Title: Observables Pages: 1 -->
<svg width="166pt" height="167pt"
 viewBox="0.00 0.00 166.00 167.00" xmlns="http://www.w3.org/2000/svg" xmlns:xlink="http://www.w3.org/1999/xlink">
<g id="graph0" class="graph" transform="scale(1 1) rotate(0) translate(4 163)">
<title>Observables</title>
<g id="clust1" class="cluster">
<title>clusterdir_856524284ebe840938865dc061f982fb</title>
<g id="a_clust1"><a xlink:href="dir_856524284ebe840938865dc061f982fb.html" target="_top" xlink:title="Include">
<polygon fill="#daedff" stroke="#404040" stroke-dasharray="5,2" points="8,-8 8,-151 150,-151 150,-8 8,-8"/>
<text text-anchor="middle" x="79" y="-139" font-family="Helvetica,sans-Serif" font-size="10.00">Include</text>
</a>
</g>
</g>
<!-- dir_042917ff93cbe8fd08a35dc3a365551a -->
<g id="node1" class="node">
<title>dir_042917ff93cbe8fd08a35dc3a365551a</title>
<g id="a_node1"><a xlink:href="dir_042917ff93cbe8fd08a35dc3a365551a.html" target="_top" xlink:title="IO">
<polygon fill="#4ea9ff" stroke="#404040" points="70,-52 16,-52 16,-16 70,-16 70,-52"/>
<text text-anchor="middle" x="43" y="-31.5" font-family="Helvetica,sans-Serif" font-size="10.00">IO</text>
</a>
</g>
</g>
<!-- dir_0599d141b1a2e9e9007ecef8e4a97773 -->
<g id="node2" class="node">
<title>dir_0599d141b1a2e9e9007ecef8e4a97773</title>
<g id="a_node2"><a xlink:href="dir_0599d141b1a2e9e9007ecef8e4a97773.html" target="_top" xlink:title="Core">
<polygon fill="#4ea9ff" stroke="#404040" points="142,-52 88,-52 88,-16 142,-16 142,-52"/>
<text text-anchor="middle" x="115" y="-31.5" font-family="Helvetica,sans-Serif" font-size="10.00">Core</text>
</a>
</g>
</g>
<!-- dir_6702df6110c674c7c8f842d9a55de16e -->
<g id="node3" class="node">
<title>dir_6702df6110c674c7c8f842d9a55de16e</title>
<g id="a_node3"><a xlink:href="dir_6702df6110c674c7c8f842d9a55de16e.html" target="_top" xlink:title="Observables">
<polygon fill="#daedff" stroke="#404040" stroke-width="2" points="117.5,-124 40.5,-124 40.5,-88 117.5,-88 117.5,-124"/>
<text text-anchor="middle" x="79" y="-103.5" font-family="Helvetica,sans-Serif" font-size="10.00">Observables</text>
</a>
</g>
</g>
<!-- dir_6702df6110c674c7c8f842d9a55de16e&#45;&gt;dir_042917ff93cbe8fd08a35dc3a365551a -->
<g id="edge1" class="edge">
<title>dir_6702df6110c674c7c8f842d9a55de16e&#45;&gt;dir_042917ff93cbe8fd08a35dc3a365551a</title>
<path fill="none" stroke="black" d="M70.1,-87.7C66,-79.73 61.05,-70.1 56.51,-61.26"/>
<polygon fill="black" stroke="black" points="59.48,-59.4 51.8,-52.1 53.26,-62.6 59.48,-59.4"/>
<g id="a_edge1&#45;headlabel"><a xlink:href="dir_000015_000010.html" target="_top" xlink:title="1">
<text text-anchor="middle" x="63.65" y="-58.79" font-family="Helvetica,sans-Serif" font-size="10.00">1</text>
</a>
</g>
</g>
<!-- dir_6702df6110c674c7c8f842d9a55de16e&#45;&gt;dir_0599d141b1a2e9e9007ecef8e4a97773 -->
<g id="edge2" class="edge">
<title>dir_6702df6110c674c7c8f842d9a55de16e&#45;&gt;dir_0599d141b1a2e9e9007ecef8e4a97773</title>
<path fill="none" stroke="black" d="M87.9,-87.7C92,-79.73 96.95,-70.1 101.49,-61.26"/>
<polygon fill="black" stroke="black" points="104.74,-62.6 106.2,-52.1 98.52,-59.4 104.74,-62.6"/>
<g id="a_edge2&#45;headlabel"><a xlink:href="dir_000015_000000.html" target="_top" xlink:title="16">
<text text-anchor="middle" x="105.62" y="-64.59" font-family="Helvetica,sans-Serif" font-size="10.00">16</text>
</a>
</g>
</g>
</g>
</svg>
