<?xml version="1.0" encoding="UTF-8" standalone="no"?>
<!DOCTYPE svg PUBLIC "-//W3C//DTD SVG 1.1//EN"
 "http://www.w3.org/Graphics/SVG/1.1/DTD/svg11.dtd">
<!-- Generated by graphviz version 2.43.0 (0)
 -->
<!-- Title: IO Pages: 1 -->
<svg width="94pt" height="151pt"
 viewBox="0.00 0.00 94.00 151.00" xmlns="http://www.w3.org/2000/svg" xmlns:xlink="http://www.w3.org/1999/xlink">
<g id="graph0" class="graph" transform="scale(1 1) rotate(0) translate(4 147)">
<title>IO</title>
<g id="clust1" class="cluster">
<title>clusterdir_8d9c9bab54275f7223e972448cc224a9</title>
<g id="a_clust1"><a xlink:href="dir_8d9c9bab54275f7223e972448cc224a9.html" target="_top" xlink:title="LibHR">
<polygon fill="#daedff" stroke="#404040" stroke-dasharray="5,2" points="8,-64 8,-135 78,-135 78,-64 8,-64"/>
<text text-anchor="middle" x="43" y="-123" font-family="Helvetica,sans-Serif" font-size="10.00">LibHR</text>
</a>
</g>
</g>
<!-- dir_e2652a780683b9c1a9181fd071c0a056 -->
<g id="node1" class="node">
<title>dir_e2652a780683b9c1a9181fd071c0a056</title>
<g id="a_node1"><a xlink:href="dir_e2652a780683b9c1a9181fd071c0a056.html" target="_top" xlink:title="IO">
<polygon fill="#daedff" stroke="#404040" stroke-width="2" points="70,-108 16,-108 16,-72 70,-72 70,-108"/>
<text text-anchor="middle" x="43" y="-87.5" font-family="Helvetica,sans-Serif" font-size="10.00">IO</text>
</a>
</g>
</g>
<!-- dir_856524284ebe840938865dc061f982fb -->
<g id="node2" class="node">
<title>dir_856524284ebe840938865dc061f982fb</title>
<g id="a_node2"><a xlink:href="dir_856524284ebe840938865dc061f982fb.html" target="_top" xlink:title="Include">
<polygon fill="none" stroke="red" points="70,-36 16,-36 16,0 70,0 70,-36"/>
<text text-anchor="middle" x="43" y="-15.5" font-family="Helvetica,sans-Serif" font-size="10.00">Include</text>
</a>
</g>
</g>
<!-- dir_e2652a780683b9c1a9181fd071c0a056&#45;&gt;dir_856524284ebe840938865dc061f982fb -->
<g id="edge1" class="edge">
<title>dir_e2652a780683b9c1a9181fd071c0a056&#45;&gt;dir_856524284ebe840938865dc061f982fb</title>
<path fill="none" stroke="black" d="M43,-71.7C43,-63.98 43,-54.71 43,-46.11"/>
<polygon fill="black" stroke="black" points="46.5,-46.1 43,-36.1 39.5,-46.1 46.5,-46.1"/>
<g id="a_edge1&#45;headlabel"><a xlink:href="dir_000011_000007.html" target="_top" xlink:title="3">
<text text-anchor="middle" x="49.34" y="-47.2" font-family="Helvetica,sans-Serif" font-size="10.00">3</text>
</a>
</g>
</g>
</g>
</svg>
