<?xml version="1.0" encoding="UTF-8" standalone="no"?>
<!DOCTYPE svg PUBLIC "-//W3C//DTD SVG 1.1//EN"
 "http://www.w3.org/Graphics/SVG/1.1/DTD/svg11.dtd">
<!-- Generated by graphviz version 2.43.0 (0)
 -->
<!-- Title: LibHR Pages: 1 -->
<svg width="942pt" height="132pt"
 viewBox="0.00 0.00 942.00 132.00" xmlns="http://www.w3.org/2000/svg" xmlns:xlink="http://www.w3.org/1999/xlink">
<g id="graph0" class="graph" transform="scale(1 1) rotate(0) translate(4 128)">
<title>LibHR</title>
<g id="clust1" class="cluster">
<title>clusterdir_8d9c9bab54275f7223e972448cc224a9</title>
<g id="a_clust1"><a xlink:href="dir_8d9c9bab54275f7223e972448cc224a9.html" target="_top">
<polygon fill="#daedff" stroke="#404040" stroke-width="2" points="8,-64 8,-116 926,-116 926,-64 8,-64"/>
</a>
</g>
</g>
<!-- dir_8d9c9bab54275f7223e972448cc224a9 -->
<g id="node1" class="node">
<title>dir_8d9c9bab54275f7223e972448cc224a9</title>
<text text-anchor="middle" x="891" y="-87.5" font-family="Helvetica,sans-Serif" font-size="10.00">LibHR</text>
</g>
<!-- dir_3214dc2b11a4e2d09a77d2cb08a0ad09 -->
<g id="node2" class="node">
<title>dir_3214dc2b11a4e2d09a77d2cb08a0ad09</title>
<g id="a_node2"><a xlink:href="dir_3214dc2b11a4e2d09a77d2cb08a0ad09.html" target="_top" xlink:title="Core">
<polygon fill="#4ea9ff" stroke="#404040" points="846,-108 792,-108 792,-72 846,-72 846,-108"/>
<text text-anchor="middle" x="819" y="-87.5" font-family="Helvetica,sans-Serif" font-size="10.00">Core</text>
</a>
</g>
</g>
<!-- dir_856524284ebe840938865dc061f982fb -->
<g id="node13" class="node">
<title>dir_856524284ebe840938865dc061f982fb</title>
<g id="a_node13"><a xlink:href="dir_856524284ebe840938865dc061f982fb.html" target="_top" xlink:title="Include">
<polygon fill="none" stroke="red" points="503,-36 449,-36 449,0 503,0 503,-36"/>
<text text-anchor="middle" x="476" y="-15.5" font-family="Helvetica,sans-Serif" font-size="10.00">Include</text>
</a>
</g>
</g>
<!-- dir_3214dc2b11a4e2d09a77d2cb08a0ad09&#45;&gt;dir_856524284ebe840938865dc061f982fb -->
<g id="edge1" class="edge">
<title>dir_3214dc2b11a4e2d09a77d2cb08a0ad09&#45;&gt;dir_856524284ebe840938865dc061f982fb</title>
<path fill="none" stroke="black" d="M797.84,-71.94C793.17,-68.87 788.1,-66.01 783,-64 690.84,-27.59 572.61,-20.27 513.36,-19.03"/>
<polygon fill="black" stroke="black" points="513.4,-15.53 503.34,-18.87 513.29,-22.53 513.4,-15.53"/>
<g id="a_edge1&#45;headlabel"><a xlink:href="dir_000001_000007.html" target="_top" xlink:title="2">
<text text-anchor="middle" x="517.04" y="-10.25" font-family="Helvetica,sans-Serif" font-size="10.00">2</text>
</a>
</g>
</g>
<!-- dir_86eb9c97d9edd5f38c329af111456f9c -->
<g id="node3" class="node">
<title>dir_86eb9c97d9edd5f38c329af111456f9c</title>
<g id="a_node3"><a xlink:href="dir_86eb9c97d9edd5f38c329af111456f9c.html" target="_top" xlink:title="Error">
<polygon fill="#4ea9ff" stroke="#404040" points="774,-108 720,-108 720,-72 774,-72 774,-108"/>
<text text-anchor="middle" x="747" y="-87.5" font-family="Helvetica,sans-Serif" font-size="10.00">Error</text>
</a>
</g>
</g>
<!-- dir_86eb9c97d9edd5f38c329af111456f9c&#45;&gt;dir_856524284ebe840938865dc061f982fb -->
<g id="edge2" class="edge">
<title>dir_86eb9c97d9edd5f38c329af111456f9c&#45;&gt;dir_856524284ebe840938865dc061f982fb</title>
<path fill="none" stroke="black" d="M725.38,-71.86C720.83,-68.87 715.91,-66.06 711,-64 644.79,-36.15 560.8,-25.39 513.26,-21.34"/>
<polygon fill="black" stroke="black" points="513.37,-17.84 503.13,-20.54 512.82,-24.82 513.37,-17.84"/>
<g id="a_edge2&#45;headlabel"><a xlink:href="dir_000004_000007.html" target="_top" xlink:title="3">
<text text-anchor="middle" x="517.18" y="-12.8" font-family="Helvetica,sans-Serif" font-size="10.00">3</text>
</a>
</g>
</g>
<!-- dir_59539e0497069495010ff976c201df9d -->
<g id="node4" class="node">
<title>dir_59539e0497069495010ff976c201df9d</title>
<g id="a_node4"><a xlink:href="dir_59539e0497069495010ff976c201df9d.html" target="_top" xlink:title="Geometry">
<polygon fill="#4ea9ff" stroke="#404040" points="701.5,-108 636.5,-108 636.5,-72 701.5,-72 701.5,-108"/>
<text text-anchor="middle" x="669" y="-87.5" font-family="Helvetica,sans-Serif" font-size="10.00">Geometry</text>
</a>
</g>
</g>
<!-- dir_59539e0497069495010ff976c201df9d&#45;&gt;dir_856524284ebe840938865dc061f982fb -->
<g id="edge3" class="edge">
<title>dir_59539e0497069495010ff976c201df9d&#45;&gt;dir_856524284ebe840938865dc061f982fb</title>
<path fill="none" stroke="black" d="M642.41,-71.85C637.41,-69 632.13,-66.25 627,-64 589.53,-47.57 544.29,-34.97 513.15,-27.34"/>
<polygon fill="black" stroke="black" points="513.71,-23.88 503.17,-24.95 512.08,-30.68 513.71,-23.88"/>
<g id="a_edge3&#45;headlabel"><a xlink:href="dir_000006_000007.html" target="_top" xlink:title="18">
<text text-anchor="middle" x="517.87" y="-19.45" font-family="Helvetica,sans-Serif" font-size="10.00">18</text>
</a>
</g>
</g>
<!-- dir_415a916a1fbcf6d03bef6bcc2348d6df -->
<g id="node5" class="node">
<title>dir_415a916a1fbcf6d03bef6bcc2348d6df</title>
<g id="a_node5"><a xlink:href="dir_415a916a1fbcf6d03bef6bcc2348d6df.html" target="_top" xlink:title="Inverters">
<polygon fill="#4ea9ff" stroke="#404040" points="618,-108 558,-108 558,-72 618,-72 618,-108"/>
<text text-anchor="middle" x="588" y="-87.5" font-family="Helvetica,sans-Serif" font-size="10.00">Inverters</text>
</a>
</g>
</g>
<!-- dir_415a916a1fbcf6d03bef6bcc2348d6df&#45;&gt;dir_856524284ebe840938865dc061f982fb -->
<g id="edge4" class="edge">
<title>dir_415a916a1fbcf6d03bef6bcc2348d6df&#45;&gt;dir_856524284ebe840938865dc061f982fb</title>
<path fill="none" stroke="black" d="M561.61,-71.99C557.4,-69.31 553.09,-66.57 549,-64 536.95,-56.42 523.71,-48.23 511.86,-40.93"/>
<polygon fill="black" stroke="black" points="513.46,-37.81 503.11,-35.56 509.8,-43.77 513.46,-37.81"/>
<g id="a_edge4&#45;headlabel"><a xlink:href="dir_000009_000007.html" target="_top" xlink:title="5">
<text text-anchor="middle" x="518.01" y="-34.77" font-family="Helvetica,sans-Serif" font-size="10.00">5</text>
</a>
</g>
</g>
<!-- dir_e2652a780683b9c1a9181fd071c0a056 -->
<g id="node6" class="node">
<title>dir_e2652a780683b9c1a9181fd071c0a056</title>
<g id="a_node6"><a xlink:href="dir_e2652a780683b9c1a9181fd071c0a056.html" target="_top" xlink:title="IO">
<polygon fill="#4ea9ff" stroke="#404040" points="540,-108 486,-108 486,-72 540,-72 540,-108"/>
<text text-anchor="middle" x="513" y="-87.5" font-family="Helvetica,sans-Serif" font-size="10.00">IO</text>
</a>
</g>
</g>
<!-- dir_e2652a780683b9c1a9181fd071c0a056&#45;&gt;dir_856524284ebe840938865dc061f982fb -->
<g id="edge5" class="edge">
<title>dir_e2652a780683b9c1a9181fd071c0a056&#45;&gt;dir_856524284ebe840938865dc061f982fb</title>
<path fill="none" stroke="black" d="M503.85,-71.7C499.6,-63.64 494.44,-53.89 489.73,-44.98"/>
<polygon fill="black" stroke="black" points="492.81,-43.31 485.04,-36.1 486.62,-46.58 492.81,-43.31"/>
<g id="a_edge5&#45;headlabel"><a xlink:href="dir_000011_000007.html" target="_top" xlink:title="3">
<text text-anchor="middle" x="497" y="-42.66" font-family="Helvetica,sans-Serif" font-size="10.00">3</text>
</a>
</g>
</g>
<!-- dir_b79351b7507fa81f847f20f5273ecc03 -->
<g id="node7" class="node">
<title>dir_b79351b7507fa81f847f20f5273ecc03</title>
<g id="a_node7"><a xlink:href="dir_b79351b7507fa81f847f20f5273ecc03.html" target="_top" xlink:title="Memory">
<polygon fill="#4ea9ff" stroke="#404040" points="467.5,-108 410.5,-108 410.5,-72 467.5,-72 467.5,-108"/>
<text text-anchor="middle" x="439" y="-87.5" font-family="Helvetica,sans-Serif" font-size="10.00">Memory</text>
</a>
</g>
</g>
<!-- dir_b79351b7507fa81f847f20f5273ecc03&#45;&gt;dir_856524284ebe840938865dc061f982fb -->
<g id="edge6" class="edge">
<title>dir_b79351b7507fa81f847f20f5273ecc03&#45;&gt;dir_856524284ebe840938865dc061f982fb</title>
<path fill="none" stroke="black" d="M448.15,-71.7C452.4,-63.64 457.56,-53.89 462.27,-44.98"/>
<polygon fill="black" stroke="black" points="465.38,-46.58 466.96,-36.1 459.19,-43.31 465.38,-46.58"/>
<g id="a_edge6&#45;headlabel"><a xlink:href="dir_000014_000007.html" target="_top" xlink:title="3">
<text text-anchor="middle" x="466.21" y="-48.59" font-family="Helvetica,sans-Serif" font-size="10.00">3</text>
</a>
</g>
</g>
<!-- dir_5f0c683742883e8f105d7ebe24465985 -->
<g id="node8" class="node">
<title>dir_5f0c683742883e8f105d7ebe24465985</title>
<g id="a_node8"><a xlink:href="dir_5f0c683742883e8f105d7ebe24465985.html" target="_top" xlink:title="Observables">
<polygon fill="#4ea9ff" stroke="#404040" points="392.5,-108 315.5,-108 315.5,-72 392.5,-72 392.5,-108"/>
<text text-anchor="middle" x="354" y="-87.5" font-family="Helvetica,sans-Serif" font-size="10.00">Observables</text>
</a>
</g>
</g>
<!-- dir_5f0c683742883e8f105d7ebe24465985&#45;&gt;dir_856524284ebe840938865dc061f982fb -->
<g id="edge7" class="edge">
<title>dir_5f0c683742883e8f105d7ebe24465985&#45;&gt;dir_856524284ebe840938865dc061f982fb</title>
<path fill="none" stroke="black" d="M383.84,-71.88C400.78,-62.16 422.11,-49.92 439.97,-39.67"/>
<polygon fill="black" stroke="black" points="442.03,-42.53 448.96,-34.51 438.55,-36.46 442.03,-42.53"/>
<g id="a_edge7&#45;headlabel"><a xlink:href="dir_000016_000007.html" target="_top" xlink:title="11">
<text text-anchor="middle" x="440.32" y="-44.28" font-family="Helvetica,sans-Serif" font-size="10.00">11</text>
</a>
</g>
</g>
<!-- dir_2862191ed9fbe4f62eda5b6eb4f9feb6 -->
<g id="node9" class="node">
<title>dir_2862191ed9fbe4f62eda5b6eb4f9feb6</title>
<g id="a_node9"><a xlink:href="dir_2862191ed9fbe4f62eda5b6eb4f9feb6.html" target="_top" xlink:title="Random">
<polygon fill="#4ea9ff" stroke="#404040" points="297.5,-108 240.5,-108 240.5,-72 297.5,-72 297.5,-108"/>
<text text-anchor="middle" x="269" y="-87.5" font-family="Helvetica,sans-Serif" font-size="10.00">Random</text>
</a>
</g>
</g>
<!-- dir_2862191ed9fbe4f62eda5b6eb4f9feb6&#45;&gt;dir_856524284ebe840938865dc061f982fb -->
<g id="edge8" class="edge">
<title>dir_2862191ed9fbe4f62eda5b6eb4f9feb6&#45;&gt;dir_856524284ebe840938865dc061f982fb</title>
<path fill="none" stroke="black" d="M292.45,-71.91C297.12,-68.99 302.1,-66.19 307,-64 350.19,-44.66 403.44,-32.18 438.49,-25.39"/>
<polygon fill="black" stroke="black" points="439.57,-28.75 448.75,-23.46 438.27,-21.87 439.57,-28.75"/>
<g id="a_edge8&#45;headlabel"><a xlink:href="dir_000018_000007.html" target="_top" xlink:title="3">
<text text-anchor="middle" x="436.56" y="-29.7" font-family="Helvetica,sans-Serif" font-size="10.00">3</text>
</a>
</g>
</g>
<!-- dir_0e75fa9af7fad45578a40c0e11432a1b -->
<g id="node10" class="node">
<title>dir_0e75fa9af7fad45578a40c0e11432a1b</title>
<g id="a_node10"><a xlink:href="dir_0e75fa9af7fad45578a40c0e11432a1b.html" target="_top" xlink:title="Statistics">
<polygon fill="#4ea9ff" stroke="#404040" points="222,-108 160,-108 160,-72 222,-72 222,-108"/>
<text text-anchor="middle" x="191" y="-87.5" font-family="Helvetica,sans-Serif" font-size="10.00">Statistics</text>
</a>
</g>
</g>
<!-- dir_96cea3264d8327c0d8fc46bc059f8987 -->
<g id="node11" class="node">
<title>dir_96cea3264d8327c0d8fc46bc059f8987</title>
<g id="a_node11"><a xlink:href="dir_96cea3264d8327c0d8fc46bc059f8987.html" target="_top" xlink:title="Update">
<polygon fill="#4ea9ff" stroke="#404040" points="142,-108 88,-108 88,-72 142,-72 142,-108"/>
<text text-anchor="middle" x="115" y="-87.5" font-family="Helvetica,sans-Serif" font-size="10.00">Update</text>
</a>
</g>
</g>
<!-- dir_96cea3264d8327c0d8fc46bc059f8987&#45;&gt;dir_856524284ebe840938865dc061f982fb -->
<g id="edge9" class="edge">
<title>dir_96cea3264d8327c0d8fc46bc059f8987&#45;&gt;dir_856524284ebe840938865dc061f982fb</title>
<path fill="none" stroke="black" d="M136.15,-71.91C140.82,-68.84 145.9,-65.99 151,-64 249.81,-25.41 376.85,-19.15 438.75,-18.61"/>
<polygon fill="black" stroke="black" points="438.84,-22.11 448.83,-18.56 438.81,-15.11 438.84,-22.11"/>
<g id="a_edge9&#45;headlabel"><a xlink:href="dir_000023_000007.html" target="_top" xlink:title="32">
<text text-anchor="middle" x="435.26" y="-22.46" font-family="Helvetica,sans-Serif" font-size="10.00">32</text>
</a>
</g>
</g>
<!-- dir_8a23b96c21da8880285d5fe8247fa8fe -->
<g id="node12" class="node">
<title>dir_8a23b96c21da8880285d5fe8247fa8fe</title>
<g id="a_node12"><a xlink:href="dir_8a23b96c21da8880285d5fe8247fa8fe.html" target="_top" xlink:title="Utils">
<polygon fill="#4ea9ff" stroke="#404040" points="70,-108 16,-108 16,-72 70,-72 70,-108"/>
<text text-anchor="middle" x="43" y="-87.5" font-family="Helvetica,sans-Serif" font-size="10.00">Utils</text>
</a>
</g>
</g>
<!-- dir_8a23b96c21da8880285d5fe8247fa8fe&#45;&gt;dir_856524284ebe840938865dc061f982fb -->
<g id="edge10" class="edge">
<title>dir_8a23b96c21da8880285d5fe8247fa8fe&#45;&gt;dir_856524284ebe840938865dc061f982fb</title>
<path fill="none" stroke="black" d="M64.11,-71.81C68.78,-68.75 73.87,-65.93 79,-64 144.44,-39.37 353,-25.63 438.69,-20.9"/>
<polygon fill="black" stroke="black" points="438.96,-24.39 448.75,-20.35 438.58,-17.4 438.96,-24.39"/>
<g id="a_edge10&#45;headlabel"><a xlink:href="dir_000026_000007.html" target="_top" xlink:title="4">
<text text-anchor="middle" x="435.52" y="-24.92" font-family="Helvetica,sans-Serif" font-size="10.00">4</text>
</a>
</g>
</g>
</g>
</svg>
