<?xml version="1.0" encoding="UTF-8" standalone="no"?>
<!DOCTYPE svg PUBLIC "-//W3C//DTD SVG 1.1//EN"
 "http://www.w3.org/Graphics/SVG/1.1/DTD/svg11.dtd">
<!-- Generated by graphviz version 2.43.0 (0)
 -->
<!-- Title: Utils Pages: 1 -->
<svg width="178pt" height="167pt"
 viewBox="0.00 0.00 178.00 167.00" xmlns="http://www.w3.org/2000/svg" xmlns:xlink="http://www.w3.org/1999/xlink">
<g id="graph0" class="graph" transform="scale(1 1) rotate(0) translate(4 163)">
<title>Utils</title>
<g id="clust1" class="cluster">
<title>clusterdir_856524284ebe840938865dc061f982fb</title>
<g id="a_clust1"><a xlink:href="dir_856524284ebe840938865dc061f982fb.html" target="_top" xlink:title="Include">
<polygon fill="#daedff" stroke="#404040" stroke-dasharray="5,2" points="8,-8 8,-151 162,-151 162,-8 8,-8"/>
<text text-anchor="middle" x="85" y="-139" font-family="Helvetica,sans-Serif" font-size="10.00">Include</text>
</a>
</g>
</g>
<!-- dir_0599d141b1a2e9e9007ecef8e4a97773 -->
<g id="node1" class="node">
<title>dir_0599d141b1a2e9e9007ecef8e4a97773</title>
<g id="a_node1"><a xlink:href="dir_0599d141b1a2e9e9007ecef8e4a97773.html" target="_top" xlink:title="Core">
<polygon fill="#4ea9ff" stroke="#404040" points="70,-52 16,-52 16,-16 70,-16 70,-52"/>
<text text-anchor="middle" x="43" y="-31.5" font-family="Helvetica,sans-Serif" font-size="10.00">Core</text>
</a>
</g>
</g>
<!-- dir_6e870ef65178f351a0558df8a56907f0 -->
<g id="node2" class="node">
<title>dir_6e870ef65178f351a0558df8a56907f0</title>
<g id="a_node2"><a xlink:href="dir_6e870ef65178f351a0558df8a56907f0.html" target="_top" xlink:title="Geometry">
<polygon fill="#4ea9ff" stroke="#404040" points="153.5,-52 88.5,-52 88.5,-16 153.5,-16 153.5,-52"/>
<text text-anchor="middle" x="121" y="-31.5" font-family="Helvetica,sans-Serif" font-size="10.00">Geometry</text>
</a>
</g>
</g>
<!-- dir_91ce8992212d64b1bc85f2ed078c9c66 -->
<g id="node3" class="node">
<title>dir_91ce8992212d64b1bc85f2ed078c9c66</title>
<g id="a_node3"><a xlink:href="dir_91ce8992212d64b1bc85f2ed078c9c66.html" target="_top" xlink:title="Utils">
<polygon fill="#daedff" stroke="#404040" stroke-width="2" points="109,-124 55,-124 55,-88 109,-88 109,-124"/>
<text text-anchor="middle" x="82" y="-103.5" font-family="Helvetica,sans-Serif" font-size="10.00">Utils</text>
</a>
</g>
</g>
<!-- dir_91ce8992212d64b1bc85f2ed078c9c66&#45;&gt;dir_0599d141b1a2e9e9007ecef8e4a97773 -->
<g id="edge1" class="edge">
<title>dir_91ce8992212d64b1bc85f2ed078c9c66&#45;&gt;dir_0599d141b1a2e9e9007ecef8e4a97773</title>
<path fill="none" stroke="black" d="M72.36,-87.7C67.87,-79.64 62.44,-69.89 57.48,-60.98"/>
<polygon fill="black" stroke="black" points="60.45,-59.14 52.53,-52.1 54.34,-62.54 60.45,-59.14"/>
<g id="a_edge1&#45;headlabel"><a xlink:href="dir_000025_000000.html" target="_top" xlink:title="10">
<text text-anchor="middle" x="64.68" y="-58.39" font-family="Helvetica,sans-Serif" font-size="10.00">10</text>
</a>
</g>
</g>
<!-- dir_91ce8992212d64b1bc85f2ed078c9c66&#45;&gt;dir_6e870ef65178f351a0558df8a56907f0 -->
<g id="edge2" class="edge">
<title>dir_91ce8992212d64b1bc85f2ed078c9c66&#45;&gt;dir_6e870ef65178f351a0558df8a56907f0</title>
<path fill="none" stroke="black" d="M91.64,-87.7C96.13,-79.64 101.56,-69.89 106.52,-60.98"/>
<polygon fill="black" stroke="black" points="109.66,-62.54 111.47,-52.1 103.55,-59.14 109.66,-62.54"/>
<g id="a_edge2&#45;headlabel"><a xlink:href="dir_000025_000005.html" target="_top" xlink:title="2">
<text text-anchor="middle" x="110.39" y="-64.57" font-family="Helvetica,sans-Serif" font-size="10.00">2</text>
</a>
</g>
</g>
</g>
</svg>
