<?xml version="1.0" encoding="UTF-8" standalone="no"?>
<!DOCTYPE svg PUBLIC "-//W3C//DTD SVG 1.1//EN"
 "http://www.w3.org/Graphics/SVG/1.1/DTD/svg11.dtd">
<!-- Generated by graphviz version 2.43.0 (0)
 -->
<!-- Title: Include Pages: 1 -->
<svg width="599pt" height="292pt"
 viewBox="0.00 0.00 599.00 292.00" xmlns="http://www.w3.org/2000/svg" xmlns:xlink="http://www.w3.org/1999/xlink">
<g id="graph0" class="graph" transform="scale(1 1) rotate(0) translate(4 288)">
<title>Include</title>
<g id="clust1" class="cluster">
<title>clusterdir_856524284ebe840938865dc061f982fb</title>
<g id="a_clust1"><a xlink:href="dir_856524284ebe840938865dc061f982fb.html" target="_top">
<polygon fill="#daedff" stroke="#404040" stroke-width="2" points="8,-8 8,-276 583,-276 583,-8 8,-8"/>
</a>
</g>
</g>
<!-- dir_856524284ebe840938865dc061f982fb -->
<g id="node1" class="node">
<title>dir_856524284ebe840938865dc061f982fb</title>
<text text-anchor="middle" x="292" y="-247.5" font-family="Helvetica,sans-Serif" font-size="10.00">Include</text>
</g>
<!-- dir_0599d141b1a2e9e9007ecef8e4a97773 -->
<g id="node2" class="node">
<title>dir_0599d141b1a2e9e9007ecef8e4a97773</title>
<g id="a_node2"><a xlink:href="dir_0599d141b1a2e9e9007ecef8e4a97773.html" target="_top" xlink:title="Core">
<polygon fill="#4ea9ff" stroke="#404040" points="365,-124 311,-124 311,-88 365,-88 365,-124"/>
<text text-anchor="middle" x="338" y="-103.5" font-family="Helvetica,sans-Serif" font-size="10.00">Core</text>
</a>
</g>
</g>
<!-- dir_856524284ebe840938865dc061f982fb&#45;&gt;dir_0599d141b1a2e9e9007ecef8e4a97773 -->
<g id="edge2" class="edge">
<title>dir_856524284ebe840938865dc061f982fb&#45;&gt;dir_0599d141b1a2e9e9007ecef8e4a97773</title>
<path fill="none" stroke="black" d="M307.03,-231.58C314.62,-221.78 323.22,-208.94 328,-196 335.32,-176.22 337.69,-152.42 338.3,-134.41"/>
<polygon fill="black" stroke="black" points="341.8,-134.35 338.48,-124.29 334.8,-134.23 341.8,-134.35"/>
<g id="a_edge2&#45;headlabel"><a xlink:href="dir_000007_000000.html" target="_top" xlink:title="65">
<text text-anchor="middle" x="344.57" y="-135.5" font-family="Helvetica,sans-Serif" font-size="10.00">65</text>
</a>
</g>
</g>
<!-- dir_e3c4ca29053b6f585d0dd3b57d70ab70 -->
<g id="node3" class="node">
<title>dir_e3c4ca29053b6f585d0dd3b57d70ab70</title>
<g id="a_node3"><a xlink:href="dir_e3c4ca29053b6f585d0dd3b57d70ab70.html" target="_top" xlink:title="Error">
<polygon fill="#4ea9ff" stroke="#404040" points="411,-196 357,-196 357,-160 411,-160 411,-196"/>
<text text-anchor="middle" x="384" y="-175.5" font-family="Helvetica,sans-Serif" font-size="10.00">Error</text>
</a>
</g>
</g>
<!-- dir_856524284ebe840938865dc061f982fb&#45;&gt;dir_e3c4ca29053b6f585d0dd3b57d70ab70 -->
<g id="edge9" class="edge">
<title>dir_856524284ebe840938865dc061f982fb&#45;&gt;dir_e3c4ca29053b6f585d0dd3b57d70ab70</title>
<path fill="none" stroke="black" d="M314.74,-231.7C326.44,-222.8 340.86,-211.82 353.51,-202.2"/>
<polygon fill="black" stroke="black" points="355.68,-204.94 361.52,-196.1 351.44,-199.37 355.68,-204.94"/>
<g id="a_edge9&#45;headlabel"><a xlink:href="dir_000007_000003.html" target="_top" xlink:title="2">
<text text-anchor="middle" x="354.54" y="-206.88" font-family="Helvetica,sans-Serif" font-size="10.00">2</text>
</a>
</g>
</g>
<!-- dir_6e870ef65178f351a0558df8a56907f0 -->
<g id="node4" class="node">
<title>dir_6e870ef65178f351a0558df8a56907f0</title>
<g id="a_node4"><a xlink:href="dir_6e870ef65178f351a0558df8a56907f0.html" target="_top" xlink:title="Geometry">
<polygon fill="#4ea9ff" stroke="#404040" points="370.5,-52 305.5,-52 305.5,-16 370.5,-16 370.5,-52"/>
<text text-anchor="middle" x="338" y="-31.5" font-family="Helvetica,sans-Serif" font-size="10.00">Geometry</text>
</a>
</g>
</g>
<!-- dir_856524284ebe840938865dc061f982fb&#45;&gt;dir_6e870ef65178f351a0558df8a56907f0 -->
<g id="edge5" class="edge">
<title>dir_856524284ebe840938865dc061f982fb&#45;&gt;dir_6e870ef65178f351a0558df8a56907f0</title>
<path fill="none" stroke="black" d="M264.58,-244.47C198.36,-233.41 34.59,-205.25 27,-196 16.86,-183.63 18.04,-173.26 27,-160 87.75,-70.12 224.95,-44.85 295.04,-37.76"/>
<polygon fill="black" stroke="black" points="295.65,-41.22 305.28,-36.81 295,-34.25 295.65,-41.22"/>
<g id="a_edge5&#45;headlabel"><a xlink:href="dir_000007_000005.html" target="_top" xlink:title="17">
<text text-anchor="middle" x="292.33" y="-41.88" font-family="Helvetica,sans-Serif" font-size="10.00">17</text>
</a>
</g>
</g>
<!-- dir_4dbfcc87b9e83ca48e7e48cfedba2860 -->
<g id="node5" class="node">
<title>dir_4dbfcc87b9e83ca48e7e48cfedba2860</title>
<g id="a_node5"><a xlink:href="dir_4dbfcc87b9e83ca48e7e48cfedba2860.html" target="_top" xlink:title="Inverters">
<polygon fill="#4ea9ff" stroke="#404040" points="96,-196 36,-196 36,-160 96,-160 96,-196"/>
<text text-anchor="middle" x="66" y="-175.5" font-family="Helvetica,sans-Serif" font-size="10.00">Inverters</text>
</a>
</g>
</g>
<!-- dir_856524284ebe840938865dc061f982fb&#45;&gt;dir_4dbfcc87b9e83ca48e7e48cfedba2860 -->
<g id="edge3" class="edge">
<title>dir_856524284ebe840938865dc061f982fb&#45;&gt;dir_4dbfcc87b9e83ca48e7e48cfedba2860</title>
<path fill="none" stroke="black" d="M264.7,-242.49C229.75,-233.9 167.25,-217.64 105.56,-195.97"/>
<polygon fill="black" stroke="black" points="106.67,-192.65 96.07,-192.59 104.32,-199.24 106.67,-192.65"/>
<g id="a_edge3&#45;headlabel"><a xlink:href="dir_000007_000008.html" target="_top" xlink:title="5">
<text text-anchor="middle" x="111.01" y="-188.68" font-family="Helvetica,sans-Serif" font-size="10.00">5</text>
</a>
</g>
</g>
<!-- dir_042917ff93cbe8fd08a35dc3a365551a -->
<g id="node6" class="node">
<title>dir_042917ff93cbe8fd08a35dc3a365551a</title>
<g id="a_node6"><a xlink:href="dir_042917ff93cbe8fd08a35dc3a365551a.html" target="_top" xlink:title="IO">
<polygon fill="#4ea9ff" stroke="#404040" points="483,-196 429,-196 429,-160 483,-160 483,-196"/>
<text text-anchor="middle" x="456" y="-175.5" font-family="Helvetica,sans-Serif" font-size="10.00">IO</text>
</a>
</g>
</g>
<!-- dir_856524284ebe840938865dc061f982fb&#45;&gt;dir_042917ff93cbe8fd08a35dc3a365551a -->
<g id="edge1" class="edge">
<title>dir_856524284ebe840938865dc061f982fb&#45;&gt;dir_042917ff93cbe8fd08a35dc3a365551a</title>
<path fill="none" stroke="black" d="M319.13,-238.21C343.27,-228.52 379.72,-213.64 419.57,-196.1"/>
<polygon fill="black" stroke="black" points="421.21,-199.2 428.94,-191.95 418.38,-192.8 421.21,-199.2"/>
<g id="a_edge1&#45;headlabel"><a xlink:href="dir_000007_000010.html" target="_top" xlink:title="6">
<text text-anchor="middle" x="419.07" y="-200.75" font-family="Helvetica,sans-Serif" font-size="10.00">6</text>
</a>
</g>
</g>
<!-- dir_c23e7cffbde126859bfb13ca741093c1 -->
<g id="node7" class="node">
<title>dir_c23e7cffbde126859bfb13ca741093c1</title>
<g id="a_node7"><a xlink:href="dir_c23e7cffbde126859bfb13ca741093c1.html" target="_top" xlink:title="Memory">
<polygon fill="#4ea9ff" stroke="#404040" points="171.5,-196 114.5,-196 114.5,-160 171.5,-160 171.5,-196"/>
<text text-anchor="middle" x="143" y="-175.5" font-family="Helvetica,sans-Serif" font-size="10.00">Memory</text>
</a>
</g>
</g>
<!-- dir_856524284ebe840938865dc061f982fb&#45;&gt;dir_c23e7cffbde126859bfb13ca741093c1 -->
<g id="edge8" class="edge">
<title>dir_856524284ebe840938865dc061f982fb&#45;&gt;dir_c23e7cffbde126859bfb13ca741093c1</title>
<path fill="none" stroke="black" d="M264.67,-236.16C241.18,-225.12 207.05,-209.09 180.91,-196.81"/>
<polygon fill="black" stroke="black" points="182.22,-193.56 171.68,-192.47 179.24,-199.89 182.22,-193.56"/>
<g id="a_edge8&#45;headlabel"><a xlink:href="dir_000007_000013.html" target="_top" xlink:title="2">
<text text-anchor="middle" x="186.68" y="-190.02" font-family="Helvetica,sans-Serif" font-size="10.00">2</text>
</a>
</g>
</g>
<!-- dir_609de7553fb39aeeac8189e5a49e0918 -->
<g id="node9" class="node">
<title>dir_609de7553fb39aeeac8189e5a49e0918</title>
<g id="a_node9"><a xlink:href="dir_609de7553fb39aeeac8189e5a49e0918.html" target="_top" xlink:title="Random">
<polygon fill="#4ea9ff" stroke="#404040" points="246.5,-196 189.5,-196 189.5,-160 246.5,-160 246.5,-196"/>
<text text-anchor="middle" x="218" y="-175.5" font-family="Helvetica,sans-Serif" font-size="10.00">Random</text>
</a>
</g>
</g>
<!-- dir_856524284ebe840938865dc061f982fb&#45;&gt;dir_609de7553fb39aeeac8189e5a49e0918 -->
<g id="edge4" class="edge">
<title>dir_856524284ebe840938865dc061f982fb&#45;&gt;dir_609de7553fb39aeeac8189e5a49e0918</title>
<path fill="none" stroke="black" d="M273.71,-231.7C264.57,-223.05 253.36,-212.45 243.4,-203.03"/>
<polygon fill="black" stroke="black" points="245.75,-200.43 236.08,-196.1 240.94,-205.52 245.75,-200.43"/>
<g id="a_edge4&#45;headlabel"><a xlink:href="dir_000007_000017.html" target="_top" xlink:title="1">
<text text-anchor="middle" x="250.31" y="-198.34" font-family="Helvetica,sans-Serif" font-size="10.00">1</text>
</a>
</g>
</g>
<!-- dir_77f36d1a0ec36352a6c0a8f5f4e833a3 -->
<g id="node11" class="node">
<title>dir_77f36d1a0ec36352a6c0a8f5f4e833a3</title>
<g id="a_node11"><a xlink:href="dir_77f36d1a0ec36352a6c0a8f5f4e833a3.html" target="_top" xlink:title="Update">
<polygon fill="#4ea9ff" stroke="#404040" points="319,-196 265,-196 265,-160 319,-160 319,-196"/>
<text text-anchor="middle" x="292" y="-175.5" font-family="Helvetica,sans-Serif" font-size="10.00">Update</text>
</a>
</g>
</g>
<!-- dir_856524284ebe840938865dc061f982fb&#45;&gt;dir_77f36d1a0ec36352a6c0a8f5f4e833a3 -->
<g id="edge6" class="edge">
<title>dir_856524284ebe840938865dc061f982fb&#45;&gt;dir_77f36d1a0ec36352a6c0a8f5f4e833a3</title>
<path fill="none" stroke="black" d="M292,-231.7C292,-223.98 292,-214.71 292,-206.11"/>
<polygon fill="black" stroke="black" points="295.5,-206.1 292,-196.1 288.5,-206.1 295.5,-206.1"/>
<g id="a_edge6&#45;headlabel"><a xlink:href="dir_000007_000022.html" target="_top" xlink:title="2">
<text text-anchor="middle" x="298.34" y="-207.2" font-family="Helvetica,sans-Serif" font-size="10.00">2</text>
</a>
</g>
</g>
<!-- dir_91ce8992212d64b1bc85f2ed078c9c66 -->
<g id="node12" class="node">
<title>dir_91ce8992212d64b1bc85f2ed078c9c66</title>
<g id="a_node12"><a xlink:href="dir_91ce8992212d64b1bc85f2ed078c9c66.html" target="_top" xlink:title="Utils">
<polygon fill="#4ea9ff" stroke="#404040" points="555,-196 501,-196 501,-160 555,-160 555,-196"/>
<text text-anchor="middle" x="528" y="-175.5" font-family="Helvetica,sans-Serif" font-size="10.00">Utils</text>
</a>
</g>
</g>
<!-- dir_856524284ebe840938865dc061f982fb&#45;&gt;dir_91ce8992212d64b1bc85f2ed078c9c66 -->
<g id="edge7" class="edge">
<title>dir_856524284ebe840938865dc061f982fb&#45;&gt;dir_91ce8992212d64b1bc85f2ed078c9c66</title>
<path fill="none" stroke="black" d="M319,-243.49C356.06,-235.57 424.77,-219.64 490.96,-196.06"/>
<polygon fill="black" stroke="black" points="492.5,-199.22 500.7,-192.52 490.11,-192.64 492.5,-199.22"/>
<g id="a_edge7&#45;headlabel"><a xlink:href="dir_000007_000025.html" target="_top" xlink:title="1">
<text text-anchor="middle" x="490.08" y="-200.62" font-family="Helvetica,sans-Serif" font-size="10.00">1</text>
</a>
</g>
</g>
<!-- dir_0599d141b1a2e9e9007ecef8e4a97773&#45;&gt;dir_6e870ef65178f351a0558df8a56907f0 -->
<g id="edge10" class="edge">
<title>dir_0599d141b1a2e9e9007ecef8e4a97773&#45;&gt;dir_6e870ef65178f351a0558df8a56907f0</title>
<path fill="none" stroke="black" d="M332.08,-87.7C331.29,-79.98 331.06,-70.71 331.4,-62.11"/>
<polygon fill="black" stroke="black" points="334.9,-62.32 332.1,-52.1 327.92,-61.84 334.9,-62.32"/>
<g id="a_edge10&#45;headlabel"><a xlink:href="dir_000000_000005.html" target="_top" xlink:title="1">
<text text-anchor="middle" x="337.48" y="-63.61" font-family="Helvetica,sans-Serif" font-size="10.00">1</text>
</a>
</g>
</g>
<!-- dir_e3c4ca29053b6f585d0dd3b57d70ab70&#45;&gt;dir_0599d141b1a2e9e9007ecef8e4a97773 -->
<g id="edge11" class="edge">
<title>dir_e3c4ca29053b6f585d0dd3b57d70ab70&#45;&gt;dir_0599d141b1a2e9e9007ecef8e4a97773</title>
<path fill="none" stroke="black" d="M372.63,-159.7C367.28,-151.56 360.8,-141.69 354.89,-132.7"/>
<polygon fill="black" stroke="black" points="357.66,-130.54 349.24,-124.1 351.81,-134.38 357.66,-130.54"/>
<g id="a_edge11&#45;headlabel"><a xlink:href="dir_000003_000000.html" target="_top" xlink:title="1">
<text text-anchor="middle" x="362" y="-129.48" font-family="Helvetica,sans-Serif" font-size="10.00">1</text>
</a>
</g>
</g>
<!-- dir_6e870ef65178f351a0558df8a56907f0&#45;&gt;dir_0599d141b1a2e9e9007ecef8e4a97773 -->
<g id="edge12" class="edge">
<title>dir_6e870ef65178f351a0558df8a56907f0&#45;&gt;dir_0599d141b1a2e9e9007ecef8e4a97773</title>
<path fill="none" stroke="black" d="M343.9,-52.1C344.7,-59.79 344.94,-69.05 344.6,-77.67"/>
<polygon fill="black" stroke="black" points="341.11,-77.48 343.92,-87.7 348.09,-77.96 341.11,-77.48"/>
<g id="a_edge12&#45;headlabel"><a xlink:href="dir_000005_000000.html" target="_top" xlink:title="5">
<text text-anchor="middle" x="338.52" y="-71.2" font-family="Helvetica,sans-Serif" font-size="10.00">5</text>
</a>
</g>
</g>
<!-- dir_4dbfcc87b9e83ca48e7e48cfedba2860&#45;&gt;dir_0599d141b1a2e9e9007ecef8e4a97773 -->
<g id="edge13" class="edge">
<title>dir_4dbfcc87b9e83ca48e7e48cfedba2860&#45;&gt;dir_0599d141b1a2e9e9007ecef8e4a97773</title>
<path fill="none" stroke="black" d="M96.02,-163.25C99.02,-162.08 102.05,-160.97 105,-160 172.6,-137.79 254.22,-121.55 300.72,-113.25"/>
<polygon fill="black" stroke="black" points="301.4,-116.68 310.64,-111.5 300.19,-109.79 301.4,-116.68"/>
<g id="a_edge13&#45;headlabel"><a xlink:href="dir_000008_000000.html" target="_top" xlink:title="7">
<text text-anchor="middle" x="298.35" y="-117.6" font-family="Helvetica,sans-Serif" font-size="10.00">7</text>
</a>
</g>
</g>
<!-- dir_042917ff93cbe8fd08a35dc3a365551a&#45;&gt;dir_0599d141b1a2e9e9007ecef8e4a97773 -->
<g id="edge14" class="edge">
<title>dir_042917ff93cbe8fd08a35dc3a365551a&#45;&gt;dir_0599d141b1a2e9e9007ecef8e4a97773</title>
<path fill="none" stroke="black" d="M428.93,-160.94C412.7,-151.32 391.87,-138.96 374.24,-128.5"/>
<polygon fill="black" stroke="black" points="375.74,-125.32 365.35,-123.23 372.17,-131.34 375.74,-125.32"/>
<g id="a_edge14&#45;headlabel"><a xlink:href="dir_000010_000000.html" target="_top" xlink:title="3">
<text text-anchor="middle" x="380.28" y="-122.21" font-family="Helvetica,sans-Serif" font-size="10.00">3</text>
</a>
</g>
</g>
<!-- dir_c23e7cffbde126859bfb13ca741093c1&#45;&gt;dir_0599d141b1a2e9e9007ecef8e4a97773 -->
<g id="edge15" class="edge">
<title>dir_c23e7cffbde126859bfb13ca741093c1&#45;&gt;dir_0599d141b1a2e9e9007ecef8e4a97773</title>
<path fill="none" stroke="black" d="M171.55,-163.51C174.39,-162.29 177.24,-161.09 180,-160 220.78,-143.85 268.66,-128.24 300.94,-118.2"/>
<polygon fill="black" stroke="black" points="302.32,-121.43 310.85,-115.14 300.26,-114.74 302.32,-121.43"/>
<g id="a_edge15&#45;headlabel"><a xlink:href="dir_000013_000000.html" target="_top" xlink:title="1">
<text text-anchor="middle" x="299.73" y="-122.71" font-family="Helvetica,sans-Serif" font-size="10.00">1</text>
</a>
</g>
</g>
<!-- dir_6702df6110c674c7c8f842d9a55de16e -->
<g id="node8" class="node">
<title>dir_6702df6110c674c7c8f842d9a55de16e</title>
<g id="a_node8"><a xlink:href="dir_6702df6110c674c7c8f842d9a55de16e.html" target="_top" xlink:title="Observables">
<polygon fill="#4ea9ff" stroke="#404040" points="534.5,-268 457.5,-268 457.5,-232 534.5,-232 534.5,-268"/>
<text text-anchor="middle" x="496" y="-247.5" font-family="Helvetica,sans-Serif" font-size="10.00">Observables</text>
</a>
</g>
</g>
<!-- dir_6702df6110c674c7c8f842d9a55de16e&#45;&gt;dir_0599d141b1a2e9e9007ecef8e4a97773 -->
<g id="edge17" class="edge">
<title>dir_6702df6110c674c7c8f842d9a55de16e&#45;&gt;dir_0599d141b1a2e9e9007ecef8e4a97773</title>
<path fill="none" stroke="black" d="M529.36,-231.86C542.71,-223.09 556.64,-211.06 564,-196 571.02,-181.62 573.94,-172.54 564,-160 540.9,-130.86 433.69,-116.19 375.62,-110.27"/>
<polygon fill="black" stroke="black" points="375.68,-106.76 365.38,-109.27 374.99,-113.73 375.68,-106.76"/>
<g id="a_edge17&#45;headlabel"><a xlink:href="dir_000015_000000.html" target="_top" xlink:title="16">
<text text-anchor="middle" x="379.53" y="-101.79" font-family="Helvetica,sans-Serif" font-size="10.00">16</text>
</a>
</g>
</g>
<!-- dir_6702df6110c674c7c8f842d9a55de16e&#45;&gt;dir_042917ff93cbe8fd08a35dc3a365551a -->
<g id="edge16" class="edge">
<title>dir_6702df6110c674c7c8f842d9a55de16e&#45;&gt;dir_042917ff93cbe8fd08a35dc3a365551a</title>
<path fill="none" stroke="black" d="M486.11,-231.7C481.51,-223.64 475.94,-213.89 470.85,-204.98"/>
<polygon fill="black" stroke="black" points="473.77,-203.05 465.77,-196.1 467.7,-206.52 473.77,-203.05"/>
<g id="a_edge16&#45;headlabel"><a xlink:href="dir_000015_000010.html" target="_top" xlink:title="1">
<text text-anchor="middle" x="478.02" y="-202.26" font-family="Helvetica,sans-Serif" font-size="10.00">1</text>
</a>
</g>
</g>
<!-- dir_609de7553fb39aeeac8189e5a49e0918&#45;&gt;dir_0599d141b1a2e9e9007ecef8e4a97773 -->
<g id="edge18" class="edge">
<title>dir_609de7553fb39aeeac8189e5a49e0918&#45;&gt;dir_0599d141b1a2e9e9007ecef8e4a97773</title>
<path fill="none" stroke="black" d="M246.74,-160.23C263.28,-150.59 284.2,-138.38 301.84,-128.09"/>
<polygon fill="black" stroke="black" points="303.85,-130.97 310.73,-122.91 300.33,-124.92 303.85,-130.97"/>
<g id="a_edge18&#45;headlabel"><a xlink:href="dir_000017_000000.html" target="_top" xlink:title="1">
<text text-anchor="middle" x="302.18" y="-132.73" font-family="Helvetica,sans-Serif" font-size="10.00">1</text>
</a>
</g>
</g>
<!-- dir_b18e5ce22cacb1d7c6a32e9c42171a59 -->
<g id="node10" class="node">
<title>dir_b18e5ce22cacb1d7c6a32e9c42171a59</title>
<g id="a_node10"><a xlink:href="dir_b18e5ce22cacb1d7c6a32e9c42171a59.html" target="_top" xlink:title="Statistics">
<polygon fill="#4ea9ff" stroke="#404040" points="163,-268 101,-268 101,-232 163,-232 163,-268"/>
<text text-anchor="middle" x="132" y="-247.5" font-family="Helvetica,sans-Serif" font-size="10.00">Statistics</text>
</a>
</g>
</g>
<!-- dir_77f36d1a0ec36352a6c0a8f5f4e833a3&#45;&gt;dir_0599d141b1a2e9e9007ecef8e4a97773 -->
<g id="edge19" class="edge">
<title>dir_77f36d1a0ec36352a6c0a8f5f4e833a3&#45;&gt;dir_0599d141b1a2e9e9007ecef8e4a97773</title>
<path fill="none" stroke="black" d="M303.37,-159.7C308.72,-151.56 315.2,-141.69 321.11,-132.7"/>
<polygon fill="black" stroke="black" points="324.19,-134.38 326.76,-124.1 318.34,-130.54 324.19,-134.38"/>
<g id="a_edge19&#45;headlabel"><a xlink:href="dir_000022_000000.html" target="_top" xlink:title="10">
<text text-anchor="middle" x="324.59" y="-136.45" font-family="Helvetica,sans-Serif" font-size="10.00">10</text>
</a>
</g>
</g>
<!-- dir_91ce8992212d64b1bc85f2ed078c9c66&#45;&gt;dir_0599d141b1a2e9e9007ecef8e4a97773 -->
<g id="edge20" class="edge">
<title>dir_91ce8992212d64b1bc85f2ed078c9c66&#45;&gt;dir_0599d141b1a2e9e9007ecef8e4a97773</title>
<path fill="none" stroke="black" d="M500.62,-163.69C497.73,-162.4 494.82,-161.15 492,-160 452.53,-143.95 406.17,-128.43 374.7,-118.38"/>
<polygon fill="black" stroke="black" points="375.63,-115 365.04,-115.31 373.51,-121.67 375.63,-115"/>
<g id="a_edge20&#45;headlabel"><a xlink:href="dir_000025_000000.html" target="_top" xlink:title="10">
<text text-anchor="middle" x="379.91" y="-110.88" font-family="Helvetica,sans-Serif" font-size="10.00">10</text>
</a>
</g>
</g>
<!-- dir_91ce8992212d64b1bc85f2ed078c9c66&#45;&gt;dir_6e870ef65178f351a0558df8a56907f0 -->
<g id="edge21" class="edge">
<title>dir_91ce8992212d64b1bc85f2ed078c9c66&#45;&gt;dir_6e870ef65178f351a0558df8a56907f0</title>
<path fill="none" stroke="black" d="M505.08,-159.87C471.13,-134.5 407.38,-86.85 369.2,-58.32"/>
<polygon fill="black" stroke="black" points="371.11,-55.37 361,-52.19 366.91,-60.98 371.11,-55.37"/>
<g id="a_edge21&#45;headlabel"><a xlink:href="dir_000025_000005.html" target="_top" xlink:title="2">
<text text-anchor="middle" x="375.68" y="-52.75" font-family="Helvetica,sans-Serif" font-size="10.00">2</text>
</a>
</g>
</g>
</g>
</svg>
