<?xml version="1.0" encoding="UTF-8" standalone="no"?>
<!DOCTYPE svg PUBLIC "-//W3C//DTD SVG 1.1//EN"
 "http://www.w3.org/Graphics/SVG/1.1/DTD/svg11.dtd">
<!-- Generated by graphviz version 2.43.0 (0)
 -->
<!-- Title: LibHR Pages: 1 -->
<svg width="864pt" height="99pt"
 viewBox="0.00 0.00 864.00 98.83" xmlns="http://www.w3.org/2000/svg" xmlns:xlink="http://www.w3.org/1999/xlink">
<g id="graph0" class="graph" transform="scale(1 1) rotate(0) translate(4 94.83)">
<title>LibHR</title>
<g id="clust1" class="cluster">
<title>clusterdir_8d9c9bab54275f7223e972448cc224a9</title>
<g id="a_clust1"><a xlink:href="dir_8d9c9bab54275f7223e972448cc224a9.html" target="_top">
<polygon fill="#daedff" stroke="#404040" stroke-width="2" points="8,-47.83 8,-82.83 848,-82.83 848,-47.83 8,-47.83"/>
</a>
</g>
</g>
<!-- dir_8d9c9bab54275f7223e972448cc224a9 -->
<g id="node1" class="node">
<title>dir_8d9c9bab54275f7223e972448cc224a9</title>
<text text-anchor="middle" x="817" y="-62.83" font-family="Helvetica,sans-Serif" font-size="10.00">LibHR</text>
</g>
<!-- dir_3214dc2b11a4e2d09a77d2cb08a0ad09 -->
<g id="node2" class="node">
<title>dir_3214dc2b11a4e2d09a77d2cb08a0ad09</title>
<g id="a_node2"><a xlink:href="dir_3214dc2b11a4e2d09a77d2cb08a0ad09.html" target="_top" xlink:title="Core">
<polygon fill="#4ea9ff" stroke="#404040" points="776.5,-74.83 737.5,-74.83 737.5,-55.83 776.5,-55.83 776.5,-74.83"/>
<text text-anchor="middle" x="757" y="-62.83" font-family="Helvetica,sans-Serif" font-size="10.00">Core</text>
</a>
</g>
</g>
<!-- dir_856524284ebe840938865dc061f982fb -->
<g id="node13" class="node">
<title>dir_856524284ebe840938865dc061f982fb</title>
<g id="a_node13"><a xlink:href="dir_856524284ebe840938865dc061f982fb.html" target="_top" xlink:title="Include">
<polygon fill="#daedff" stroke="red" points="479,-19.83 427,-19.83 427,-0.83 479,-0.83 479,-19.83"/>
<text text-anchor="middle" x="453" y="-7.83" font-family="Helvetica,sans-Serif" font-size="10.00">Include</text>
</a>
</g>
</g>
<!-- dir_3214dc2b11a4e2d09a77d2cb08a0ad09&#45;&gt;dir_856524284ebe840938865dc061f982fb -->
<g id="edge1" class="edge">
<title>dir_3214dc2b11a4e2d09a77d2cb08a0ad09&#45;&gt;dir_856524284ebe840938865dc061f982fb</title>
<g id="a_edge1"><a xlink:href="dir_000001_000007.html" target="_top">
<path fill="none" stroke="#63b8ff" d="M744.51,-55.82C739.57,-52.84 733.71,-49.75 728,-47.83 645.62,-20.11 542.73,-13.33 489.18,-11.75"/>
<polygon fill="#63b8ff" stroke="#63b8ff" points="489.23,-8.25 479.15,-11.5 489.06,-15.25 489.23,-8.25"/>
</a>
</g>
<g id="a_edge1&#45;headlabel"><a xlink:href="dir_000001_000007.html" target="_top" xlink:title="2">
<text text-anchor="middle" x="492.9" y="-3" font-family="Helvetica,sans-Serif" font-size="10.00" fill="#63b8ff">2</text>
</a>
</g>
</g>
<!-- dir_86eb9c97d9edd5f38c329af111456f9c -->
<g id="node3" class="node">
<title>dir_86eb9c97d9edd5f38c329af111456f9c</title>
<g id="a_node3"><a xlink:href="dir_86eb9c97d9edd5f38c329af111456f9c.html" target="_top" xlink:title="Error">
<polygon fill="#4ea9ff" stroke="#404040" points="719,-74.83 679,-74.83 679,-55.83 719,-55.83 719,-74.83"/>
<text text-anchor="middle" x="699" y="-62.83" font-family="Helvetica,sans-Serif" font-size="10.00">Error</text>
</a>
</g>
</g>
<!-- dir_86eb9c97d9edd5f38c329af111456f9c&#45;&gt;dir_856524284ebe840938865dc061f982fb -->
<g id="edge2" class="edge">
<title>dir_86eb9c97d9edd5f38c329af111456f9c&#45;&gt;dir_856524284ebe840938865dc061f982fb</title>
<g id="a_edge2"><a xlink:href="dir_000004_000007.html" target="_top">
<path fill="none" stroke="#63b8ff" d="M686.19,-55.75C681.3,-52.83 675.57,-49.81 670,-47.83 608.82,-26.05 533.21,-17.1 489.31,-13.55"/>
<polygon fill="#63b8ff" stroke="#63b8ff" points="489.36,-10.04 479.12,-12.77 488.83,-17.02 489.36,-10.04"/>
</a>
</g>
<g id="a_edge2&#45;headlabel"><a xlink:href="dir_000004_000007.html" target="_top" xlink:title="3">
<text text-anchor="middle" x="493.16" y="-4.98" font-family="Helvetica,sans-Serif" font-size="10.00" fill="#63b8ff">3</text>
</a>
</g>
</g>
<!-- dir_59539e0497069495010ff976c201df9d -->
<g id="node4" class="node">
<title>dir_59539e0497069495010ff976c201df9d</title>
<g id="a_node4"><a xlink:href="dir_59539e0497069495010ff976c201df9d.html" target="_top" xlink:title="Geometry">
<polygon fill="#4ea9ff" stroke="#404040" points="660.5,-74.83 595.5,-74.83 595.5,-55.83 660.5,-55.83 660.5,-74.83"/>
<text text-anchor="middle" x="628" y="-62.83" font-family="Helvetica,sans-Serif" font-size="10.00">Geometry</text>
</a>
</g>
</g>
<!-- dir_59539e0497069495010ff976c201df9d&#45;&gt;dir_856524284ebe840938865dc061f982fb -->
<g id="edge3" class="edge">
<title>dir_59539e0497069495010ff976c201df9d&#45;&gt;dir_856524284ebe840938865dc061f982fb</title>
<g id="a_edge3"><a xlink:href="dir_000006_000007.html" target="_top">
<path fill="none" stroke="#63b8ff" d="M607.22,-55.66C600.51,-53 592.99,-50.15 586,-47.83 553.56,-37.04 515.94,-26.94 489.01,-20.1"/>
<polygon fill="#63b8ff" stroke="#63b8ff" points="489.79,-16.69 479.24,-17.65 488.09,-23.48 489.79,-16.69"/>
</a>
</g>
<g id="a_edge3&#45;headlabel"><a xlink:href="dir_000006_000007.html" target="_top" xlink:title="18">
<text text-anchor="middle" x="493.97" y="-12.31" font-family="Helvetica,sans-Serif" font-size="10.00" fill="#63b8ff">18</text>
</a>
</g>
</g>
<!-- dir_415a916a1fbcf6d03bef6bcc2348d6df -->
<g id="node5" class="node">
<title>dir_415a916a1fbcf6d03bef6bcc2348d6df</title>
<g id="a_node5"><a xlink:href="dir_415a916a1fbcf6d03bef6bcc2348d6df.html" target="_top" xlink:title="Inverters">
<polygon fill="#4ea9ff" stroke="#404040" points="577,-74.83 517,-74.83 517,-55.83 577,-55.83 577,-74.83"/>
<text text-anchor="middle" x="547" y="-62.83" font-family="Helvetica,sans-Serif" font-size="10.00">Inverters</text>
</a>
</g>
</g>
<!-- dir_415a916a1fbcf6d03bef6bcc2348d6df&#45;&gt;dir_856524284ebe840938865dc061f982fb -->
<g id="edge4" class="edge">
<title>dir_415a916a1fbcf6d03bef6bcc2348d6df&#45;&gt;dir_856524284ebe840938865dc061f982fb</title>
<g id="a_edge4"><a xlink:href="dir_000009_000007.html" target="_top">
<path fill="none" stroke="#63b8ff" d="M531.9,-55.81C517.18,-47.52 494.58,-34.77 477.33,-25.05"/>
<polygon fill="#63b8ff" stroke="#63b8ff" points="478.81,-21.86 468.38,-20 475.37,-27.96 478.81,-21.86"/>
</a>
</g>
<g id="a_edge4&#45;headlabel"><a xlink:href="dir_000009_000007.html" target="_top" xlink:title="5">
<text text-anchor="middle" x="483.33" y="-18.66" font-family="Helvetica,sans-Serif" font-size="10.00" fill="#63b8ff">5</text>
</a>
</g>
</g>
<!-- dir_e2652a780683b9c1a9181fd071c0a056 -->
<g id="node6" class="node">
<title>dir_e2652a780683b9c1a9181fd071c0a056</title>
<g id="a_node6"><a xlink:href="dir_e2652a780683b9c1a9181fd071c0a056.html" target="_top" xlink:title="IO">
<polygon fill="#4ea9ff" stroke="#404040" points="498.5,-74.83 469.5,-74.83 469.5,-55.83 498.5,-55.83 498.5,-74.83"/>
<text text-anchor="middle" x="484" y="-62.83" font-family="Helvetica,sans-Serif" font-size="10.00">IO</text>
</a>
</g>
</g>
<!-- dir_e2652a780683b9c1a9181fd071c0a056&#45;&gt;dir_856524284ebe840938865dc061f982fb -->
<g id="edge5" class="edge">
<title>dir_e2652a780683b9c1a9181fd071c0a056&#45;&gt;dir_856524284ebe840938865dc061f982fb</title>
<g id="a_edge5"><a xlink:href="dir_000011_000007.html" target="_top">
<path fill="none" stroke="#63b8ff" d="M478.88,-55.58C474.64,-48.32 468.47,-37.78 463.22,-28.81"/>
<polygon fill="#63b8ff" stroke="#63b8ff" points="466.09,-26.78 458.02,-19.92 460.05,-30.32 466.09,-26.78"/>
</a>
</g>
<g id="a_edge5&#45;headlabel"><a xlink:href="dir_000011_000007.html" target="_top" xlink:title="3">
<text text-anchor="middle" x="470.36" y="-25.95" font-family="Helvetica,sans-Serif" font-size="10.00" fill="#63b8ff">3</text>
</a>
</g>
</g>
<!-- dir_b79351b7507fa81f847f20f5273ecc03 -->
<g id="node7" class="node">
<title>dir_b79351b7507fa81f847f20f5273ecc03</title>
<g id="a_node7"><a xlink:href="dir_b79351b7507fa81f847f20f5273ecc03.html" target="_top" xlink:title="Memory">
<polygon fill="#4ea9ff" stroke="#404040" points="451.5,-74.83 394.5,-74.83 394.5,-55.83 451.5,-55.83 451.5,-74.83"/>
<text text-anchor="middle" x="423" y="-62.83" font-family="Helvetica,sans-Serif" font-size="10.00">Memory</text>
</a>
</g>
</g>
<!-- dir_b79351b7507fa81f847f20f5273ecc03&#45;&gt;dir_856524284ebe840938865dc061f982fb -->
<g id="edge6" class="edge">
<title>dir_b79351b7507fa81f847f20f5273ecc03&#45;&gt;dir_856524284ebe840938865dc061f982fb</title>
<g id="a_edge6"><a xlink:href="dir_000014_000007.html" target="_top">
<path fill="none" stroke="#63b8ff" d="M427.95,-55.58C432.06,-48.32 438.03,-37.78 443.1,-28.81"/>
<polygon fill="#63b8ff" stroke="#63b8ff" points="446.26,-30.35 448.14,-19.92 440.17,-26.9 446.26,-30.35"/>
</a>
</g>
<g id="a_edge6&#45;headlabel"><a xlink:href="dir_000014_000007.html" target="_top" xlink:title="3">
<text text-anchor="middle" x="446.96" y="-32.37" font-family="Helvetica,sans-Serif" font-size="10.00" fill="#63b8ff">3</text>
</a>
</g>
</g>
<!-- dir_5f0c683742883e8f105d7ebe24465985 -->
<g id="node8" class="node">
<title>dir_5f0c683742883e8f105d7ebe24465985</title>
<g id="a_node8"><a xlink:href="dir_5f0c683742883e8f105d7ebe24465985.html" target="_top" xlink:title="Observables">
<polygon fill="#4ea9ff" stroke="#404040" points="376.5,-74.83 299.5,-74.83 299.5,-55.83 376.5,-55.83 376.5,-74.83"/>
<text text-anchor="middle" x="338" y="-62.83" font-family="Helvetica,sans-Serif" font-size="10.00">Observables</text>
</a>
</g>
</g>
<!-- dir_5f0c683742883e8f105d7ebe24465985&#45;&gt;dir_856524284ebe840938865dc061f982fb -->
<g id="edge7" class="edge">
<title>dir_5f0c683742883e8f105d7ebe24465985&#45;&gt;dir_856524284ebe840938865dc061f982fb</title>
<g id="a_edge7"><a xlink:href="dir_000016_000007.html" target="_top">
<path fill="none" stroke="#63b8ff" d="M356.48,-55.81C374.98,-47.29 403.68,-34.06 424.98,-24.24"/>
<polygon fill="#63b8ff" stroke="#63b8ff" points="426.57,-27.36 434.19,-20 423.64,-21.01 426.57,-27.36"/>
</a>
</g>
<g id="a_edge7&#45;headlabel"><a xlink:href="dir_000016_000007.html" target="_top" xlink:title="9">
<text text-anchor="middle" x="424.49" y="-28.95" font-family="Helvetica,sans-Serif" font-size="10.00" fill="#63b8ff">9</text>
</a>
</g>
</g>
<!-- dir_2862191ed9fbe4f62eda5b6eb4f9feb6 -->
<g id="node9" class="node">
<title>dir_2862191ed9fbe4f62eda5b6eb4f9feb6</title>
<g id="a_node9"><a xlink:href="dir_2862191ed9fbe4f62eda5b6eb4f9feb6.html" target="_top" xlink:title="Random">
<polygon fill="#4ea9ff" stroke="#404040" points="281.5,-74.83 224.5,-74.83 224.5,-55.83 281.5,-55.83 281.5,-74.83"/>
<text text-anchor="middle" x="253" y="-62.83" font-family="Helvetica,sans-Serif" font-size="10.00">Random</text>
</a>
</g>
</g>
<!-- dir_2862191ed9fbe4f62eda5b6eb4f9feb6&#45;&gt;dir_856524284ebe840938865dc061f982fb -->
<g id="edge8" class="edge">
<title>dir_2862191ed9fbe4f62eda5b6eb4f9feb6&#45;&gt;dir_856524284ebe840938865dc061f982fb</title>
<g id="a_edge8"><a xlink:href="dir_000018_000007.html" target="_top">
<path fill="none" stroke="#63b8ff" d="M270.9,-55.73C277.16,-52.95 284.3,-50.02 291,-47.83 333.29,-34.02 383.45,-23.6 416.63,-17.5"/>
<polygon fill="#63b8ff" stroke="#63b8ff" points="417.56,-20.89 426.78,-15.67 416.32,-14 417.56,-20.89"/>
</a>
</g>
<g id="a_edge8&#45;headlabel"><a xlink:href="dir_000018_000007.html" target="_top" xlink:title="3">
<text text-anchor="middle" x="414.53" y="-21.82" font-family="Helvetica,sans-Serif" font-size="10.00" fill="#63b8ff">3</text>
</a>
</g>
</g>
<!-- dir_0e75fa9af7fad45578a40c0e11432a1b -->
<g id="node10" class="node">
<title>dir_0e75fa9af7fad45578a40c0e11432a1b</title>
<g id="a_node10"><a xlink:href="dir_0e75fa9af7fad45578a40c0e11432a1b.html" target="_top" xlink:title="Statistics">
<polygon fill="#4ea9ff" stroke="#404040" points="206,-74.83 144,-74.83 144,-55.83 206,-55.83 206,-74.83"/>
<text text-anchor="middle" x="175" y="-62.83" font-family="Helvetica,sans-Serif" font-size="10.00">Statistics</text>
</a>
</g>
</g>
<!-- dir_96cea3264d8327c0d8fc46bc059f8987 -->
<g id="node11" class="node">
<title>dir_96cea3264d8327c0d8fc46bc059f8987</title>
<g id="a_node11"><a xlink:href="dir_96cea3264d8327c0d8fc46bc059f8987.html" target="_top" xlink:title="Update">
<polygon fill="#4ea9ff" stroke="#404040" points="126,-74.83 74,-74.83 74,-55.83 126,-55.83 126,-74.83"/>
<text text-anchor="middle" x="100" y="-62.83" font-family="Helvetica,sans-Serif" font-size="10.00">Update</text>
</a>
</g>
</g>
<!-- dir_96cea3264d8327c0d8fc46bc059f8987&#45;&gt;dir_856524284ebe840938865dc061f982fb -->
<g id="edge9" class="edge">
<title>dir_96cea3264d8327c0d8fc46bc059f8987&#45;&gt;dir_856524284ebe840938865dc061f982fb</title>
<g id="a_edge9"><a xlink:href="dir_000023_000007.html" target="_top">
<path fill="none" stroke="#63b8ff" d="M115.26,-55.81C121.24,-52.83 128.28,-49.74 135,-47.83 234.33,-19.55 357.03,-13.09 416.82,-11.68"/>
<polygon fill="#63b8ff" stroke="#63b8ff" points="416.96,-15.18 426.89,-11.48 416.82,-8.18 416.96,-15.18"/>
</a>
</g>
<g id="a_edge9&#45;headlabel"><a xlink:href="dir_000023_000007.html" target="_top" xlink:title="31">
<text text-anchor="middle" x="413.43" y="-15.59" font-family="Helvetica,sans-Serif" font-size="10.00" fill="#63b8ff">31</text>
</a>
</g>
</g>
<!-- dir_8a23b96c21da8880285d5fe8247fa8fe -->
<g id="node12" class="node">
<title>dir_8a23b96c21da8880285d5fe8247fa8fe</title>
<g id="a_node12"><a xlink:href="dir_8a23b96c21da8880285d5fe8247fa8fe.html" target="_top" xlink:title="Utils">
<polygon fill="#4ea9ff" stroke="#404040" points="55.5,-74.83 16.5,-74.83 16.5,-55.83 55.5,-55.83 55.5,-74.83"/>
<text text-anchor="middle" x="36" y="-62.83" font-family="Helvetica,sans-Serif" font-size="10.00">Utils</text>
</a>
</g>
</g>
<!-- dir_8a23b96c21da8880285d5fe8247fa8fe&#45;&gt;dir_856524284ebe840938865dc061f982fb -->
<g id="edge10" class="edge">
<title>dir_8a23b96c21da8880285d5fe8247fa8fe&#45;&gt;dir_856524284ebe840938865dc061f982fb</title>
<g id="a_edge10"><a xlink:href="dir_000026_000007.html" target="_top">
<path fill="none" stroke="#63b8ff" d="M48.45,-55.7C53.39,-52.71 59.25,-49.64 65,-47.83 130.05,-27.31 333.32,-16.47 416.73,-12.79"/>
<polygon fill="#63b8ff" stroke="#63b8ff" points="416.91,-16.29 426.75,-12.36 416.61,-9.3 416.91,-16.29"/>
</a>
</g>
<g id="a_edge10&#45;headlabel"><a xlink:href="dir_000026_000007.html" target="_top" xlink:title="4">
<text text-anchor="middle" x="413.44" y="-16.78" font-family="Helvetica,sans-Serif" font-size="10.00" fill="#63b8ff">4</text>
</a>
</g>
</g>
</g>
</svg>
