<?xml version="1.0" encoding="UTF-8" standalone="no"?>
<!DOCTYPE svg PUBLIC "-//W3C//DTD SVG 1.1//EN"
 "http://www.w3.org/Graphics/SVG/1.1/DTD/svg11.dtd">
<!-- Generated by graphviz version 2.43.0 (0)
 -->
<!-- Title: mon_rhmc_par Pages: 1 -->
<svg width="201pt" height="162pt"
 viewBox="0.00 0.00 201.00 162.00" xmlns="http://www.w3.org/2000/svg" xmlns:xlink="http://www.w3.org/1999/xlink">
<g id="graph0" class="graph" transform="scale(1 1) rotate(0) translate(4 158)">
<title>mon_rhmc_par</title>
<!-- Node1 -->
<g id="node1" class="node">
<title>Node1</title>
<g id="a_node1"><a xlink:title=" ">
<polygon fill="#bfbfbf" stroke="black" points="56,-0.5 56,-19.5 145,-19.5 145,-0.5 56,-0.5"/>
<text text-anchor="middle" x="100.5" y="-7.5" font-family="Helvetica,sans-Serif" font-size="10.00">mon_rhmc_par</text>
</a>
</g>
</g>
<!-- Node2 -->
<g id="node2" class="node">
<title>Node2</title>
<g id="a_node2"><a xlink:href="../../d3/d47/structrational__app.html" target="_top" xlink:title=" ">
<polygon fill="none" stroke="#bfbfbf" points="0,-134.5 0,-153.5 77,-153.5 77,-134.5 0,-134.5"/>
<text text-anchor="middle" x="38.5" y="-141.5" font-family="Helvetica,sans-Serif" font-size="10.00">rational_app</text>
</a>
</g>
</g>
<!-- Node2&#45;&gt;Node1 -->
<g id="edge1" class="edge">
<title>Node2&#45;&gt;Node1</title>
<path fill="none" stroke="#9a32cd" stroke-dasharray="5,2" d="M27.23,-125.26C18.63,-109.29 9.77,-85.55 19.5,-67 31.65,-43.83 58.21,-28.36 77.61,-19.65"/>
<polygon fill="#9a32cd" stroke="#9a32cd" points="24.31,-127.22 32.38,-134.09 30.36,-123.69 24.31,-127.22"/>
<text text-anchor="middle" x="32.5" y="-74.5" font-family="Helvetica,sans-Serif" font-size="10.00"> ratio</text>
</g>
<!-- Node3 -->
<g id="node3" class="node">
<title>Node3</title>
<g id="a_node3"><a xlink:href="../../d1/d17/structforce__rhmc__par.html" target="_top" xlink:title=" ">
<polygon fill="none" stroke="orangered" points="54.5,-67.5 54.5,-86.5 146.5,-86.5 146.5,-67.5 54.5,-67.5"/>
<text text-anchor="middle" x="100.5" y="-74.5" font-family="Helvetica,sans-Serif" font-size="10.00">force_rhmc_par</text>
</a>
</g>
</g>
<!-- Node2&#45;&gt;Node3 -->
<g id="edge4" class="edge">
<title>Node2&#45;&gt;Node3</title>
<path fill="none" stroke="#9a32cd" stroke-dasharray="5,2" d="M53.76,-127C65.92,-114.25 82.48,-96.89 92.27,-86.63"/>
<polygon fill="#9a32cd" stroke="#9a32cd" points="51.23,-124.58 46.86,-134.23 56.3,-129.41 51.23,-124.58"/>
<text text-anchor="middle" x="86.5" y="-108" font-family="Helvetica,sans-Serif" font-size="10.00"> ratio</text>
</g>
<!-- Node3&#45;&gt;Node1 -->
<g id="edge2" class="edge">
<title>Node3&#45;&gt;Node1</title>
<path fill="none" stroke="#9a32cd" stroke-dasharray="5,2" d="M100.5,-57.04C100.5,-44.67 100.5,-29.12 100.5,-19.63"/>
<polygon fill="#9a32cd" stroke="#9a32cd" points="97,-57.23 100.5,-67.23 104,-57.23 97,-57.23"/>
<text text-anchor="middle" x="112" y="-41" font-family="Helvetica,sans-Serif" font-size="10.00"> fpar</text>
</g>
<!-- Node4 -->
<g id="node4" class="node">
<title>Node4</title>
<g id="a_node4"><a xlink:href="../../d0/da8/structspinor__field.html" target="_top" xlink:title="Spinor field array containing SU(N_f) spinors in chosen fermion representation.">
<polygon fill="none" stroke="red" points="120,-134.5 120,-153.5 193,-153.5 193,-134.5 120,-134.5"/>
<text text-anchor="middle" x="156.5" y="-141.5" font-family="Helvetica,sans-Serif" font-size="10.00">spinor_field</text>
</a>
</g>
</g>
<!-- Node4&#45;&gt;Node1 -->
<g id="edge5" class="edge">
<title>Node4&#45;&gt;Node1</title>
<path fill="none" stroke="#9a32cd" stroke-dasharray="5,2" d="M160.02,-124.01C162.09,-108.15 163.02,-85.26 155.5,-67 147.1,-46.59 127.3,-29.58 113.9,-19.85"/>
<polygon fill="#9a32cd" stroke="#9a32cd" points="156.52,-123.73 158.41,-134.15 163.43,-124.82 156.52,-123.73"/>
<text text-anchor="middle" x="167" y="-74.5" font-family="Helvetica,sans-Serif" font-size="10.00"> pf</text>
</g>
<!-- Node4&#45;&gt;Node3 -->
<g id="edge3" class="edge">
<title>Node4&#45;&gt;Node3</title>
<path fill="none" stroke="#9a32cd" stroke-dasharray="5,2" d="M142.4,-126.63C131.45,-113.92 116.7,-96.8 107.93,-86.63"/>
<polygon fill="#9a32cd" stroke="#9a32cd" points="139.77,-128.94 148.95,-134.23 145.07,-124.37 139.77,-128.94"/>
<text text-anchor="middle" x="138" y="-108" font-family="Helvetica,sans-Serif" font-size="10.00"> pf</text>
</g>
</g>
</svg>
