<?xml version="1.0" encoding="UTF-8" standalone="no"?>
<!DOCTYPE svg PUBLIC "-//W3C//DTD SVG 1.1//EN"
 "http://www.w3.org/Graphics/SVG/1.1/DTD/svg11.dtd">
<!-- Generated by graphviz version 2.43.0 (0)
 -->
<!-- Title: mon_scalar_par Pages: 1 -->
<svg width="216pt" height="95pt"
 viewBox="0.00 0.00 216.00 95.00" xmlns="http://www.w3.org/2000/svg" xmlns:xlink="http://www.w3.org/1999/xlink">
<g id="graph0" class="graph" transform="scale(1 1) rotate(0) translate(4 91)">
<title>mon_scalar_par</title>
<!-- Node1 -->
<g id="node1" class="node">
<title>Node1</title>
<g id="a_node1"><a xlink:title=" ">
<polygon fill="#bfbfbf" stroke="black" points="57.5,-0.5 57.5,-19.5 151.5,-19.5 151.5,-0.5 57.5,-0.5"/>
<text text-anchor="middle" x="104.5" y="-7.5" font-family="Helvetica,sans-Serif" font-size="10.00">mon_scalar_par</text>
</a>
</g>
</g>
<!-- Node2 -->
<g id="node2" class="node">
<title>Node2</title>
<g id="a_node2"><a xlink:href="../../dc/df8/structforce__scalar__par.html" target="_top" xlink:title=" ">
<polygon fill="none" stroke="orangered" points="0,-67.5 0,-86.5 97,-86.5 97,-67.5 0,-67.5"/>
<text text-anchor="middle" x="48.5" y="-74.5" font-family="Helvetica,sans-Serif" font-size="10.00">force_scalar_par</text>
</a>
</g>
</g>
<!-- Node2&#45;&gt;Node1 -->
<g id="edge1" class="edge">
<title>Node2&#45;&gt;Node1</title>
<path fill="none" stroke="#9a32cd" stroke-dasharray="5,2" d="M62.6,-59.63C73.55,-46.92 88.3,-29.8 97.07,-19.63"/>
<polygon fill="#9a32cd" stroke="#9a32cd" points="59.93,-57.37 56.05,-67.23 65.23,-61.94 59.93,-57.37"/>
<text text-anchor="middle" x="105" y="-41" font-family="Helvetica,sans-Serif" font-size="10.00"> force_par</text>
</g>
<!-- Node6 -->
<g id="node3" class="node">
<title>Node6</title>
<g id="a_node3"><a xlink:href="../../df/da7/structfield__scalar__par.html" target="_top" xlink:title=" ">
<polygon fill="none" stroke="orangered" points="115,-67.5 115,-86.5 208,-86.5 208,-67.5 115,-67.5"/>
<text text-anchor="middle" x="161.5" y="-74.5" font-family="Helvetica,sans-Serif" font-size="10.00">field_scalar_par</text>
</a>
</g>
</g>
<!-- Node6&#45;&gt;Node1 -->
<g id="edge2" class="edge">
<title>Node6&#45;&gt;Node1</title>
<path fill="none" stroke="#9a32cd" stroke-dasharray="5,2" d="M149.86,-58.8C145.06,-52.1 139.27,-44.48 133.5,-38 127.64,-31.43 120.39,-24.68 114.61,-19.57"/>
<polygon fill="#9a32cd" stroke="#9a32cd" points="147.12,-60.99 155.71,-67.2 152.86,-56.99 147.12,-60.99"/>
<text text-anchor="middle" x="165.5" y="-41" font-family="Helvetica,sans-Serif" font-size="10.00"> field_par</text>
</g>
</g>
</svg>
