<?xml version="1.0" encoding="UTF-8" standalone="no"?>
<!DOCTYPE svg PUBLIC "-//W3C//DTD SVG 1.1//EN"
 "http://www.w3.org/Graphics/SVG/1.1/DTD/svg11.dtd">
<!-- Generated by graphviz version 2.43.0 (0)
 -->
<!-- Title: geometry_type.h Pages: 1 -->
<svg width="167pt" height="140pt"
 viewBox="0.00 0.00 167.00 140.00" xmlns="http://www.w3.org/2000/svg" xmlns:xlink="http://www.w3.org/1999/xlink">
<g id="graph0" class="graph" transform="scale(1 1) rotate(0) translate(4 136)">
<title>geometry_type.h</title>
<!-- Node1 -->
<g id="node1" class="node">
<title>Node1</title>
<g id="a_node1"><a xlink:title="This file contains a geometry type for the new geometry.">
<polygon fill="#bfbfbf" stroke="black" points="0,-112.5 0,-131.5 100,-131.5 100,-112.5 0,-112.5"/>
<text text-anchor="middle" x="50" y="-119.5" font-family="Helvetica,sans-Serif" font-size="10.00">geometry_type.h</text>
</a>
</g>
</g>
<!-- Node2 -->
<g id="node2" class="node">
<title>Node2</title>
<g id="a_node2"><a xlink:href="../../d4/d67/geometry_8h.html" target="_top" xlink:title="This file contains information on the geometry of the local lattice, block decomposed geometry,...">
<polygon fill="none" stroke="red" points="14.5,-0.5 14.5,-19.5 85.5,-19.5 85.5,-0.5 14.5,-0.5"/>
<text text-anchor="middle" x="50" y="-7.5" font-family="Helvetica,sans-Serif" font-size="10.00">geometry.h</text>
</a>
</g>
</g>
<!-- Node1&#45;&gt;Node2 -->
<g id="edge1" class="edge">
<title>Node1&#45;&gt;Node2</title>
<path fill="none" stroke="midnightblue" d="M37.27,-103.9C32.07,-95.87 26.65,-85.9 24,-76 18.4,-55.1 33.16,-31.84 42.67,-19.61"/>
<polygon fill="midnightblue" stroke="midnightblue" points="34.54,-106.09 43.11,-112.32 40.29,-102.11 34.54,-106.09"/>
</g>
<!-- Node33 -->
<g id="node3" class="node">
<title>Node33</title>
<g id="a_node3"><a xlink:href="../../dc/d56/geometry__descriptor_8h.html" target="_top" xlink:title="Geometry descriptor struct, that contains all necessary information for multi&#45;node/ multi&#45;GPU calcula...">
<polygon fill="none" stroke="red" points="33,-56.5 33,-75.5 159,-75.5 159,-56.5 33,-56.5"/>
<text text-anchor="middle" x="96" y="-63.5" font-family="Helvetica,sans-Serif" font-size="10.00">geometry_descriptor.h</text>
</a>
</g>
</g>
<!-- Node1&#45;&gt;Node33 -->
<g id="edge2" class="edge">
<title>Node1&#45;&gt;Node33</title>
<path fill="none" stroke="midnightblue" d="M64.11,-104.43C72.18,-94.97 81.96,-83.48 88.55,-75.75"/>
<polygon fill="midnightblue" stroke="midnightblue" points="61.42,-102.2 57.6,-112.08 66.75,-106.74 61.42,-102.2"/>
</g>
<!-- Node33&#45;&gt;Node2 -->
<g id="edge3" class="edge">
<title>Node33&#45;&gt;Node2</title>
<path fill="none" stroke="midnightblue" d="M81.89,-48.43C73.82,-38.97 64.04,-27.48 57.45,-19.75"/>
<polygon fill="midnightblue" stroke="midnightblue" points="79.25,-50.74 88.4,-56.08 84.58,-46.2 79.25,-50.74"/>
</g>
</g>
</svg>
