<?xml version="1.0" encoding="UTF-8" standalone="no"?>
<!DOCTYPE svg PUBLIC "-//W3C//DTD SVG 1.1//EN"
 "http://www.w3.org/Graphics/SVG/1.1/DTD/svg11.dtd">
<!-- Generated by graphviz version 2.43.0 (0)
 -->
<!-- Title: single_double_utils_gpu.cu Pages: 1 -->
<svg width="282pt" height="106pt"
 viewBox="0.00 0.00 282.00 106.00" xmlns="http://www.w3.org/2000/svg" xmlns:xlink="http://www.w3.org/1999/xlink">
<g id="graph0" class="graph" transform="scale(1 1) rotate(0) translate(4 102)">
<title>single_double_utils_gpu.cu</title>
<!-- Node1 -->
<g id="node1" class="node">
<title>Node1</title>
<g id="a_node1"><a xlink:title="Function for conversion from single to double precision and vice versa, GPU version.">
<polygon fill="#bfbfbf" stroke="black" points="61,-67.5 61,-97.5 171,-97.5 171,-67.5 61,-67.5"/>
<text text-anchor="start" x="69" y="-85.5" font-family="Helvetica,sans-Serif" font-size="10.00">single_double_utils</text>
<text text-anchor="middle" x="116" y="-74.5" font-family="Helvetica,sans-Serif" font-size="10.00">_gpu.cu</text>
</a>
</g>
</g>
<!-- Node2 -->
<g id="node2" class="node">
<title>Node2</title>
<g id="a_node2"><a xlink:href="../../d8/d1f/libhr__core_8h_source.html" target="_top" xlink:title=" ">
<polygon fill="none" stroke="red" points="0,-6 0,-25 74,-25 74,-6 0,-6"/>
<text text-anchor="middle" x="37" y="-13" font-family="Helvetica,sans-Serif" font-size="10.00">libhr_core.h</text>
</a>
</g>
</g>
<!-- Node1&#45;&gt;Node2 -->
<g id="edge1" class="edge">
<title>Node1&#45;&gt;Node2</title>
<path fill="none" stroke="midnightblue" d="M98.86,-67.4C86.05,-56.86 68.57,-42.48 55.46,-31.69"/>
<polygon fill="midnightblue" stroke="midnightblue" points="57.51,-28.85 47.57,-25.19 53.07,-34.25 57.51,-28.85"/>
</g>
<!-- Node60 -->
<g id="node3" class="node">
<title>Node60</title>
<g id="a_node3"><a xlink:href="../../d5/d60/utils_8h_source.html" target="_top" xlink:title=" ">
<polygon fill="none" stroke="red" points="92.5,-6 92.5,-25 139.5,-25 139.5,-6 92.5,-6"/>
<text text-anchor="middle" x="116" y="-13" font-family="Helvetica,sans-Serif" font-size="10.00">utils.h</text>
</a>
</g>
</g>
<!-- Node1&#45;&gt;Node60 -->
<g id="edge2" class="edge">
<title>Node1&#45;&gt;Node60</title>
<path fill="none" stroke="midnightblue" d="M116,-67.4C116,-58.06 116,-45.71 116,-35.52"/>
<polygon fill="midnightblue" stroke="midnightblue" points="119.5,-35.19 116,-25.19 112.5,-35.19 119.5,-35.19"/>
</g>
<!-- Node85 -->
<g id="node4" class="node">
<title>Node85</title>
<g id="a_node4"><a xlink:href="../../d0/dbe/single__double__utils__gpu__kernels_8hpp_source.html" target="_top" xlink:title=" ">
<polygon fill="none" stroke="black" points="158,-0.5 158,-30.5 274,-30.5 274,-0.5 158,-0.5"/>
<text text-anchor="start" x="166" y="-18.5" font-family="Helvetica,sans-Serif" font-size="10.00">./single_double_utils</text>
<text text-anchor="middle" x="216" y="-7.5" font-family="Helvetica,sans-Serif" font-size="10.00">_gpu_kernels.hpp</text>
</a>
</g>
</g>
<!-- Node1&#45;&gt;Node85 -->
<g id="edge3" class="edge">
<title>Node1&#45;&gt;Node85</title>
<path fill="none" stroke="midnightblue" d="M137.7,-67.4C151.72,-58.28 170.17,-46.29 185.64,-36.24"/>
<polygon fill="midnightblue" stroke="midnightblue" points="187.87,-38.96 194.34,-30.58 184.05,-33.09 187.87,-38.96"/>
</g>
</g>
</svg>
