<?xml version="1.0" encoding="UTF-8" standalone="no"?>
<!DOCTYPE svg PUBLIC "-//W3C//DTD SVG 1.1//EN"
 "http://www.w3.org/Graphics/SVG/1.1/DTD/svg11.dtd">
<!-- Generated by graphviz version 2.43.0 (0)
 -->
<!-- Title: geometry_omp.h Pages: 1 -->
<svg width="147pt" height="140pt"
 viewBox="0.00 0.00 146.50 140.00" xmlns="http://www.w3.org/2000/svg" xmlns:xlink="http://www.w3.org/1999/xlink">
<g id="graph0" class="graph" transform="scale(1 1) rotate(0) translate(4 136)">
<title>geometry_omp.h</title>
<!-- Node1 -->
<g id="node1" class="node">
<title>Node1</title>
<g id="a_node1"><a xlink:title="This file contains useful macros that perform OpenMP reduction operations and are necessary to define...">
<polygon fill="#bfbfbf" stroke="black" points="0,-112.5 0,-131.5 100,-131.5 100,-112.5 0,-112.5"/>
<text text-anchor="middle" x="50" y="-119.5" font-family="Helvetica,sans-Serif" font-size="10.00">geometry_omp.h</text>
</a>
</g>
</g>
<!-- Node2 -->
<g id="node2" class="node">
<title>Node2</title>
<g id="a_node2"><a xlink:href="../../d4/d67/geometry_8h.html" target="_top" xlink:title="This file contains information on the geometry of the local lattice, block decomposed geometry,...">
<polygon fill="none" stroke="red" points="14.5,-0.5 14.5,-19.5 85.5,-19.5 85.5,-0.5 14.5,-0.5"/>
<text text-anchor="middle" x="50" y="-7.5" font-family="Helvetica,sans-Serif" font-size="10.00">geometry.h</text>
</a>
</g>
</g>
<!-- Node1&#45;&gt;Node2 -->
<g id="edge1" class="edge">
<title>Node1&#45;&gt;Node2</title>
<path fill="none" stroke="midnightblue" d="M40.07,-103.3C36.1,-95.24 32,-85.41 30,-76 25.64,-55.44 37.01,-32.05 44.35,-19.7"/>
<polygon fill="midnightblue" stroke="midnightblue" points="37.11,-105.19 44.87,-112.41 43.31,-101.93 37.11,-105.19"/>
</g>
<!-- Node33 -->
<g id="node3" class="node">
<title>Node33</title>
<g id="a_node3"><a xlink:href="../../d3/d77/geometry__fuse_8h.html" target="_top" xlink:title="FIXME: Add docs.">
<polygon fill="none" stroke="black" points="39.5,-56.5 39.5,-75.5 138.5,-75.5 138.5,-56.5 39.5,-56.5"/>
<text text-anchor="middle" x="89" y="-63.5" font-family="Helvetica,sans-Serif" font-size="10.00">geometry_fuse.h</text>
</a>
</g>
</g>
<!-- Node1&#45;&gt;Node33 -->
<g id="edge2" class="edge">
<title>Node1&#45;&gt;Node33</title>
<path fill="none" stroke="midnightblue" d="M62.38,-103.86C69.14,-94.5 77.21,-83.33 82.68,-75.75"/>
<polygon fill="midnightblue" stroke="midnightblue" points="59.46,-101.93 56.44,-112.08 65.13,-106.03 59.46,-101.93"/>
</g>
<!-- Node33&#45;&gt;Node2 -->
<g id="edge3" class="edge">
<title>Node33&#45;&gt;Node2</title>
<path fill="none" stroke="midnightblue" d="M76.62,-47.86C69.86,-38.5 61.79,-27.33 56.32,-19.75"/>
<polygon fill="midnightblue" stroke="midnightblue" points="73.87,-50.03 82.56,-56.08 79.54,-45.93 73.87,-50.03"/>
</g>
</g>
</svg>
