<?xml version="1.0" encoding="UTF-8" standalone="no"?>
<!DOCTYPE svg PUBLIC "-//W3C//DTD SVG 1.1//EN"
 "http://www.w3.org/Graphics/SVG/1.1/DTD/svg11.dtd">
<!-- Generated by graphviz version 2.43.0 (0)
 -->
<!-- Title: mon_list Pages: 1 -->
<svg width="114pt" height="95pt"
 viewBox="0.00 0.00 113.50 95.00" xmlns="http://www.w3.org/2000/svg" xmlns:xlink="http://www.w3.org/1999/xlink">
<g id="graph0" class="graph" transform="scale(1 1) rotate(0) translate(4 91)">
<title>mon_list</title>
<!-- Node1 -->
<g id="node1" class="node">
<title>Node1</title>
<g id="a_node1"><a xlink:title=" ">
<polygon fill="#bfbfbf" stroke="black" points="3.5,-0.5 3.5,-19.5 62.5,-19.5 62.5,-0.5 3.5,-0.5"/>
<text text-anchor="middle" x="33" y="-7.5" font-family="Helvetica,sans-Serif" font-size="10.00">mon_list</text>
</a>
</g>
</g>
<!-- Node1&#45;&gt;Node1 -->
<g id="edge2" class="edge">
<title>Node1&#45;&gt;Node1</title>
<path fill="none" stroke="#9a32cd" stroke-dasharray="5,2" d="M72.67,-15.16C77.41,-14.22 80.5,-12.5 80.5,-10 80.5,-6 72.58,-4 62.69,-4"/>
<polygon fill="#9a32cd" stroke="#9a32cd" points="72.36,-11.67 62.69,-16 72.95,-18.65 72.36,-11.67"/>
<text text-anchor="middle" x="93" y="-7.5" font-family="Helvetica,sans-Serif" font-size="10.00"> next</text>
</g>
<!-- Node2 -->
<g id="node2" class="node">
<title>Node2</title>
<g id="a_node2"><a xlink:href="../../d6/dba/structmonomial.html" target="_top" xlink:title=" ">
<polygon fill="none" stroke="orangered" points="0,-67.5 0,-86.5 66,-86.5 66,-67.5 0,-67.5"/>
<text text-anchor="middle" x="33" y="-74.5" font-family="Helvetica,sans-Serif" font-size="10.00">monomial</text>
</a>
</g>
</g>
<!-- Node2&#45;&gt;Node1 -->
<g id="edge1" class="edge">
<title>Node2&#45;&gt;Node1</title>
<path fill="none" stroke="#9a32cd" stroke-dasharray="5,2" d="M33,-57.04C33,-44.67 33,-29.12 33,-19.63"/>
<polygon fill="#9a32cd" stroke="#9a32cd" points="29.5,-57.23 33,-67.23 36.5,-57.23 29.5,-57.23"/>
<text text-anchor="middle" x="39.5" y="-41" font-family="Helvetica,sans-Serif" font-size="10.00"> m</text>
</g>
</g>
</svg>
