<?xml version="1.0" encoding="UTF-8" standalone="no"?>
<!DOCTYPE svg PUBLIC "-//W3C//DTD SVG 1.1//EN"
 "http://www.w3.org/Graphics/SVG/1.1/DTD/svg11.dtd">
<!-- Generated by graphviz version 2.43.0 (0)
 -->
<!-- Title: gpu.h Pages: 1 -->
<svg width="574pt" height="84pt"
 viewBox="0.00 0.00 574.00 84.00" xmlns="http://www.w3.org/2000/svg" xmlns:xlink="http://www.w3.org/1999/xlink">
<g id="graph0" class="graph" transform="scale(1 1) rotate(0) translate(4 80)">
<title>gpu.h</title>
<!-- Node1 -->
<g id="node1" class="node">
<title>Node1</title>
<g id="a_node1"><a xlink:title="Basic gpu imports and structs. Include this in files that define GPU logic.">
<polygon fill="#bfbfbf" stroke="black" points="210,-56.5 210,-75.5 254,-75.5 254,-56.5 210,-56.5"/>
<text text-anchor="middle" x="232" y="-63.5" font-family="Helvetica,sans-Serif" font-size="10.00">gpu.h</text>
</a>
</g>
</g>
<!-- Node2 -->
<g id="node2" class="node">
<title>Node2</title>
<g id="a_node2"><a xlink:title=" ">
<polygon fill="none" stroke="#bfbfbf" points="0,-0.5 0,-19.5 50,-19.5 50,-0.5 0,-0.5"/>
<text text-anchor="middle" x="25" y="-7.5" font-family="Helvetica,sans-Serif" font-size="10.00">stdio.h</text>
</a>
</g>
</g>
<!-- Node1&#45;&gt;Node2 -->
<g id="edge1" class="edge">
<title>Node1&#45;&gt;Node2</title>
<path fill="none" stroke="midnightblue" d="M209.87,-59.28C178.7,-51.21 119.82,-35.94 60.21,-20.31"/>
<polygon fill="midnightblue" stroke="midnightblue" points="60.81,-16.85 50.25,-17.7 59.03,-23.62 60.81,-16.85"/>
</g>
<!-- Node3 -->
<g id="node3" class="node">
<title>Node3</title>
<g id="a_node3"><a xlink:title=" ">
<polygon fill="none" stroke="#bfbfbf" points="68.5,-0.5 68.5,-19.5 117.5,-19.5 117.5,-0.5 68.5,-0.5"/>
<text text-anchor="middle" x="93" y="-7.5" font-family="Helvetica,sans-Serif" font-size="10.00">cuda.h</text>
</a>
</g>
</g>
<!-- Node1&#45;&gt;Node3 -->
<g id="edge2" class="edge">
<title>Node1&#45;&gt;Node3</title>
<path fill="none" stroke="midnightblue" d="M209.98,-56.44C186.9,-47.48 150.44,-33.31 124.36,-23.18"/>
<polygon fill="midnightblue" stroke="midnightblue" points="125.51,-19.88 114.92,-19.52 122.98,-26.4 125.51,-19.88"/>
</g>
<!-- Node4 -->
<g id="node4" class="node">
<title>Node4</title>
<g id="a_node4"><a xlink:title=" ">
<polygon fill="none" stroke="#bfbfbf" points="136,-0.5 136,-19.5 222,-19.5 222,-0.5 136,-0.5"/>
<text text-anchor="middle" x="179" y="-7.5" font-family="Helvetica,sans-Serif" font-size="10.00">driver_types.h</text>
</a>
</g>
</g>
<!-- Node1&#45;&gt;Node4 -->
<g id="edge3" class="edge">
<title>Node1&#45;&gt;Node4</title>
<path fill="none" stroke="midnightblue" d="M223.25,-56.08C215.53,-48.22 204.1,-36.57 194.78,-27.08"/>
<polygon fill="midnightblue" stroke="midnightblue" points="197.09,-24.44 187.59,-19.75 192.1,-29.34 197.09,-24.44"/>
</g>
<!-- Node5 -->
<g id="node5" class="node">
<title>Node5</title>
<g id="a_node5"><a xlink:title=" ">
<polygon fill="none" stroke="#bfbfbf" points="240,-0.5 240,-19.5 332,-19.5 332,-0.5 240,-0.5"/>
<text text-anchor="middle" x="286" y="-7.5" font-family="Helvetica,sans-Serif" font-size="10.00">cuda_runtime.h</text>
</a>
</g>
</g>
<!-- Node1&#45;&gt;Node5 -->
<g id="edge4" class="edge">
<title>Node1&#45;&gt;Node5</title>
<path fill="none" stroke="midnightblue" d="M240.92,-56.08C248.78,-48.22 260.43,-36.57 269.92,-27.08"/>
<polygon fill="midnightblue" stroke="midnightblue" points="272.65,-29.3 277.25,-19.75 267.7,-24.35 272.65,-29.3"/>
</g>
<!-- Node6 -->
<g id="node6" class="node">
<title>Node6</title>
<g id="a_node6"><a xlink:title=" ">
<polygon fill="none" stroke="#bfbfbf" points="350.5,-0.5 350.5,-19.5 463.5,-19.5 463.5,-0.5 350.5,-0.5"/>
<text text-anchor="middle" x="407" y="-7.5" font-family="Helvetica,sans-Serif" font-size="10.00">cuda_runtime_api.h</text>
</a>
</g>
</g>
<!-- Node1&#45;&gt;Node6 -->
<g id="edge5" class="edge">
<title>Node1&#45;&gt;Node6</title>
<path fill="none" stroke="midnightblue" d="M254.16,-58.16C283.13,-49.22 334.28,-33.44 369.37,-22.61"/>
<polygon fill="midnightblue" stroke="midnightblue" points="370.73,-25.85 379.26,-19.56 368.67,-19.17 370.73,-25.85"/>
</g>
<!-- Node7 -->
<g id="node7" class="node">
<title>Node7</title>
<g id="a_node7"><a xlink:href="../../d8/d5a/input__par_8h_source.html" target="_top" xlink:title=" ">
<polygon fill="none" stroke="black" points="482,-0.5 482,-19.5 566,-19.5 566,-0.5 482,-0.5"/>
<text text-anchor="middle" x="524" y="-7.5" font-family="Helvetica,sans-Serif" font-size="10.00">IO/input_par.h</text>
</a>
</g>
</g>
<!-- Node1&#45;&gt;Node7 -->
<g id="edge6" class="edge">
<title>Node1&#45;&gt;Node7</title>
<path fill="none" stroke="midnightblue" d="M254.43,-60.85C300.63,-52.31 407.49,-32.55 471.93,-20.63"/>
<polygon fill="midnightblue" stroke="midnightblue" points="472.7,-24.05 481.89,-18.79 471.42,-17.16 472.7,-24.05"/>
</g>
</g>
</svg>
