<?xml version="1.0" encoding="UTF-8" standalone="no"?>
<!DOCTYPE svg PUBLIC "-//W3C//DTD SVG 1.1//EN"
 "http://www.w3.org/Graphics/SVG/1.1/DTD/svg11.dtd">
<!-- Generated by graphviz version 2.43.0 (0)
 -->
<!-- Title: new_geometry.h Pages: 1 -->
<svg width="336pt" height="140pt"
 viewBox="0.00 0.00 336.00 140.00" xmlns="http://www.w3.org/2000/svg" xmlns:xlink="http://www.w3.org/1999/xlink">
<g id="graph0" class="graph" transform="scale(1 1) rotate(0) translate(4 136)">
<title>new_geometry.h</title>
<!-- Node1 -->
<g id="node1" class="node">
<title>Node1</title>
<g id="a_node1"><a xlink:title="Functions needed for the new geometry implementation that will replace the current geometry in the fu...">
<polygon fill="#bfbfbf" stroke="black" points="111.5,-112.5 111.5,-131.5 208.5,-131.5 208.5,-112.5 111.5,-112.5"/>
<text text-anchor="middle" x="160" y="-119.5" font-family="Helvetica,sans-Serif" font-size="10.00">new_geometry.h</text>
</a>
</g>
</g>
<!-- Node2 -->
<g id="node2" class="node">
<title>Node2</title>
<g id="a_node2"><a xlink:href="../../d3/ded/spinor__field_8h.html" target="_top" xlink:title="The elementary site structures defined in suN.h are used in this file to define field structures that...">
<polygon fill="none" stroke="red" points="0,-56.5 0,-75.5 82,-75.5 82,-56.5 0,-56.5"/>
<text text-anchor="middle" x="41" y="-63.5" font-family="Helvetica,sans-Serif" font-size="10.00">spinor_field.h</text>
</a>
</g>
</g>
<!-- Node1&#45;&gt;Node2 -->
<g id="edge1" class="edge">
<title>Node1&#45;&gt;Node2</title>
<path fill="none" stroke="midnightblue" d="M141.14,-112.44C121.73,-103.64 91.27,-89.81 69.04,-79.72"/>
<polygon fill="midnightblue" stroke="midnightblue" points="70.32,-76.46 59.77,-75.52 67.43,-82.84 70.32,-76.46"/>
</g>
<!-- Node5 -->
<g id="node3" class="node">
<title>Node5</title>
<g id="a_node3"><a xlink:title=" ">
<polygon fill="none" stroke="#bfbfbf" points="36.5,-0.5 36.5,-19.5 113.5,-19.5 113.5,-0.5 36.5,-0.5"/>
<text text-anchor="middle" x="75" y="-7.5" font-family="Helvetica,sans-Serif" font-size="10.00">suN_types.h</text>
</a>
</g>
</g>
<!-- Node1&#45;&gt;Node5 -->
<g id="edge4" class="edge">
<title>Node1&#45;&gt;Node5</title>
<path fill="none" stroke="midnightblue" d="M153.33,-112.37C139.24,-94.14 106.24,-51.43 87.89,-27.68"/>
<polygon fill="midnightblue" stroke="midnightblue" points="90.52,-25.36 81.64,-19.59 84.98,-29.64 90.52,-25.36"/>
</g>
<!-- Node9 -->
<g id="node4" class="node">
<title>Node9</title>
<g id="a_node4"><a xlink:title=" ">
<polygon fill="none" stroke="#bfbfbf" points="138,-56.5 138,-75.5 182,-75.5 182,-56.5 138,-56.5"/>
<text text-anchor="middle" x="160" y="-63.5" font-family="Helvetica,sans-Serif" font-size="10.00">suN.h</text>
</a>
</g>
</g>
<!-- Node1&#45;&gt;Node9 -->
<g id="edge3" class="edge">
<title>Node1&#45;&gt;Node9</title>
<path fill="none" stroke="midnightblue" d="M160,-112.08C160,-105.01 160,-94.86 160,-85.99"/>
<polygon fill="midnightblue" stroke="midnightblue" points="163.5,-85.75 160,-75.75 156.5,-85.75 163.5,-85.75"/>
</g>
<!-- Node10 -->
<g id="node5" class="node">
<title>Node10</title>
<g id="a_node5"><a xlink:title=" ">
<polygon fill="none" stroke="#bfbfbf" points="200.5,-56.5 200.5,-75.5 253.5,-75.5 253.5,-56.5 200.5,-56.5"/>
<text text-anchor="middle" x="227" y="-63.5" font-family="Helvetica,sans-Serif" font-size="10.00">stdint.h</text>
</a>
</g>
</g>
<!-- Node1&#45;&gt;Node10 -->
<g id="edge5" class="edge">
<title>Node1&#45;&gt;Node10</title>
<path fill="none" stroke="midnightblue" d="M170.76,-112.32C180.77,-104.26 195.89,-92.08 207.93,-82.37"/>
<polygon fill="midnightblue" stroke="midnightblue" points="210.45,-84.83 216.04,-75.83 206.06,-79.38 210.45,-84.83"/>
</g>
<!-- Node11 -->
<g id="node6" class="node">
<title>Node11</title>
<g id="a_node6"><a xlink:title=" ">
<polygon fill="none" stroke="#bfbfbf" points="272,-56.5 272,-75.5 328,-75.5 328,-56.5 272,-56.5"/>
<text text-anchor="middle" x="300" y="-63.5" font-family="Helvetica,sans-Serif" font-size="10.00">stddef.h</text>
</a>
</g>
</g>
<!-- Node1&#45;&gt;Node11 -->
<g id="edge6" class="edge">
<title>Node1&#45;&gt;Node11</title>
<path fill="none" stroke="midnightblue" d="M182.18,-112.44C205.43,-103.48 242.15,-89.31 268.42,-79.18"/>
<polygon fill="midnightblue" stroke="midnightblue" points="269.85,-82.38 277.92,-75.52 267.33,-75.85 269.85,-82.38"/>
</g>
<!-- Node2&#45;&gt;Node5 -->
<g id="edge2" class="edge">
<title>Node2&#45;&gt;Node5</title>
<path fill="none" stroke="midnightblue" d="M46.61,-56.08C51.37,-48.53 58.32,-37.49 64.15,-28.23"/>
<polygon fill="midnightblue" stroke="midnightblue" points="67.12,-30.08 69.49,-19.75 61.2,-26.35 67.12,-30.08"/>
</g>
</g>
</svg>
