<?xml version="1.0" encoding="UTF-8" standalone="no"?>
<!DOCTYPE svg PUBLIC "-//W3C//DTD SVG 1.1//EN"
 "http://www.w3.org/Graphics/SVG/1.1/DTD/svg11.dtd">
<!-- Generated by graphviz version 2.43.0 (0)
 -->
<!-- Title: core_utils.h Pages: 1 -->
<svg width="200pt" height="140pt"
 viewBox="0.00 0.00 199.50 140.00" xmlns="http://www.w3.org/2000/svg" xmlns:xlink="http://www.w3.org/1999/xlink">
<g id="graph0" class="graph" transform="scale(1 1) rotate(0) translate(4 136)">
<title>core_utils.h</title>
<!-- Node1 -->
<g id="node1" class="node">
<title>Node1</title>
<g id="a_node1"><a xlink:title="Macros to declare global variables.">
<polygon fill="#bfbfbf" stroke="black" points="47.5,-112.5 47.5,-131.5 120.5,-131.5 120.5,-112.5 47.5,-112.5"/>
<text text-anchor="middle" x="84" y="-119.5" font-family="Helvetica,sans-Serif" font-size="10.00">core_utils.h</text>
</a>
</g>
</g>
<!-- Node2 -->
<g id="node2" class="node">
<title>Node2</title>
<g id="a_node2"><a xlink:href="../../d2/d49/global_8h.html" target="_top" xlink:title="Global parameters and arrays.">
<polygon fill="none" stroke="black" points="0,-56.5 0,-75.5 56,-75.5 56,-56.5 0,-56.5"/>
<text text-anchor="middle" x="28" y="-63.5" font-family="Helvetica,sans-Serif" font-size="10.00">global.h</text>
</a>
</g>
</g>
<!-- Node1&#45;&gt;Node2 -->
<g id="edge1" class="edge">
<title>Node1&#45;&gt;Node2</title>
<path fill="none" stroke="midnightblue" d="M67.67,-105.25C57.74,-95.67 45.41,-83.79 37.16,-75.83"/>
<polygon fill="midnightblue" stroke="midnightblue" points="65.37,-107.9 75,-112.32 70.23,-102.86 65.37,-107.9"/>
</g>
<!-- Node3 -->
<g id="node3" class="node">
<title>Node3</title>
<g id="a_node3"><a xlink:href="../../d8/d1f/libhr__core_8h_source.html" target="_top" xlink:title=" ">
<polygon fill="none" stroke="red" points="47,-0.5 47,-19.5 121,-19.5 121,-0.5 47,-0.5"/>
<text text-anchor="middle" x="84" y="-7.5" font-family="Helvetica,sans-Serif" font-size="10.00">libhr_core.h</text>
</a>
</g>
</g>
<!-- Node1&#45;&gt;Node3 -->
<g id="edge5" class="edge">
<title>Node1&#45;&gt;Node3</title>
<path fill="none" stroke="midnightblue" d="M84,-102.35C84,-78.25 84,-37.31 84,-19.59"/>
<polygon fill="midnightblue" stroke="midnightblue" points="80.5,-102.37 84,-112.37 87.5,-102.37 80.5,-102.37"/>
</g>
<!-- Node27 -->
<g id="node4" class="node">
<title>Node27</title>
<g id="a_node4"><a xlink:href="../../d4/d44/global__gpu_8h.html" target="_top" xlink:title="Global variables need to be declared once in the main program and then again as extern variables in t...">
<polygon fill="none" stroke="black" points="112.5,-56.5 112.5,-75.5 191.5,-75.5 191.5,-56.5 112.5,-56.5"/>
<text text-anchor="middle" x="152" y="-63.5" font-family="Helvetica,sans-Serif" font-size="10.00">global_gpu.h</text>
</a>
</g>
</g>
<!-- Node1&#45;&gt;Node27 -->
<g id="edge3" class="edge">
<title>Node1&#45;&gt;Node27</title>
<path fill="none" stroke="midnightblue" d="M102.76,-106.1C115,-96.38 130.56,-84.03 140.88,-75.83"/>
<polygon fill="midnightblue" stroke="midnightblue" points="100.58,-103.36 94.93,-112.32 104.93,-108.85 100.58,-103.36"/>
</g>
<!-- Node2&#45;&gt;Node3 -->
<g id="edge2" class="edge">
<title>Node2&#45;&gt;Node3</title>
<path fill="none" stroke="midnightblue" d="M44.33,-49.25C54.26,-39.67 66.59,-27.79 74.84,-19.83"/>
<polygon fill="midnightblue" stroke="midnightblue" points="41.77,-46.86 37,-56.32 46.63,-51.9 41.77,-46.86"/>
</g>
<!-- Node27&#45;&gt;Node3 -->
<g id="edge4" class="edge">
<title>Node27&#45;&gt;Node3</title>
<path fill="none" stroke="midnightblue" d="M133.24,-50.1C121,-40.38 105.44,-28.03 95.12,-19.83"/>
<polygon fill="midnightblue" stroke="midnightblue" points="131.07,-52.85 141.07,-56.32 135.42,-47.36 131.07,-52.85"/>
</g>
</g>
</svg>
