<?xml version="1.0" encoding="UTF-8" standalone="no"?>
<!DOCTYPE svg PUBLIC "-//W3C//DTD SVG 1.1//EN"
 "http://www.w3.org/Graphics/SVG/1.1/DTD/svg11.dtd">
<!-- Generated by graphviz version 2.43.0 (0)
 -->
<!-- Title: hr_sendrecv.c Pages: 1 -->
<svg width="674pt" height="84pt"
 viewBox="0.00 0.00 674.00 84.00" xmlns="http://www.w3.org/2000/svg" xmlns:xlink="http://www.w3.org/1999/xlink">
<g id="graph0" class="graph" transform="scale(1 1) rotate(0) translate(4 80)">
<title>hr_sendrecv.c</title>
<!-- Node1 -->
<g id="node1" class="node">
<title>Node1</title>
<g id="a_node1"><a xlink:title="Abstracted sendrecv of buffers of given fields.">
<polygon fill="#bfbfbf" stroke="black" points="308,-56.5 308,-75.5 391,-75.5 391,-56.5 308,-56.5"/>
<text text-anchor="middle" x="349.5" y="-63.5" font-family="Helvetica,sans-Serif" font-size="10.00">hr_sendrecv.c</text>
</a>
</g>
</g>
<!-- Node2 -->
<g id="node2" class="node">
<title>Node2</title>
<g id="a_node2"><a xlink:href="../../d4/d67/geometry_8h.html" target="_top" xlink:title="This file contains information on the geometry of the local lattice, block decomposed geometry,...">
<polygon fill="none" stroke="red" points="0,-0.5 0,-19.5 71,-19.5 71,-0.5 0,-0.5"/>
<text text-anchor="middle" x="35.5" y="-7.5" font-family="Helvetica,sans-Serif" font-size="10.00">geometry.h</text>
</a>
</g>
</g>
<!-- Node1&#45;&gt;Node2 -->
<g id="edge1" class="edge">
<title>Node1&#45;&gt;Node2</title>
<path fill="none" stroke="midnightblue" d="M307.79,-58.53C256.64,-50.5 167.06,-36.08 80.96,-20.22"/>
<polygon fill="midnightblue" stroke="midnightblue" points="81.49,-16.76 71.02,-18.38 80.22,-23.64 81.49,-16.76"/>
</g>
<!-- Node48 -->
<g id="node3" class="node">
<title>Node48</title>
<g id="a_node3"><a xlink:href="../../dc/d18/memory_8h_source.html" target="_top" xlink:title=" ">
<polygon fill="none" stroke="red" points="89,-0.5 89,-19.5 154,-19.5 154,-0.5 89,-0.5"/>
<text text-anchor="middle" x="121.5" y="-7.5" font-family="Helvetica,sans-Serif" font-size="10.00">memory.h</text>
</a>
</g>
</g>
<!-- Node1&#45;&gt;Node48 -->
<g id="edge2" class="edge">
<title>Node1&#45;&gt;Node48</title>
<path fill="none" stroke="midnightblue" d="M313.37,-56.44C272.8,-46.83 207.03,-31.26 164.01,-21.07"/>
<polygon fill="midnightblue" stroke="midnightblue" points="164.67,-17.63 154.13,-18.73 163.06,-24.44 164.67,-17.63"/>
</g>
<!-- Node52 -->
<g id="node4" class="node">
<title>Node52</title>
<g id="a_node4"><a xlink:href="../../d8/d1f/libhr__core_8h_source.html" target="_top" xlink:title=" ">
<polygon fill="none" stroke="red" points="172.5,-0.5 172.5,-19.5 246.5,-19.5 246.5,-0.5 172.5,-0.5"/>
<text text-anchor="middle" x="209.5" y="-7.5" font-family="Helvetica,sans-Serif" font-size="10.00">libhr_core.h</text>
</a>
</g>
</g>
<!-- Node1&#45;&gt;Node52 -->
<g id="edge3" class="edge">
<title>Node1&#45;&gt;Node52</title>
<path fill="none" stroke="midnightblue" d="M327.32,-56.44C304.07,-47.48 267.35,-33.31 241.08,-23.18"/>
<polygon fill="midnightblue" stroke="midnightblue" points="242.17,-19.85 231.58,-19.52 239.65,-26.38 242.17,-19.85"/>
</g>
<!-- Node64 -->
<g id="node5" class="node">
<title>Node64</title>
<g id="a_node5"><a xlink:href="../../dc/dac/io_8h_source.html" target="_top" xlink:title=" ">
<polygon fill="none" stroke="red" points="265,-0.5 265,-19.5 300,-19.5 300,-0.5 265,-0.5"/>
<text text-anchor="middle" x="282.5" y="-7.5" font-family="Helvetica,sans-Serif" font-size="10.00">io.h</text>
</a>
</g>
</g>
<!-- Node1&#45;&gt;Node64 -->
<g id="edge4" class="edge">
<title>Node1&#45;&gt;Node64</title>
<path fill="none" stroke="midnightblue" d="M338.74,-56.32C328.73,-48.26 313.61,-36.08 301.57,-26.37"/>
<polygon fill="midnightblue" stroke="midnightblue" points="303.44,-23.38 293.46,-19.83 299.05,-28.83 303.44,-23.38"/>
</g>
<!-- Node77 -->
<g id="node6" class="node">
<title>Node77</title>
<g id="a_node6"><a xlink:title=" ">
<polygon fill="none" stroke="#bfbfbf" points="318,-0.5 318,-19.5 381,-19.5 381,-0.5 318,-0.5"/>
<text text-anchor="middle" x="349.5" y="-7.5" font-family="Helvetica,sans-Serif" font-size="10.00">pthread.h</text>
</a>
</g>
</g>
<!-- Node1&#45;&gt;Node77 -->
<g id="edge5" class="edge">
<title>Node1&#45;&gt;Node77</title>
<path fill="none" stroke="midnightblue" d="M349.5,-56.08C349.5,-49.01 349.5,-38.86 349.5,-29.99"/>
<polygon fill="midnightblue" stroke="midnightblue" points="353,-29.75 349.5,-19.75 346,-29.75 353,-29.75"/>
</g>
<!-- Node22 -->
<g id="node7" class="node">
<title>Node22</title>
<g id="a_node7"><a xlink:title=" ">
<polygon fill="none" stroke="#bfbfbf" points="399.5,-0.5 399.5,-19.5 449.5,-19.5 449.5,-0.5 399.5,-0.5"/>
<text text-anchor="middle" x="424.5" y="-7.5" font-family="Helvetica,sans-Serif" font-size="10.00">stdio.h</text>
</a>
</g>
</g>
<!-- Node1&#45;&gt;Node22 -->
<g id="edge6" class="edge">
<title>Node1&#45;&gt;Node22</title>
<path fill="none" stroke="midnightblue" d="M361.55,-56.32C372.96,-48.11 390.33,-35.6 403.93,-25.81"/>
<polygon fill="midnightblue" stroke="midnightblue" points="406.16,-28.52 412.23,-19.83 402.07,-22.84 406.16,-28.52"/>
</g>
<!-- Node78 -->
<g id="node8" class="node">
<title>Node78</title>
<g id="a_node8"><a xlink:title=" ">
<polygon fill="none" stroke="#bfbfbf" points="467.5,-0.5 467.5,-19.5 523.5,-19.5 523.5,-0.5 467.5,-0.5"/>
<text text-anchor="middle" x="495.5" y="-7.5" font-family="Helvetica,sans-Serif" font-size="10.00">unistd.h</text>
</a>
</g>
</g>
<!-- Node1&#45;&gt;Node78 -->
<g id="edge7" class="edge">
<title>Node1&#45;&gt;Node78</title>
<path fill="none" stroke="midnightblue" d="M372.63,-56.44C396.98,-47.44 435.51,-33.19 462.92,-23.05"/>
<polygon fill="midnightblue" stroke="midnightblue" points="464.31,-26.27 472.47,-19.52 461.88,-19.7 464.31,-26.27"/>
</g>
<!-- Node18 -->
<g id="node9" class="node">
<title>Node18</title>
<g id="a_node9"><a xlink:title=" ">
<polygon fill="none" stroke="#bfbfbf" points="542,-0.5 542,-19.5 595,-19.5 595,-0.5 542,-0.5"/>
<text text-anchor="middle" x="568.5" y="-7.5" font-family="Helvetica,sans-Serif" font-size="10.00">stdlib.h</text>
</a>
</g>
</g>
<!-- Node1&#45;&gt;Node18 -->
<g id="edge8" class="edge">
<title>Node1&#45;&gt;Node18</title>
<path fill="none" stroke="midnightblue" d="M384.25,-56.5C419.06,-47.97 474.42,-34.38 531.79,-20.17"/>
<polygon fill="midnightblue" stroke="midnightblue" points="532.9,-23.5 541.77,-17.7 531.22,-16.7 532.9,-23.5"/>
</g>
<!-- Node13 -->
<g id="node10" class="node">
<title>Node13</title>
<g id="a_node10"><a xlink:title=" ">
<polygon fill="none" stroke="#bfbfbf" points="613,-0.5 613,-19.5 666,-19.5 666,-0.5 613,-0.5"/>
<text text-anchor="middle" x="639.5" y="-7.5" font-family="Helvetica,sans-Serif" font-size="10.00">string.h</text>
</a>
</g>
</g>
<!-- Node1&#45;&gt;Node13 -->
<g id="edge9" class="edge">
<title>Node1&#45;&gt;Node13</title>
<path fill="none" stroke="midnightblue" d="M391.21,-58.65C439.79,-51.03 522.66,-37.35 602.56,-20.3"/>
<polygon fill="midnightblue" stroke="midnightblue" points="603.76,-23.62 612.8,-18.09 602.28,-16.78 603.76,-23.62"/>
</g>
</g>
</svg>
