<?xml version="1.0" encoding="UTF-8" standalone="no"?>
<!DOCTYPE svg PUBLIC "-//W3C//DTD SVG 1.1//EN"
 "http://www.w3.org/Graphics/SVG/1.1/DTD/svg11.dtd">
<!-- Generated by graphviz version 2.43.0 (0)
 -->
<!-- Title: check_options.h Pages: 1 -->
<svg width="112pt" height="140pt"
 viewBox="0.00 0.00 111.50 140.00" xmlns="http://www.w3.org/2000/svg" xmlns:xlink="http://www.w3.org/1999/xlink">
<g id="graph0" class="graph" transform="scale(1 1) rotate(0) translate(4 136)">
<title>check_options.h</title>
<!-- Node1 -->
<g id="node1" class="node">
<title>Node1</title>
<g id="a_node1"><a xlink:title="Validation checks of the input parameters specified in the input file and error messages that give in...">
<polygon fill="#bfbfbf" stroke="black" points="8.5,-112.5 8.5,-131.5 103.5,-131.5 103.5,-112.5 8.5,-112.5"/>
<text text-anchor="middle" x="56" y="-119.5" font-family="Helvetica,sans-Serif" font-size="10.00">check_options.h</text>
</a>
</g>
</g>
<!-- Node2 -->
<g id="node2" class="node">
<title>Node2</title>
<g id="a_node2"><a xlink:href="../../d2/d49/global_8h.html" target="_top" xlink:title="Global parameters and arrays.">
<polygon fill="none" stroke="black" points="0,-56.5 0,-75.5 56,-75.5 56,-56.5 0,-56.5"/>
<text text-anchor="middle" x="28" y="-63.5" font-family="Helvetica,sans-Serif" font-size="10.00">global.h</text>
</a>
</g>
</g>
<!-- Node1&#45;&gt;Node2 -->
<g id="edge1" class="edge">
<title>Node1&#45;&gt;Node2</title>
<path fill="none" stroke="midnightblue" d="M46.66,-102.98C41.91,-93.82 36.34,-83.09 32.54,-75.75"/>
<polygon fill="midnightblue" stroke="midnightblue" points="43.67,-104.82 51.38,-112.08 49.88,-101.59 43.67,-104.82"/>
</g>
<!-- Node3 -->
<g id="node3" class="node">
<title>Node3</title>
<g id="a_node3"><a xlink:href="../../d8/d1f/libhr__core_8h_source.html" target="_top" xlink:title=" ">
<polygon fill="none" stroke="red" points="19,-0.5 19,-19.5 93,-19.5 93,-0.5 19,-0.5"/>
<text text-anchor="middle" x="56" y="-7.5" font-family="Helvetica,sans-Serif" font-size="10.00">libhr_core.h</text>
</a>
</g>
</g>
<!-- Node1&#45;&gt;Node3 -->
<g id="edge3" class="edge">
<title>Node1&#45;&gt;Node3</title>
<path fill="none" stroke="midnightblue" d="M60.98,-102.18C63.83,-89.23 66.55,-71.61 65,-56 63.73,-43.16 60.46,-28.55 58.23,-19.55"/>
<polygon fill="midnightblue" stroke="midnightblue" points="57.51,-101.65 58.55,-112.19 64.31,-103.3 57.51,-101.65"/>
</g>
<!-- Node2&#45;&gt;Node3 -->
<g id="edge2" class="edge">
<title>Node2&#45;&gt;Node3</title>
<path fill="none" stroke="midnightblue" d="M37.34,-46.98C42.09,-37.82 47.66,-27.09 51.46,-19.75"/>
<polygon fill="midnightblue" stroke="midnightblue" points="34.12,-45.59 32.62,-56.08 40.33,-48.82 34.12,-45.59"/>
</g>
</g>
</svg>
