<?xml version="1.0" encoding="UTF-8" standalone="no"?>
<!DOCTYPE svg PUBLIC "-//W3C//DTD SVG 1.1//EN"
 "http://www.w3.org/Graphics/SVG/1.1/DTD/svg11.dtd">
<!-- Generated by graphviz version 2.43.0 (0)
 -->
<!-- Title: mon_tm_par Pages: 1 -->
<svg width="149pt" height="159pt"
 viewBox="0.00 0.00 149.00 159.00" xmlns="http://www.w3.org/2000/svg" xmlns:xlink="http://www.w3.org/1999/xlink">
<g id="graph0" class="graph" transform="scale(1 1) rotate(0) translate(4 155)">
<title>mon_tm_par</title>
<!-- Node1 -->
<g id="Node000001" class="node">
<title>Node1</title>
<g id="a_Node000001"><a xlink:title=" ">
<polygon fill="#999999" stroke="#666666" points="86.5,-19 8.5,-19 8.5,0 86.5,0 86.5,-19"/>
<text text-anchor="middle" x="47.5" y="-7" font-family="Helvetica,sans-Serif" font-size="10.00">mon_tm_par</text>
</a>
</g>
</g>
<!-- Node2 -->
<g id="Node000002" class="node">
<title>Node2</title>
<g id="a_Node000002"><a xlink:href="../../df/d6a/structforce__hmc__par.html" target="_top" xlink:title=" ">
<polygon fill="white" stroke="orangered" points="141,-85 52,-85 52,-66 141,-66 141,-85"/>
<text text-anchor="middle" x="96.5" y="-73" font-family="Helvetica,sans-Serif" font-size="10.00">force_hmc_par</text>
</a>
</g>
</g>
<!-- Node2&#45;&gt;Node1 -->
<g id="edge1_Node000001_Node000002" class="edge">
<title>Node2&#45;&gt;Node1</title>
<g id="a_edge1_Node000001_Node000002"><a xlink:title=" ">
<path fill="none" stroke="#9a32cd" stroke-dasharray="5,2" d="M83.69,-57.77C74.29,-45.49 61.89,-29.3 54.32,-19.41"/>
<polygon fill="#9a32cd" stroke="#9a32cd" points="81.03,-60.06 89.89,-65.87 86.59,-55.8 81.03,-60.06"/>
</a>
</g>
<text text-anchor="middle" x="86" y="-40" font-family="Helvetica,sans-Serif" font-size="10.00" fill="grey"> fpar</text>
</g>
<!-- Node3 -->
<g id="Node000003" class="node">
<title>Node3</title>
<g id="a_Node000003"><a xlink:href="../../d0/da8/structspinor__field.html" target="_top" xlink:title="Spinor field array containing SU(N_f) spinors in chosen fermion representation.">
<polygon fill="#fff0f0" stroke="red" points="73,-151 0,-151 0,-132 73,-132 73,-151"/>
<text text-anchor="middle" x="36.5" y="-139" font-family="Helvetica,sans-Serif" font-size="10.00">spinor_field</text>
</a>
</g>
</g>
<!-- Node3&#45;&gt;Node1 -->
<g id="edge3_Node000001_Node000003" class="edge">
<title>Node3&#45;&gt;Node1</title>
<g id="a_edge3_Node000001_Node000003"><a xlink:title=" ">
<path fill="none" stroke="#9a32cd" stroke-dasharray="5,2" d="M32.61,-121.63C30.06,-106.52 27.68,-84.82 30.5,-66 33.04,-49.06 39.7,-30.14 43.89,-19.35"/>
<polygon fill="#9a32cd" stroke="#9a32cd" points="29.22,-122.56 34.5,-131.74 36.1,-121.27 29.22,-122.56"/>
</a>
</g>
<text text-anchor="middle" x="37" y="-73" font-family="Helvetica,sans-Serif" font-size="10.00" fill="grey"> pf</text>
</g>
<!-- Node3&#45;&gt;Node2 -->
<g id="edge2_Node000002_Node000003" class="edge">
<title>Node3&#45;&gt;Node2</title>
<g id="a_edge2_Node000002_Node000003"><a xlink:title=" ">
<path fill="none" stroke="#9a32cd" stroke-dasharray="5,2" d="M51.52,-124.48C63.1,-112.12 78.7,-95.49 88.15,-85.41"/>
<polygon fill="#9a32cd" stroke="#9a32cd" points="48.88,-122.18 44.59,-131.87 53.98,-126.97 48.88,-122.18"/>
</a>
</g>
<text text-anchor="middle" x="76" y="-106" font-family="Helvetica,sans-Serif" font-size="10.00" fill="grey"> pf</text>
</g>
</g>
</svg>
