<?xml version="1.0" encoding="UTF-8" standalone="no"?>
<!DOCTYPE svg PUBLIC "-//W3C//DTD SVG 1.1//EN"
 "http://www.w3.org/Graphics/SVG/1.1/DTD/svg11.dtd">
<!-- Generated by graphviz version 2.43.0 (0)
 -->
<!-- Title: mon_tm_par Pages: 1 -->
<svg width="149pt" height="162pt"
 viewBox="0.00 0.00 149.00 162.00" xmlns="http://www.w3.org/2000/svg" xmlns:xlink="http://www.w3.org/1999/xlink">
<g id="graph0" class="graph" transform="scale(1 1) rotate(0) translate(4 158)">
<title>mon_tm_par</title>
<!-- Node1 -->
<g id="node1" class="node">
<title>Node1</title>
<g id="a_node1"><a xlink:title=" ">
<polygon fill="#bfbfbf" stroke="black" points="8.5,-0.5 8.5,-19.5 86.5,-19.5 86.5,-0.5 8.5,-0.5"/>
<text text-anchor="middle" x="47.5" y="-7.5" font-family="Helvetica,sans-Serif" font-size="10.00">mon_tm_par</text>
</a>
</g>
</g>
<!-- Node2 -->
<g id="node2" class="node">
<title>Node2</title>
<g id="a_node2"><a xlink:href="../../df/d6a/structforce__hmc__par.html" target="_top" xlink:title=" ">
<polygon fill="none" stroke="orangered" points="52,-67.5 52,-86.5 141,-86.5 141,-67.5 52,-67.5"/>
<text text-anchor="middle" x="96.5" y="-74.5" font-family="Helvetica,sans-Serif" font-size="10.00">force_hmc_par</text>
</a>
</g>
</g>
<!-- Node2&#45;&gt;Node1 -->
<g id="edge1" class="edge">
<title>Node2&#45;&gt;Node1</title>
<path fill="none" stroke="#9a32cd" stroke-dasharray="5,2" d="M83.61,-58.9C74.09,-46.27 61.52,-29.6 54,-19.63"/>
<polygon fill="#9a32cd" stroke="#9a32cd" points="81.08,-61.36 89.89,-67.23 86.67,-57.14 81.08,-61.36"/>
<text text-anchor="middle" x="86" y="-41" font-family="Helvetica,sans-Serif" font-size="10.00"> fpar</text>
</g>
<!-- Node3 -->
<g id="node3" class="node">
<title>Node3</title>
<g id="a_node3"><a xlink:href="../../d0/da8/structspinor__field.html" target="_top" xlink:title="Spinor field array containing SU(N_f) spinors in chosen fermion representation.">
<polygon fill="none" stroke="red" points="0,-134.5 0,-153.5 73,-153.5 73,-134.5 0,-134.5"/>
<text text-anchor="middle" x="36.5" y="-141.5" font-family="Helvetica,sans-Serif" font-size="10.00">spinor_field</text>
</a>
</g>
</g>
<!-- Node3&#45;&gt;Node1 -->
<g id="edge3" class="edge">
<title>Node3&#45;&gt;Node1</title>
<path fill="none" stroke="#9a32cd" stroke-dasharray="5,2" d="M32.66,-124.2C30.08,-108.77 27.62,-86.38 30.5,-67 33.07,-49.71 39.86,-30.38 44.04,-19.55"/>
<polygon fill="#9a32cd" stroke="#9a32cd" points="29.23,-124.87 34.49,-134.06 36.11,-123.59 29.23,-124.87"/>
<text text-anchor="middle" x="37" y="-74.5" font-family="Helvetica,sans-Serif" font-size="10.00"> pf</text>
</g>
<!-- Node3&#45;&gt;Node2 -->
<g id="edge2" class="edge">
<title>Node3&#45;&gt;Node2</title>
<path fill="none" stroke="#9a32cd" stroke-dasharray="5,2" d="M51.61,-126.63C63.34,-113.92 79.15,-96.8 88.54,-86.63"/>
<polygon fill="#9a32cd" stroke="#9a32cd" points="48.8,-124.51 44.59,-134.23 53.95,-129.26 48.8,-124.51"/>
<text text-anchor="middle" x="76" y="-108" font-family="Helvetica,sans-Serif" font-size="10.00"> pf</text>
</g>
</g>
</svg>
