<?xml version="1.0" encoding="UTF-8" standalone="no"?>
<!DOCTYPE svg PUBLIC "-//W3C//DTD SVG 1.1//EN"
 "http://www.w3.org/Graphics/SVG/1.1/DTD/svg11.dtd">
<!-- Generated by graphviz version 2.43.0 (0)
 -->
<!-- Title: global_gpu.h Pages: 1 -->
<svg width="233pt" height="84pt"
 viewBox="0.00 0.00 233.00 84.00" xmlns="http://www.w3.org/2000/svg" xmlns:xlink="http://www.w3.org/1999/xlink">
<g id="graph0" class="graph" transform="scale(1 1) rotate(0) translate(4 80)">
<title>global_gpu.h</title>
<!-- Node1 -->
<g id="node1" class="node">
<title>Node1</title>
<g id="a_node1"><a xlink:title="Global variables need to be declared once in the main program and then again as extern variables in t...">
<polygon fill="#bfbfbf" stroke="black" points="74,-56.5 74,-75.5 153,-75.5 153,-56.5 74,-56.5"/>
<text text-anchor="middle" x="113.5" y="-63.5" font-family="Helvetica,sans-Serif" font-size="10.00">global_gpu.h</text>
</a>
</g>
</g>
<!-- Node2 -->
<g id="node2" class="node">
<title>Node2</title>
<g id="a_node2"><a xlink:href="../../d4/d1d/core__utils_8h.html" target="_top" xlink:title="Macros to declare global variables.">
<polygon fill="none" stroke="black" points="0,-0.5 0,-19.5 73,-19.5 73,-0.5 0,-0.5"/>
<text text-anchor="middle" x="36.5" y="-7.5" font-family="Helvetica,sans-Serif" font-size="10.00">core_utils.h</text>
</a>
</g>
</g>
<!-- Node1&#45;&gt;Node2 -->
<g id="edge1" class="edge">
<title>Node1&#45;&gt;Node2</title>
<path fill="none" stroke="midnightblue" d="M101.13,-56.32C89.34,-48.06 71.37,-35.45 57.36,-25.63"/>
<polygon fill="midnightblue" stroke="midnightblue" points="59.04,-22.53 48.84,-19.65 55.02,-28.26 59.04,-22.53"/>
</g>
<!-- Node3 -->
<g id="node3" class="node">
<title>Node3</title>
<g id="a_node3"><a xlink:href="../../d3/d93/gpu_8h.html" target="_top" xlink:title="Basic gpu imports and structs. Include this in files that define GPU logic.">
<polygon fill="none" stroke="red" points="91.5,-0.5 91.5,-19.5 135.5,-19.5 135.5,-0.5 91.5,-0.5"/>
<text text-anchor="middle" x="113.5" y="-7.5" font-family="Helvetica,sans-Serif" font-size="10.00">gpu.h</text>
</a>
</g>
</g>
<!-- Node1&#45;&gt;Node3 -->
<g id="edge2" class="edge">
<title>Node1&#45;&gt;Node3</title>
<path fill="none" stroke="midnightblue" d="M113.5,-56.08C113.5,-49.01 113.5,-38.86 113.5,-29.99"/>
<polygon fill="midnightblue" stroke="midnightblue" points="117,-29.75 113.5,-19.75 110,-29.75 117,-29.75"/>
</g>
<!-- Node10 -->
<g id="node4" class="node">
<title>Node10</title>
<g id="a_node4"><a xlink:href="../../d4/d67/geometry_8h.html" target="_top" xlink:title="This file contains information on the geometry of the local lattice, block decomposed geometry,...">
<polygon fill="none" stroke="red" points="154,-0.5 154,-19.5 225,-19.5 225,-0.5 154,-0.5"/>
<text text-anchor="middle" x="189.5" y="-7.5" font-family="Helvetica,sans-Serif" font-size="10.00">geometry.h</text>
</a>
</g>
</g>
<!-- Node1&#45;&gt;Node10 -->
<g id="edge3" class="edge">
<title>Node1&#45;&gt;Node10</title>
<path fill="none" stroke="midnightblue" d="M125.71,-56.32C137.28,-48.11 154.88,-35.6 168.66,-25.81"/>
<polygon fill="midnightblue" stroke="midnightblue" points="170.94,-28.48 177.07,-19.83 166.89,-22.77 170.94,-28.48"/>
</g>
</g>
</svg>
