<?xml version="1.0" encoding="UTF-8" standalone="no"?>
<!DOCTYPE svg PUBLIC "-//W3C//DTD SVG 1.1//EN"
 "http://www.w3.org/Graphics/SVG/1.1/DTD/svg11.dtd">
<!-- Generated by graphviz version 2.43.0 (0)
 -->
<!-- Title: init_gpu.c Pages: 1 -->
<svg width="225pt" height="84pt"
 viewBox="0.00 0.00 225.00 84.00" xmlns="http://www.w3.org/2000/svg" xmlns:xlink="http://www.w3.org/1999/xlink">
<g id="graph0" class="graph" transform="scale(1 1) rotate(0) translate(4 80)">
<title>init_gpu.c</title>
<!-- Node1 -->
<g id="node1" class="node">
<title>Node1</title>
<g id="a_node1"><a xlink:title="Functions initialize the GPU for the simulation and print collective information on cluster drivers,...">
<polygon fill="#bfbfbf" stroke="black" points="94.5,-56.5 94.5,-75.5 158.5,-75.5 158.5,-56.5 94.5,-56.5"/>
<text text-anchor="middle" x="126.5" y="-63.5" font-family="Helvetica,sans-Serif" font-size="10.00">init_gpu.c</text>
</a>
</g>
</g>
<!-- Node2 -->
<g id="node2" class="node">
<title>Node2</title>
<g id="a_node2"><a xlink:href="../../d4/d67/geometry_8h.html" target="_top" xlink:title="This file contains information on the geometry of the local lattice, block decomposed geometry,...">
<polygon fill="none" stroke="red" points="0,-0.5 0,-19.5 71,-19.5 71,-0.5 0,-0.5"/>
<text text-anchor="middle" x="35.5" y="-7.5" font-family="Helvetica,sans-Serif" font-size="10.00">geometry.h</text>
</a>
</g>
</g>
<!-- Node1&#45;&gt;Node2 -->
<g id="edge1" class="edge">
<title>Node1&#45;&gt;Node2</title>
<path fill="none" stroke="midnightblue" d="M111.88,-56.32C97.55,-47.82 75.49,-34.73 58.75,-24.8"/>
<polygon fill="midnightblue" stroke="midnightblue" points="60.47,-21.75 50.08,-19.65 56.9,-27.77 60.47,-21.75"/>
</g>
<!-- Node48 -->
<g id="node3" class="node">
<title>Node48</title>
<g id="a_node3"><a xlink:href="../../d8/d1f/libhr__core_8h_source.html" target="_top" xlink:title=" ">
<polygon fill="none" stroke="red" points="89.5,-0.5 89.5,-19.5 163.5,-19.5 163.5,-0.5 89.5,-0.5"/>
<text text-anchor="middle" x="126.5" y="-7.5" font-family="Helvetica,sans-Serif" font-size="10.00">libhr_core.h</text>
</a>
</g>
</g>
<!-- Node1&#45;&gt;Node48 -->
<g id="edge2" class="edge">
<title>Node1&#45;&gt;Node48</title>
<path fill="none" stroke="midnightblue" d="M126.5,-56.08C126.5,-49.01 126.5,-38.86 126.5,-29.99"/>
<polygon fill="midnightblue" stroke="midnightblue" points="130,-29.75 126.5,-19.75 123,-29.75 130,-29.75"/>
</g>
<!-- Node60 -->
<g id="node4" class="node">
<title>Node60</title>
<g id="a_node4"><a xlink:href="../../dc/dac/io_8h_source.html" target="_top" xlink:title=" ">
<polygon fill="none" stroke="red" points="182,-0.5 182,-19.5 217,-19.5 217,-0.5 182,-0.5"/>
<text text-anchor="middle" x="199.5" y="-7.5" font-family="Helvetica,sans-Serif" font-size="10.00">io.h</text>
</a>
</g>
</g>
<!-- Node1&#45;&gt;Node60 -->
<g id="edge3" class="edge">
<title>Node1&#45;&gt;Node60</title>
<path fill="none" stroke="midnightblue" d="M138.23,-56.32C149.34,-48.11 166.24,-35.6 179.48,-25.81"/>
<polygon fill="midnightblue" stroke="midnightblue" points="181.6,-28.59 187.56,-19.83 177.44,-22.97 181.6,-28.59"/>
</g>
</g>
</svg>
