<?xml version="1.0" encoding="UTF-8" standalone="no"?>
<!DOCTYPE svg PUBLIC "-//W3C//DTD SVG 1.1//EN"
 "http://www.w3.org/Graphics/SVG/1.1/DTD/svg11.dtd">
<!-- Generated by graphviz version 2.43.0 (0)
 -->
<!-- Title: linear_algebra.h Pages: 1 -->
<!--zoomable 151 -->
<svg id="main" version="1.1" xmlns="http://www.w3.org/2000/svg" xmlns:xlink="http://www.w3.org/1999/xlink" xml:space="preserve" onload="init(evt)">
<style type="text/css"><![CDATA[
.edge:hover path { stroke: red; }
.edge:hover polygon { stroke: red; fill: red; }
]]></style>
<script type="text/javascript"><![CDATA[
var edges = document.getElementsByTagName('g');
if (edges && edges.length) {
  for (var i=0;i<edges.length;i++) {
    if (edges[i].id.substr(0,4)=='edge') {
      edges[i].setAttribute('class','edge');
    }
  }
}
]]></script>
        <defs>
                <circle id="rim" cx="0" cy="0" r="7"/>
                <circle id="rim2" cx="0" cy="0" r="3.5"/>
                <g id="zoomPlus">
                        <use xlink:href="#rim" fill="#404040">
                                <set attributeName="fill" to="#808080" begin="zoomplus.mouseover" end="zoomplus.mouseout"/>
                        </use>
                        <path d="M-4,0h8M0,-4v8" fill="none" stroke="white" stroke-width="1.5" pointer-events="none"/>
                </g>
                <g id="zoomMin">
                        <use xlink:href="#rim" fill="#404040">
                                <set attributeName="fill" to="#808080" begin="zoomminus.mouseover" end="zoomminus.mouseout"/>
                        </use>
                        <path d="M-4,0h8" fill="none" stroke="white" stroke-width="1.5" pointer-events="none"/>
                </g>
                <g id="dirArrow">
                        <path fill="none" stroke="white" stroke-width="1.5" d="M0,-3.0v7 M-2.5,-0.5L0,-3.0L2.5,-0.5"/>
                </g>
               <g id="resetDef">
                       <use xlink:href="#rim2" fill="#404040">
                               <set attributeName="fill" to="#808080" begin="reset.mouseover" end="reset.mouseout"/>
                       </use>
               </g>
        </defs>

<script type="text/javascript">
var viewWidth = 1056;
var viewHeight = 151;
var sectionId = 'dynsection-0';
</script>
<script xlink:href="../../svgpan.js"/>
<svg id="graph" class="graph">
<g id="viewport">
<title>linear_algebra.h</title>
<!-- Node1 -->
<g id="node1" class="node">
<title>Node1</title>
<g id="a_node1"><a xlink:title="Linear algebra operations on spinors both for CPU and with GPU.">
<polygon fill="#bfbfbf" stroke="black" points="384.5,-123.5 384.5,-142.5 479.5,-142.5 479.5,-123.5 384.5,-123.5"/>
<text text-anchor="middle" x="432" y="-130.5" font-family="Helvetica,sans-Serif" font-size="10.00">linear_algebra.h</text>
</a>
</g>
</g>
<!-- Node2 -->
<g id="node2" class="node">
<title>Node2</title>
<g id="a_node2"><a xlink:href="../../d8/d1f/libhr__core_8h_source.html" target="_top" xlink:title=" ">
<polygon fill="none" stroke="red" points="0,-62 0,-81 74,-81 74,-62 0,-62"/>
<text text-anchor="middle" x="37" y="-69" font-family="Helvetica,sans-Serif" font-size="10.00">libhr_core.h</text>
</a>
</g>
</g>
<!-- Node1&#45;&gt;Node2 -->
<g id="edge1" class="edge">
<title>Node1&#45;&gt;Node2</title>
<path fill="none" stroke="midnightblue" d="M384.33,-128C317.59,-121.89 192.7,-108.61 88,-87 83.52,-86.07 78.85,-84.96 74.25,-83.77"/>
<polygon fill="midnightblue" stroke="midnightblue" points="74.91,-80.32 64.34,-81.07 73.07,-87.08 74.91,-80.32"/>
</g>
<!-- Node55 -->
<g id="node3" class="node">
<title>Node55</title>
<g id="a_node3"><a xlink:href="../../d1/d74/hr__complex_8h.html" target="_top" xlink:title="Type definitions and macros for complex numbers.">
<polygon fill="none" stroke="red" points="27.5,-0.5 27.5,-19.5 110.5,-19.5 110.5,-0.5 27.5,-0.5"/>
<text text-anchor="middle" x="69" y="-7.5" font-family="Helvetica,sans-Serif" font-size="10.00">hr_complex.h</text>
</a>
</g>
</g>
<!-- Node1&#45;&gt;Node55 -->
<g id="edge3" class="edge">
<title>Node1&#45;&gt;Node55</title>
<path fill="none" stroke="midnightblue" d="M384.31,-129.75C308.34,-125.4 164,-113.79 121,-87 99.22,-73.43 84.31,-47 76.22,-29.17"/>
<polygon fill="midnightblue" stroke="midnightblue" points="79.38,-27.66 72.24,-19.83 72.94,-30.4 79.38,-27.66"/>
</g>
<!-- Node25 -->
<g id="node4" class="node">
<title>Node25</title>
<g id="a_node4"><a xlink:href="../../dd/d70/generics_8h_source.html" target="_top" xlink:title=" ">
<polygon fill="none" stroke="red" points="130,-62 130,-81 222,-81 222,-62 130,-62"/>
<text text-anchor="middle" x="176" y="-69" font-family="Helvetica,sans-Serif" font-size="10.00">Utils/generics.h</text>
</a>
</g>
</g>
<!-- Node1&#45;&gt;Node25 -->
<g id="edge4" class="edge">
<title>Node1&#45;&gt;Node25</title>
<path fill="none" stroke="midnightblue" d="M391.85,-123.48C351.21,-114.74 286.59,-100.55 231,-87 226.62,-85.93 222.05,-84.78 217.5,-83.62"/>
<polygon fill="midnightblue" stroke="midnightblue" points="218.21,-80.19 207.65,-81.06 216.45,-86.96 218.21,-80.19"/>
</g>
<!-- Node60 -->
<g id="node5" class="node">
<title>Node60</title>
<g id="a_node5"><a xlink:title=" ">
<polygon fill="none" stroke="#bfbfbf" points="240,-56.5 240,-86.5 356,-86.5 356,-56.5 240,-56.5"/>
<text text-anchor="start" x="248" y="-74.5" font-family="Helvetica,sans-Serif" font-size="10.00">TMPL/linear_algebra</text>
<text text-anchor="middle" x="298" y="-63.5" font-family="Helvetica,sans-Serif" font-size="10.00">_def.h.tmpl</text>
</a>
</g>
</g>
<!-- Node1&#45;&gt;Node60 -->
<g id="edge5" class="edge">
<title>Node1&#45;&gt;Node60</title>
<path fill="none" stroke="midnightblue" d="M412.8,-123.48C393.63,-114.96 363.58,-101.62 339.03,-90.72"/>
<polygon fill="midnightblue" stroke="midnightblue" points="340.14,-87.38 329.58,-86.52 337.3,-93.78 340.14,-87.38"/>
</g>
<!-- Node61 -->
<g id="node6" class="node">
<title>Node61</title>
<g id="a_node6"><a xlink:title=" ">
<polygon fill="none" stroke="#bfbfbf" points="374,-56.5 374,-86.5 490,-86.5 490,-56.5 374,-56.5"/>
<text text-anchor="start" x="382" y="-74.5" font-family="Helvetica,sans-Serif" font-size="10.00">TMPL/linear_algebra</text>
<text text-anchor="middle" x="432" y="-63.5" font-family="Helvetica,sans-Serif" font-size="10.00">_reduction.h.tmpl</text>
</a>
</g>
</g>
<!-- Node1&#45;&gt;Node61 -->
<g id="edge6" class="edge">
<title>Node1&#45;&gt;Node61</title>
<path fill="none" stroke="midnightblue" d="M432,-123.48C432,-116.47 432,-106.19 432,-96.7"/>
<polygon fill="midnightblue" stroke="midnightblue" points="435.5,-96.52 432,-86.52 428.5,-96.52 435.5,-96.52"/>
</g>
<!-- Node62 -->
<g id="node7" class="node">
<title>Node62</title>
<g id="a_node7"><a xlink:title=" ">
<polygon fill="none" stroke="#bfbfbf" points="508.5,-56.5 508.5,-86.5 645.5,-86.5 645.5,-56.5 508.5,-56.5"/>
<text text-anchor="start" x="516.5" y="-74.5" font-family="Helvetica,sans-Serif" font-size="10.00">TMPL/linear_algebra</text>
<text text-anchor="middle" x="577" y="-63.5" font-family="Helvetica,sans-Serif" font-size="10.00">_base_operations.h.tmpl</text>
</a>
</g>
</g>
<!-- Node1&#45;&gt;Node62 -->
<g id="edge7" class="edge">
<title>Node1&#45;&gt;Node62</title>
<path fill="none" stroke="midnightblue" d="M452.77,-123.48C473.7,-114.89 506.61,-101.38 533.31,-90.43"/>
<polygon fill="midnightblue" stroke="midnightblue" points="534.9,-93.56 542.83,-86.52 532.25,-87.08 534.9,-93.56"/>
</g>
<!-- Node63 -->
<g id="node8" class="node">
<title>Node63</title>
<g id="a_node8"><a xlink:title=" ">
<polygon fill="none" stroke="#bfbfbf" points="664,-56.5 664,-86.5 780,-86.5 780,-56.5 664,-56.5"/>
<text text-anchor="start" x="672" y="-74.5" font-family="Helvetica,sans-Serif" font-size="10.00">TMPL/linear_algebra</text>
<text text-anchor="middle" x="722" y="-63.5" font-family="Helvetica,sans-Serif" font-size="10.00">_lc.h.tmpl</text>
</a>
</g>
</g>
<!-- Node1&#45;&gt;Node63 -->
<g id="edge8" class="edge">
<title>Node1&#45;&gt;Node63</title>
<path fill="none" stroke="midnightblue" d="M475.2,-123.47C518.05,-114.97 585.84,-101.4 653.87,-87.22"/>
<polygon fill="midnightblue" stroke="midnightblue" points="654.83,-90.6 663.91,-85.12 653.4,-83.74 654.83,-90.6"/>
</g>
<!-- Node64 -->
<g id="node9" class="node">
<title>Node64</title>
<g id="a_node9"><a xlink:title=" ">
<polygon fill="none" stroke="#bfbfbf" points="798,-56.5 798,-86.5 914,-86.5 914,-56.5 798,-56.5"/>
<text text-anchor="start" x="806" y="-74.5" font-family="Helvetica,sans-Serif" font-size="10.00">TMPL/linear_algebra</text>
<text text-anchor="middle" x="856" y="-63.5" font-family="Helvetica,sans-Serif" font-size="10.00">_gamma.h.tmpl</text>
</a>
</g>
</g>
<!-- Node1&#45;&gt;Node64 -->
<g id="edge9" class="edge">
<title>Node1&#45;&gt;Node64</title>
<path fill="none" stroke="midnightblue" d="M479.55,-127.35C546.21,-120.53 671.43,-106.65 787.8,-87.11"/>
<polygon fill="midnightblue" stroke="midnightblue" points="788.68,-90.51 797.96,-85.39 787.51,-83.61 788.68,-90.51"/>
</g>
<!-- Node65 -->
<g id="node10" class="node">
<title>Node65</title>
<g id="a_node10"><a xlink:title=" ">
<polygon fill="none" stroke="#bfbfbf" points="932,-56.5 932,-86.5 1048,-86.5 1048,-56.5 932,-56.5"/>
<text text-anchor="start" x="940" y="-74.5" font-family="Helvetica,sans-Serif" font-size="10.00">TMPL/linear_algebra</text>
<text text-anchor="middle" x="990" y="-63.5" font-family="Helvetica,sans-Serif" font-size="10.00">_base.h.tmpl</text>
</a>
</g>
</g>
<!-- Node1&#45;&gt;Node65 -->
<g id="edge10" class="edge">
<title>Node1&#45;&gt;Node65</title>
<path fill="none" stroke="midnightblue" d="M479.63,-129.57C565.9,-124.74 753.87,-112.3 921.96,-87.03"/>
<polygon fill="midnightblue" stroke="midnightblue" points="922.62,-90.47 931.98,-85.51 921.56,-83.55 922.62,-90.47"/>
</g>
<!-- Node2&#45;&gt;Node55 -->
<g id="edge2" class="edge">
<title>Node2&#45;&gt;Node55</title>
<path fill="none" stroke="midnightblue" d="M41.58,-61.98C46.24,-53.32 53.59,-39.65 59.51,-28.65"/>
<polygon fill="midnightblue" stroke="midnightblue" points="62.77,-29.97 64.42,-19.51 56.6,-26.66 62.77,-29.97"/>
</g>
</g>
</svg>
        <g id="navigator" transform="translate(0 0)" fill="#404254">
                <rect fill="#f2f5e9" fill-opacity="0.5" stroke="#606060" stroke-width=".5" x="0" y="0" width="60" height="60"/>
                <use id="zoomplus" xlink:href="#zoomPlus" x="17" y="9" onmousedown="handleZoom(evt,'in')"/>
                <use id="zoomminus" xlink:href="#zoomMin" x="42" y="9" onmousedown="handleZoom(evt,'out')"/>
                <use id="reset" xlink:href="#resetDef" x="30" y="36" onmousedown="handleReset()"/>
                <g id="arrowUp" xlink:href="#dirArrow" transform="translate(30 24)" onmousedown="handlePan(0,-1)">
                  <use xlink:href="#rim" fill="#404040">
                        <set attributeName="fill" to="#808080" begin="arrowUp.mouseover" end="arrowUp.mouseout"/>
                  </use>
                  <path fill="none" stroke="white" stroke-width="1.5" d="M0,-3.0v7 M-2.5,-0.5L0,-3.0L2.5,-0.5"/>
                </g>
                <g id="arrowRight" xlink:href="#dirArrow" transform="rotate(90) translate(36 -43)" onmousedown="handlePan(1,0)">
                  <use xlink:href="#rim" fill="#404040">
                        <set attributeName="fill" to="#808080" begin="arrowRight.mouseover" end="arrowRight.mouseout"/>
                  </use>
                  <path fill="none" stroke="white" stroke-width="1.5" d="M0,-3.0v7 M-2.5,-0.5L0,-3.0L2.5,-0.5"/>
                </g>
                <g id="arrowDown" xlink:href="#dirArrow" transform="rotate(180) translate(-30 -48)" onmousedown="handlePan(0,1)">
                  <use xlink:href="#rim" fill="#404040">
                        <set attributeName="fill" to="#808080" begin="arrowDown.mouseover" end="arrowDown.mouseout"/>
                  </use>
                  <path fill="none" stroke="white" stroke-width="1.5" d="M0,-3.0v7 M-2.5,-0.5L0,-3.0L2.5,-0.5"/>
                </g>
                <g id="arrowLeft" xlink:href="#dirArrow" transform="rotate(270) translate(-36 17)" onmousedown="handlePan(-1,0)">
                  <use xlink:href="#rim" fill="#404040">
                        <set attributeName="fill" to="#808080" begin="arrowLeft.mouseover" end="arrowLeft.mouseout"/>
                  </use>
                  <path fill="none" stroke="white" stroke-width="1.5" d="M0,-3.0v7 M-2.5,-0.5L0,-3.0L2.5,-0.5"/>
                </g>
        </g>
        <svg viewBox="0 0 15 15" width="100%" height="30px" preserveAspectRatio="xMaxYMin meet">
         <g id="arrow_out" transform="scale(0.3 0.3)">
          <a xlink:href="linear__algebra_8h__incl_org.svg" target="_base">
           <rect id="button" ry="5" rx="5" y="6" x="6" height="38" width="38"
                fill="#f2f5e9" fill-opacity="0.5" stroke="#606060" stroke-width="1.0"/>
           <path id="arrow"
             d="M 11.500037,31.436501 C 11.940474,20.09759 22.043105,11.32322 32.158766,21.979434 L 37.068811,17.246167 C 37.068811,17.246167 37.088388,32 37.088388,32 L 22.160133,31.978069 C 22.160133,31.978069 26.997745,27.140456 26.997745,27.140456 C 18.528582,18.264221 13.291696,25.230495 11.500037,31.436501 z"
             style="fill:#404040;"/>
          </a>
         </g>
        </svg>
</svg>
