<?xml version="1.0" encoding="UTF-8" standalone="no"?>
<!DOCTYPE svg PUBLIC "-//W3C//DTD SVG 1.1//EN"
 "http://www.w3.org/Graphics/SVG/1.1/DTD/svg11.dtd">
<!-- Generated by graphviz version 2.43.0 (0)
 -->
<!-- Title: spin_matrix.h Pages: 1 -->
<svg width="240pt" height="140pt"
 viewBox="0.00 0.00 239.50 140.00" xmlns="http://www.w3.org/2000/svg" xmlns:xlink="http://www.w3.org/1999/xlink">
<g id="graph0" class="graph" transform="scale(1 1) rotate(0) translate(4 136)">
<title>spin_matrix.h</title>
<!-- Node1 -->
<g id="node1" class="node">
<title>Node1</title>
<g id="a_node1"><a xlink:title="Type definitions and macros for spin_matrix.">
<polygon fill="#bfbfbf" stroke="black" points="64,-112.5 64,-131.5 147,-131.5 147,-112.5 64,-112.5"/>
<text text-anchor="middle" x="105.5" y="-119.5" font-family="Helvetica,sans-Serif" font-size="10.00">spin_matrix.h</text>
</a>
</g>
</g>
<!-- Node2 -->
<g id="node2" class="node">
<title>Node2</title>
<g id="a_node2"><a xlink:title=" ">
<polygon fill="none" stroke="#bfbfbf" points="0,-56.5 0,-75.5 77,-75.5 77,-56.5 0,-56.5"/>
<text text-anchor="middle" x="38.5" y="-63.5" font-family="Helvetica,sans-Serif" font-size="10.00">suN_types.h</text>
</a>
</g>
</g>
<!-- Node1&#45;&gt;Node2 -->
<g id="edge1" class="edge">
<title>Node1&#45;&gt;Node2</title>
<path fill="none" stroke="midnightblue" d="M94.74,-112.32C84.73,-104.26 69.61,-92.08 57.57,-82.37"/>
<polygon fill="midnightblue" stroke="midnightblue" points="59.44,-79.38 49.46,-75.83 55.05,-84.83 59.44,-79.38"/>
</g>
<!-- Node3 -->
<g id="node3" class="node">
<title>Node3</title>
<g id="a_node3"><a xlink:title=" ">
<polygon fill="none" stroke="#bfbfbf" points="121.5,-0.5 121.5,-19.5 165.5,-19.5 165.5,-0.5 121.5,-0.5"/>
<text text-anchor="middle" x="143.5" y="-7.5" font-family="Helvetica,sans-Serif" font-size="10.00">suN.h</text>
</a>
</g>
</g>
<!-- Node1&#45;&gt;Node3 -->
<g id="edge2" class="edge">
<title>Node1&#45;&gt;Node3</title>
<path fill="none" stroke="midnightblue" d="M107.65,-112.49C110.89,-99.97 117.4,-75.94 124.5,-56 127.74,-46.9 131.86,-36.99 135.43,-28.79"/>
<polygon fill="midnightblue" stroke="midnightblue" points="138.69,-30.07 139.56,-19.51 132.3,-27.22 138.69,-30.07"/>
</g>
<!-- Node4 -->
<g id="node4" class="node">
<title>Node4</title>
<g id="a_node4"><a xlink:href="../../d8/d00/gamma__spinor_8h.html" target="_top" xlink:title="Macros for gamma x spinor.">
<polygon fill="none" stroke="black" points="133.5,-56.5 133.5,-75.5 231.5,-75.5 231.5,-56.5 133.5,-56.5"/>
<text text-anchor="middle" x="182.5" y="-63.5" font-family="Helvetica,sans-Serif" font-size="10.00">gamma_spinor.h</text>
</a>
</g>
</g>
<!-- Node1&#45;&gt;Node4 -->
<g id="edge3" class="edge">
<title>Node1&#45;&gt;Node4</title>
<path fill="none" stroke="midnightblue" d="M117.87,-112.32C129.66,-104.06 147.63,-91.45 161.64,-81.63"/>
<polygon fill="midnightblue" stroke="midnightblue" points="163.98,-84.26 170.16,-75.65 159.96,-78.53 163.98,-84.26"/>
</g>
<!-- Node4&#45;&gt;Node3 -->
<g id="edge4" class="edge">
<title>Node4&#45;&gt;Node3</title>
<path fill="none" stroke="midnightblue" d="M176.06,-56.08C170.55,-48.46 162.47,-37.26 155.74,-27.94"/>
<polygon fill="midnightblue" stroke="midnightblue" points="158.51,-25.81 149.82,-19.75 152.84,-29.91 158.51,-25.81"/>
</g>
</g>
</svg>
