<?xml version="1.0" encoding="UTF-8" standalone="no"?>
<!DOCTYPE svg PUBLIC "-//W3C//DTD SVG 1.1//EN"
 "http://www.w3.org/Graphics/SVG/1.1/DTD/svg11.dtd">
<!-- Generated by graphviz version 2.43.0 (0)
 -->
<!-- Title: hr_complex.h Pages: 1 -->
<svg width="734pt" height="140pt"
 viewBox="0.00 0.00 734.00 140.00" xmlns="http://www.w3.org/2000/svg" xmlns:xlink="http://www.w3.org/1999/xlink">
<g id="graph0" class="graph" transform="scale(1 1) rotate(0) translate(4 136)">
<title>hr_complex.h</title>
<!-- Node1 -->
<g id="node1" class="node">
<title>Node1</title>
<g id="a_node1"><a xlink:title="Type definitions and macros for complex numbers.">
<polygon fill="#bfbfbf" stroke="black" points="327,-112.5 327,-131.5 410,-131.5 410,-112.5 327,-112.5"/>
<text text-anchor="middle" x="368.5" y="-119.5" font-family="Helvetica,sans-Serif" font-size="10.00">hr_complex.h</text>
</a>
</g>
</g>
<!-- Node2 -->
<g id="node2" class="node">
<title>Node2</title>
<g id="a_node2"><a xlink:href="../../d3/d99/avr__plaquette_8h.html" target="_top" xlink:title="Plaquette evaluation functions.">
<polygon fill="none" stroke="red" points="0,-56.5 0,-75.5 93,-75.5 93,-56.5 0,-56.5"/>
<text text-anchor="middle" x="46.5" y="-63.5" font-family="Helvetica,sans-Serif" font-size="10.00">avr_plaquette.h</text>
</a>
</g>
</g>
<!-- Node1&#45;&gt;Node2 -->
<g id="edge1" class="edge">
<title>Node1&#45;&gt;Node2</title>
<path fill="none" stroke="midnightblue" d="M316.81,-112.33C255.04,-101.97 152.6,-84.79 93.15,-74.82"/>
<polygon fill="midnightblue" stroke="midnightblue" points="316.29,-115.79 326.73,-114 317.45,-108.89 316.29,-115.79"/>
</g>
<!-- Node7 -->
<g id="node3" class="node">
<title>Node7</title>
<g id="a_node3"><a xlink:href="../../d6/d08/global__sum_8h.html" target="_top" xlink:title="Functions for global reduction operations across nodes.">
<polygon fill="none" stroke="red" points="111.5,-56.5 111.5,-75.5 193.5,-75.5 193.5,-56.5 111.5,-56.5"/>
<text text-anchor="middle" x="152.5" y="-63.5" font-family="Helvetica,sans-Serif" font-size="10.00">global_sum.h</text>
</a>
</g>
</g>
<!-- Node1&#45;&gt;Node7 -->
<g id="edge2" class="edge">
<title>Node1&#45;&gt;Node7</title>
<path fill="none" stroke="midnightblue" d="M324.34,-109.96C283.54,-99.76 223.79,-84.82 186.57,-75.52"/>
<polygon fill="midnightblue" stroke="midnightblue" points="323.72,-113.41 334.27,-112.44 325.42,-106.62 323.72,-113.41"/>
</g>
<!-- Node10 -->
<g id="node4" class="node">
<title>Node10</title>
<g id="a_node4"><a xlink:href="../../db/d97/glueballs_8h_source.html" target="_top" xlink:title=" ">
<polygon fill="none" stroke="red" points="211.5,-56.5 211.5,-75.5 281.5,-75.5 281.5,-56.5 211.5,-56.5"/>
<text text-anchor="middle" x="246.5" y="-63.5" font-family="Helvetica,sans-Serif" font-size="10.00">glueballs.h</text>
</a>
</g>
</g>
<!-- Node1&#45;&gt;Node10 -->
<g id="edge3" class="edge">
<title>Node1&#45;&gt;Node10</title>
<path fill="none" stroke="midnightblue" d="M339.96,-108.37C317.11,-98.26 285.69,-84.35 265.74,-75.52"/>
<polygon fill="midnightblue" stroke="midnightblue" points="338.61,-111.6 349.17,-112.44 341.44,-105.2 338.61,-111.6"/>
</g>
<!-- Node13 -->
<g id="node5" class="node">
<title>Node13</title>
<g id="a_node5"><a xlink:href="../../d8/d1f/libhr__core_8h_source.html" target="_top" xlink:title=" ">
<polygon fill="none" stroke="red" points="299.5,-56.5 299.5,-75.5 373.5,-75.5 373.5,-56.5 299.5,-56.5"/>
<text text-anchor="middle" x="336.5" y="-63.5" font-family="Helvetica,sans-Serif" font-size="10.00">libhr_core.h</text>
</a>
</g>
</g>
<!-- Node1&#45;&gt;Node13 -->
<g id="edge4" class="edge">
<title>Node1&#45;&gt;Node13</title>
<path fill="none" stroke="midnightblue" d="M358,-103.27C352.53,-94.05 346.08,-83.17 341.69,-75.75"/>
<polygon fill="midnightblue" stroke="midnightblue" points="355.11,-105.26 363.22,-112.08 361.13,-101.7 355.11,-105.26"/>
</g>
<!-- Node25 -->
<g id="node6" class="node">
<title>Node25</title>
<g id="a_node6"><a xlink:href="../../dc/d9c/linear__algebra_8h.html" target="_top" xlink:title="Linear algebra operations on spinors both for CPU and with GPU.">
<polygon fill="none" stroke="red" points="321,-0.5 321,-19.5 416,-19.5 416,-0.5 321,-0.5"/>
<text text-anchor="middle" x="368.5" y="-7.5" font-family="Helvetica,sans-Serif" font-size="10.00">linear_algebra.h</text>
</a>
</g>
</g>
<!-- Node1&#45;&gt;Node25 -->
<g id="edge6" class="edge">
<title>Node1&#45;&gt;Node25</title>
<path fill="none" stroke="midnightblue" d="M375.55,-102.74C378.31,-94.67 381.13,-85 382.5,-76 385.59,-55.69 377.61,-32.2 372.47,-19.77"/>
<polygon fill="midnightblue" stroke="midnightblue" points="372.23,-101.63 372.1,-112.22 378.81,-104.02 372.23,-101.63"/>
</g>
<!-- Node31 -->
<g id="node7" class="node">
<title>Node31</title>
<g id="a_node7"><a xlink:href="../../d3/d6f/linear__solvers_8h_source.html" target="_top" xlink:title=" ">
<polygon fill="none" stroke="red" points="429.5,-56.5 429.5,-75.5 523.5,-75.5 523.5,-56.5 429.5,-56.5"/>
<text text-anchor="middle" x="476.5" y="-63.5" font-family="Helvetica,sans-Serif" font-size="10.00">linear_solvers.h</text>
</a>
</g>
</g>
<!-- Node1&#45;&gt;Node31 -->
<g id="edge7" class="edge">
<title>Node1&#45;&gt;Node31</title>
<path fill="none" stroke="midnightblue" d="M395.05,-107.73C415.05,-97.73 441.89,-84.31 459.19,-75.65"/>
<polygon fill="midnightblue" stroke="midnightblue" points="393.23,-104.72 385.85,-112.32 396.36,-110.98 393.23,-104.72"/>
</g>
<!-- Node44 -->
<g id="node8" class="node">
<title>Node44</title>
<g id="a_node8"><a xlink:href="../../d0/df3/trunc__hairpin_8h_source.html" target="_top" xlink:title=" ">
<polygon fill="none" stroke="red" points="542,-56.5 542,-75.5 631,-75.5 631,-56.5 542,-56.5"/>
<text text-anchor="middle" x="586.5" y="-63.5" font-family="Helvetica,sans-Serif" font-size="10.00">trunc_hairpin.h</text>
</a>
</g>
</g>
<!-- Node1&#45;&gt;Node44 -->
<g id="edge8" class="edge">
<title>Node1&#45;&gt;Node44</title>
<path fill="none" stroke="midnightblue" d="M412.81,-110.02C453.99,-99.82 514.47,-84.84 552.12,-75.52"/>
<polygon fill="midnightblue" stroke="midnightblue" points="411.91,-106.64 403.04,-112.44 413.59,-113.44 411.91,-106.64"/>
</g>
<!-- Node45 -->
<g id="node9" class="node">
<title>Node45</title>
<g id="a_node9"><a xlink:href="../../d3/df8/wilsonflow_8h_source.html" target="_top" xlink:title=" ">
<polygon fill="none" stroke="red" points="649,-56.5 649,-75.5 726,-75.5 726,-56.5 649,-56.5"/>
<text text-anchor="middle" x="687.5" y="-63.5" font-family="Helvetica,sans-Serif" font-size="10.00">wilsonflow.h</text>
</a>
</g>
</g>
<!-- Node1&#45;&gt;Node45 -->
<g id="edge9" class="edge">
<title>Node1&#45;&gt;Node45</title>
<path fill="none" stroke="midnightblue" d="M420.18,-112.85C474.94,-104.12 563.92,-89.66 640.5,-76 643.2,-75.52 645.98,-75.01 648.79,-74.49"/>
<polygon fill="midnightblue" stroke="midnightblue" points="419.35,-109.44 410.03,-114.46 420.46,-116.35 419.35,-109.44"/>
</g>
<!-- Node13&#45;&gt;Node25 -->
<g id="edge5" class="edge">
<title>Node13&#45;&gt;Node25</title>
<path fill="none" stroke="midnightblue" d="M347,-47.27C352.47,-38.05 358.92,-27.17 363.31,-19.75"/>
<polygon fill="midnightblue" stroke="midnightblue" points="343.87,-45.7 341.78,-56.08 349.89,-49.26 343.87,-45.7"/>
</g>
</g>
</svg>
