<?xml version="1.0" encoding="UTF-8" standalone="no"?>
<!DOCTYPE svg PUBLIC "-//W3C//DTD SVG 1.1//EN"
 "http://www.w3.org/Graphics/SVG/1.1/DTD/svg11.dtd">
<!-- Generated by graphviz version 2.43.0 (0)
 -->
<!-- Title: communication_info Pages: 1 -->
<svg width="161pt" height="108pt"
 viewBox="0.00 0.00 160.50 108.00" xmlns="http://www.w3.org/2000/svg" xmlns:xlink="http://www.w3.org/1999/xlink">
<g id="graph0" class="graph" transform="scale(1 1) rotate(0) translate(4 104)">
<title>communication_info</title>
<!-- Node1 -->
<g id="node1" class="node">
<title>Node1</title>
<g id="a_node1"><a xlink:title=" ">
<polygon fill="#bfbfbf" stroke="black" points="0,-0.5 0,-19.5 116,-19.5 116,-0.5 0,-0.5"/>
<text text-anchor="middle" x="58" y="-7.5" font-family="Helvetica,sans-Serif" font-size="10.00">communication_info</text>
</a>
</g>
</g>
<!-- Node2 -->
<g id="node2" class="node">
<title>Node2</title>
<g id="a_node2"><a xlink:href="../../de/d9d/structblock__info.html" target="_top" xlink:title=" ">
<polygon fill="none" stroke="orangered" points="24.5,-79.5 24.5,-98.5 91.5,-98.5 91.5,-79.5 24.5,-79.5"/>
<text text-anchor="middle" x="58" y="-86.5" font-family="Helvetica,sans-Serif" font-size="10.00">block_info</text>
</a>
</g>
</g>
<!-- Node2&#45;&gt;Node1 -->
<g id="edge1" class="edge">
<title>Node2&#45;&gt;Node1</title>
<path fill="none" stroke="#9a32cd" stroke-dasharray="5,2" d="M58,-69.31C58,-53.59 58,-31.81 58,-19.81"/>
<polygon fill="#9a32cd" stroke="#9a32cd" points="54.5,-69.47 58,-79.47 61.5,-69.47 54.5,-69.47"/>
<text text-anchor="middle" x="71.5" y="-52" font-family="Helvetica,sans-Serif" font-size="10.00"> from</text>
<text text-anchor="middle" x="71.5" y="-41" font-family="Helvetica,sans-Serif" font-size="10.00">to</text>
</g>
<!-- Node2&#45;&gt;Node2 -->
<g id="edge2" class="edge">
<title>Node2&#45;&gt;Node2</title>
<path fill="none" stroke="#9a32cd" stroke-dasharray="5,2" d="M101.72,-95.27C106.45,-94.07 109.5,-91.98 109.5,-89 109.5,-84.23 101.7,-81.74 91.68,-81.52"/>
<polygon fill="#9a32cd" stroke="#9a32cd" points="101.19,-91.81 91.68,-96.48 102.03,-98.76 101.19,-91.81"/>
<text text-anchor="middle" x="131" y="-92" font-family="Helvetica,sans-Serif" font-size="10.00"> receiver</text>
<text text-anchor="middle" x="131" y="-81" font-family="Helvetica,sans-Serif" font-size="10.00">senders</text>
</g>
</g>
</svg>
