<?xml version="1.0" encoding="UTF-8" standalone="no"?>
<!DOCTYPE svg PUBLIC "-//W3C//DTD SVG 1.1//EN"
 "http://www.w3.org/Graphics/SVG/1.1/DTD/svg11.dtd">
<!-- Generated by graphviz version 2.43.0 (0)
 -->
<!-- Title: box_t Pages: 1 -->
<svg width="116pt" height="97pt"
 viewBox="0.00 0.00 116.00 97.00" xmlns="http://www.w3.org/2000/svg" xmlns:xlink="http://www.w3.org/1999/xlink">
<g id="graph0" class="graph" transform="scale(1 1) rotate(0) translate(4 93)">
<title>box_t</title>
<!-- Node1 -->
<g id="node1" class="node">
<title>Node1</title>
<g id="a_node1"><a xlink:title=" ">
<polygon fill="#bfbfbf" stroke="black" points="3,-1.5 3,-20.5 47,-20.5 47,-1.5 3,-1.5"/>
<text text-anchor="middle" x="25" y="-8.5" font-family="Helvetica,sans-Serif" font-size="10.00">box_t</text>
</a>
</g>
</g>
<!-- Node1&#45;&gt;Node1 -->
<g id="edge2" class="edge">
<title>Node1&#45;&gt;Node1</title>
<path fill="none" stroke="#9a32cd" stroke-dasharray="5,2" d="M57.4,-16.71C61.95,-15.78 65,-13.87 65,-11 65,-6.29 56.8,-4.19 47.21,-4.7"/>
<polygon fill="#9a32cd" stroke="#9a32cd" points="56.99,-13.22 47.21,-17.3 57.4,-20.21 56.99,-13.22"/>
<text text-anchor="middle" x="86.5" y="-14" font-family="Helvetica,sans-Serif" font-size="10.00"> next</text>
<text text-anchor="middle" x="86.5" y="-3" font-family="Helvetica,sans-Serif" font-size="10.00">sendBox</text>
</g>
<!-- Node2 -->
<g id="node2" class="node">
<title>Node2</title>
<g id="a_node2"><a xlink:href="../../d5/dd2/structcoord4.html" target="_top" xlink:title=" ">
<polygon fill="none" stroke="#bfbfbf" points="0,-69.5 0,-88.5 50,-88.5 50,-69.5 0,-69.5"/>
<text text-anchor="middle" x="25" y="-76.5" font-family="Helvetica,sans-Serif" font-size="10.00">coord4</text>
</a>
</g>
</g>
<!-- Node2&#45;&gt;Node1 -->
<g id="edge1" class="edge">
<title>Node2&#45;&gt;Node1</title>
<path fill="none" stroke="#9a32cd" stroke-dasharray="5,2" d="M25,-59.04C25,-46.47 25,-30.56 25,-20.84"/>
<polygon fill="#9a32cd" stroke="#9a32cd" points="21.5,-59.37 25,-69.37 28.5,-59.37 21.5,-59.37"/>
<text text-anchor="middle" x="42" y="-43" font-family="Helvetica,sans-Serif" font-size="10.00"> icoord</text>
</g>
</g>
</svg>
