<?xml version="1.0" encoding="UTF-8" standalone="no"?>
<!DOCTYPE svg PUBLIC "-//W3C//DTD SVG 1.1//EN"
 "http://www.w3.org/Graphics/SVG/1.1/DTD/svg11.dtd">
<!-- Generated by graphviz version 2.43.0 (0)
 -->
<!-- Title: global_sum.h Pages: 1 -->
<svg width="192pt" height="84pt"
 viewBox="0.00 0.00 191.50 84.00" xmlns="http://www.w3.org/2000/svg" xmlns:xlink="http://www.w3.org/1999/xlink">
<g id="graph0" class="graph" transform="scale(1 1) rotate(0) translate(4 80)">
<title>global_sum.h</title>
<!-- Node1 -->
<g id="node1" class="node">
<title>Node1</title>
<g id="a_node1"><a xlink:title="Functions for global reduction operations across nodes.">
<polygon fill="#bfbfbf" stroke="black" points="50.5,-56.5 50.5,-75.5 132.5,-75.5 132.5,-56.5 50.5,-56.5"/>
<text text-anchor="middle" x="91.5" y="-63.5" font-family="Helvetica,sans-Serif" font-size="10.00">global_sum.h</text>
</a>
</g>
</g>
<!-- Node2 -->
<g id="node2" class="node">
<title>Node2</title>
<g id="a_node2"><a xlink:href="../../d1/d74/hr__complex_8h.html" target="_top" xlink:title="Type definitions and macros for complex numbers.">
<polygon fill="none" stroke="red" points="0,-0.5 0,-19.5 83,-19.5 83,-0.5 0,-0.5"/>
<text text-anchor="middle" x="41.5" y="-7.5" font-family="Helvetica,sans-Serif" font-size="10.00">hr_complex.h</text>
</a>
</g>
</g>
<!-- Node1&#45;&gt;Node2 -->
<g id="edge1" class="edge">
<title>Node1&#45;&gt;Node2</title>
<path fill="none" stroke="midnightblue" d="M83.24,-56.08C76.04,-48.3 65.39,-36.8 56.65,-27.37"/>
<polygon fill="midnightblue" stroke="midnightblue" points="58.97,-24.71 49.6,-19.75 53.83,-29.47 58.97,-24.71"/>
</g>
<!-- Node5 -->
<g id="node3" class="node">
<title>Node5</title>
<g id="a_node3"><a xlink:href="../../d3/ded/spinor__field_8h.html" target="_top" xlink:title="The elementary site structures defined in suN.h are used in this file to define field structures that...">
<polygon fill="none" stroke="red" points="101.5,-0.5 101.5,-19.5 183.5,-19.5 183.5,-0.5 101.5,-0.5"/>
<text text-anchor="middle" x="142.5" y="-7.5" font-family="Helvetica,sans-Serif" font-size="10.00">spinor_field.h</text>
</a>
</g>
</g>
<!-- Node1&#45;&gt;Node5 -->
<g id="edge2" class="edge">
<title>Node1&#45;&gt;Node5</title>
<path fill="none" stroke="midnightblue" d="M99.92,-56.08C107.35,-48.22 118.35,-36.57 127.31,-27.08"/>
<polygon fill="midnightblue" stroke="midnightblue" points="129.91,-29.42 134.24,-19.75 124.82,-24.62 129.91,-29.42"/>
</g>
</g>
</svg>
