<?xml version="1.0" encoding="UTF-8" standalone="no"?>
<!DOCTYPE svg PUBLIC "-//W3C//DTD SVG 1.1//EN"
 "http://www.w3.org/Graphics/SVG/1.1/DTD/svg11.dtd">
<!-- Generated by graphviz version 2.43.0 (0)
 -->
<!-- Title: spinor_field.h Pages: 1 -->
<svg width="514pt" height="84pt"
 viewBox="0.00 0.00 513.50 84.00" xmlns="http://www.w3.org/2000/svg" xmlns:xlink="http://www.w3.org/1999/xlink">
<g id="graph0" class="graph" transform="scale(1 1) rotate(0) translate(4 80)">
<title>spinor_field.h</title>
<!-- Node1 -->
<g id="node1" class="node">
<title>Node1</title>
<g id="a_node1"><a xlink:title="The elementary site structures defined in suN.h are used in this file to define field structures that...">
<polygon fill="#bfbfbf" stroke="black" points="237,-56.5 237,-75.5 319,-75.5 319,-56.5 237,-56.5"/>
<text text-anchor="middle" x="278" y="-63.5" font-family="Helvetica,sans-Serif" font-size="10.00">spinor_field.h</text>
</a>
</g>
</g>
<!-- Node2 -->
<g id="node2" class="node">
<title>Node2</title>
<g id="a_node2"><a xlink:href="../../dc/d56/geometry__descriptor_8h.html" target="_top" xlink:title="Geometry descriptor struct, that contains all necessary information for multi&#45;node/ multi&#45;GPU calcula...">
<polygon fill="none" stroke="red" points="0,-0.5 0,-19.5 178,-19.5 178,-0.5 0,-0.5"/>
<text text-anchor="middle" x="89" y="-7.5" font-family="Helvetica,sans-Serif" font-size="10.00">Geometry/geometry_descriptor.h</text>
</a>
</g>
</g>
<!-- Node1&#45;&gt;Node2 -->
<g id="edge1" class="edge">
<title>Node1&#45;&gt;Node2</title>
<path fill="none" stroke="midnightblue" d="M248.05,-56.44C215.84,-47.24 164.47,-32.56 128.86,-22.39"/>
<polygon fill="midnightblue" stroke="midnightblue" points="129.38,-18.9 118.81,-19.52 127.46,-25.63 129.38,-18.9"/>
</g>
<!-- Node4 -->
<g id="node3" class="node">
<title>Node4</title>
<g id="a_node3"><a xlink:title=" ">
<polygon fill="none" stroke="#bfbfbf" points="196.5,-0.5 196.5,-19.5 273.5,-19.5 273.5,-0.5 196.5,-0.5"/>
<text text-anchor="middle" x="235" y="-7.5" font-family="Helvetica,sans-Serif" font-size="10.00">suN_types.h</text>
</a>
</g>
</g>
<!-- Node1&#45;&gt;Node4 -->
<g id="edge2" class="edge">
<title>Node1&#45;&gt;Node4</title>
<path fill="none" stroke="midnightblue" d="M270.9,-56.08C264.76,-48.38 255.73,-37.03 248.26,-27.65"/>
<polygon fill="midnightblue" stroke="midnightblue" points="250.94,-25.39 241.97,-19.75 245.46,-29.75 250.94,-25.39"/>
</g>
<!-- Node5 -->
<g id="node4" class="node">
<title>Node5</title>
<g id="a_node4"><a xlink:href="../../d4/d1a/hr__mpi_8h.html" target="_top" xlink:title="Setup for mpi.">
<polygon fill="none" stroke="red" points="291.5,-0.5 291.5,-19.5 350.5,-19.5 350.5,-0.5 291.5,-0.5"/>
<text text-anchor="middle" x="321" y="-7.5" font-family="Helvetica,sans-Serif" font-size="10.00">hr_mpi.h</text>
</a>
</g>
</g>
<!-- Node1&#45;&gt;Node5 -->
<g id="edge3" class="edge">
<title>Node1&#45;&gt;Node5</title>
<path fill="none" stroke="midnightblue" d="M285.1,-56.08C291.24,-48.38 300.27,-37.03 307.74,-27.65"/>
<polygon fill="midnightblue" stroke="midnightblue" points="310.54,-29.75 314.03,-19.75 305.06,-25.39 310.54,-29.75"/>
</g>
<!-- Node7 -->
<g id="node5" class="node">
<title>Node7</title>
<g id="a_node5"><a xlink:title=" ">
<polygon fill="none" stroke="#bfbfbf" points="368.5,-0.5 368.5,-19.5 505.5,-19.5 505.5,-0.5 368.5,-0.5"/>
<text text-anchor="middle" x="437" y="-7.5" font-family="Helvetica,sans-Serif" font-size="10.00">TMPL/spinor_field.h.tmpl</text>
</a>
</g>
</g>
<!-- Node1&#45;&gt;Node7 -->
<g id="edge4" class="edge">
<title>Node1&#45;&gt;Node7</title>
<path fill="none" stroke="midnightblue" d="M303.19,-56.44C329.94,-47.36 372.4,-32.94 402.31,-22.78"/>
<polygon fill="midnightblue" stroke="midnightblue" points="403.58,-26.05 411.92,-19.52 401.33,-19.42 403.58,-26.05"/>
</g>
</g>
</svg>
