<?xml version="1.0" encoding="UTF-8" standalone="no"?>
<!DOCTYPE svg PUBLIC "-//W3C//DTD SVG 1.1//EN"
 "http://www.w3.org/Graphics/SVG/1.1/DTD/svg11.dtd">
<!-- Generated by graphviz version 2.43.0 (0)
 -->
<!-- Title: mon_hasenbusch_par Pages: 1 -->
<svg width="163pt" height="162pt"
 viewBox="0.00 0.00 162.50 162.00" xmlns="http://www.w3.org/2000/svg" xmlns:xlink="http://www.w3.org/1999/xlink">
<g id="graph0" class="graph" transform="scale(1 1) rotate(0) translate(4 158)">
<title>mon_hasenbusch_par</title>
<!-- Node1 -->
<g id="node1" class="node">
<title>Node1</title>
<g id="a_node1"><a xlink:title=" ">
<polygon fill="#bfbfbf" stroke="black" points="0,-0.5 0,-19.5 122,-19.5 122,-0.5 0,-0.5"/>
<text text-anchor="middle" x="61" y="-7.5" font-family="Helvetica,sans-Serif" font-size="10.00">mon_hasenbusch_par</text>
</a>
</g>
</g>
<!-- Node2 -->
<g id="node2" class="node">
<title>Node2</title>
<g id="a_node2"><a xlink:href="../../df/d6a/structforce__hmc__par.html" target="_top" xlink:title=" ">
<polygon fill="none" stroke="orangered" points="65.5,-67.5 65.5,-86.5 154.5,-86.5 154.5,-67.5 65.5,-67.5"/>
<text text-anchor="middle" x="110" y="-74.5" font-family="Helvetica,sans-Serif" font-size="10.00">force_hmc_par</text>
</a>
</g>
</g>
<!-- Node2&#45;&gt;Node1 -->
<g id="edge1" class="edge">
<title>Node2&#45;&gt;Node1</title>
<path fill="none" stroke="#9a32cd" stroke-dasharray="5,2" d="M97.11,-58.9C87.59,-46.27 75.02,-29.6 67.5,-19.63"/>
<polygon fill="#9a32cd" stroke="#9a32cd" points="94.58,-61.36 103.39,-67.23 100.17,-57.14 94.58,-61.36"/>
<text text-anchor="middle" x="99.5" y="-41" font-family="Helvetica,sans-Serif" font-size="10.00"> fpar</text>
</g>
<!-- Node3 -->
<g id="node3" class="node">
<title>Node3</title>
<g id="a_node3"><a xlink:href="../../d0/da8/structspinor__field.html" target="_top" xlink:title="Spinor field array containing SU(N_f) spinors in chosen fermion representation.">
<polygon fill="none" stroke="red" points="13.5,-134.5 13.5,-153.5 86.5,-153.5 86.5,-134.5 13.5,-134.5"/>
<text text-anchor="middle" x="50" y="-141.5" font-family="Helvetica,sans-Serif" font-size="10.00">spinor_field</text>
</a>
</g>
</g>
<!-- Node3&#45;&gt;Node1 -->
<g id="edge3" class="edge">
<title>Node3&#45;&gt;Node1</title>
<path fill="none" stroke="#9a32cd" stroke-dasharray="5,2" d="M46.16,-124.2C43.58,-108.77 41.12,-86.38 44,-67 46.57,-49.71 53.36,-30.38 57.54,-19.55"/>
<polygon fill="#9a32cd" stroke="#9a32cd" points="42.73,-124.87 47.99,-134.06 49.61,-123.59 42.73,-124.87"/>
<text text-anchor="middle" x="50.5" y="-74.5" font-family="Helvetica,sans-Serif" font-size="10.00"> pf</text>
</g>
<!-- Node3&#45;&gt;Node2 -->
<g id="edge2" class="edge">
<title>Node3&#45;&gt;Node2</title>
<path fill="none" stroke="#9a32cd" stroke-dasharray="5,2" d="M65.11,-126.63C76.84,-113.92 92.65,-96.8 102.04,-86.63"/>
<polygon fill="#9a32cd" stroke="#9a32cd" points="62.3,-124.51 58.09,-134.23 67.45,-129.26 62.3,-124.51"/>
<text text-anchor="middle" x="89.5" y="-108" font-family="Helvetica,sans-Serif" font-size="10.00"> pf</text>
</g>
</g>
</svg>
