<?xml version="1.0" encoding="UTF-8" standalone="no"?>
<!DOCTYPE svg PUBLIC "-//W3C//DTD SVG 1.1//EN"
 "http://www.w3.org/Graphics/SVG/1.1/DTD/svg11.dtd">
<!-- Generated by graphviz version 2.43.0 (0)
 -->
<!-- Title: mon_hasenbusch_tm_par Pages: 1 -->
<svg width="172pt" height="162pt"
 viewBox="0.00 0.00 172.00 162.00" xmlns="http://www.w3.org/2000/svg" xmlns:xlink="http://www.w3.org/1999/xlink">
<g id="graph0" class="graph" transform="scale(1 1) rotate(0) translate(4 158)">
<title>mon_hasenbusch_tm_par</title>
<!-- Node1 -->
<g id="node1" class="node">
<title>Node1</title>
<g id="a_node1"><a xlink:title=" ">
<polygon fill="#bfbfbf" stroke="black" points="0,-0.5 0,-19.5 141,-19.5 141,-0.5 0,-0.5"/>
<text text-anchor="middle" x="70.5" y="-7.5" font-family="Helvetica,sans-Serif" font-size="10.00">mon_hasenbusch_tm_par</text>
</a>
</g>
</g>
<!-- Node2 -->
<g id="node2" class="node">
<title>Node2</title>
<g id="a_node2"><a xlink:href="../../df/d6a/structforce__hmc__par.html" target="_top" xlink:title=" ">
<polygon fill="none" stroke="orangered" points="75,-67.5 75,-86.5 164,-86.5 164,-67.5 75,-67.5"/>
<text text-anchor="middle" x="119.5" y="-74.5" font-family="Helvetica,sans-Serif" font-size="10.00">force_hmc_par</text>
</a>
</g>
</g>
<!-- Node2&#45;&gt;Node1 -->
<g id="edge1" class="edge">
<title>Node2&#45;&gt;Node1</title>
<path fill="none" stroke="#9a32cd" stroke-dasharray="5,2" d="M106.61,-58.9C97.09,-46.27 84.52,-29.6 77,-19.63"/>
<polygon fill="#9a32cd" stroke="#9a32cd" points="104.08,-61.36 112.89,-67.23 109.67,-57.14 104.08,-61.36"/>
<text text-anchor="middle" x="109" y="-41" font-family="Helvetica,sans-Serif" font-size="10.00"> fpar</text>
</g>
<!-- Node3 -->
<g id="node3" class="node">
<title>Node3</title>
<g id="a_node3"><a xlink:href="../../d0/da8/structspinor__field.html" target="_top" xlink:title="Spinor field array containing SU(N_f) spinors in chosen fermion representation.">
<polygon fill="none" stroke="red" points="23,-134.5 23,-153.5 96,-153.5 96,-134.5 23,-134.5"/>
<text text-anchor="middle" x="59.5" y="-141.5" font-family="Helvetica,sans-Serif" font-size="10.00">spinor_field</text>
</a>
</g>
</g>
<!-- Node3&#45;&gt;Node1 -->
<g id="edge3" class="edge">
<title>Node3&#45;&gt;Node1</title>
<path fill="none" stroke="#9a32cd" stroke-dasharray="5,2" d="M55.66,-124.2C53.08,-108.77 50.62,-86.38 53.5,-67 56.07,-49.71 62.86,-30.38 67.04,-19.55"/>
<polygon fill="#9a32cd" stroke="#9a32cd" points="52.23,-124.87 57.49,-134.06 59.11,-123.59 52.23,-124.87"/>
<text text-anchor="middle" x="60" y="-74.5" font-family="Helvetica,sans-Serif" font-size="10.00"> pf</text>
</g>
<!-- Node3&#45;&gt;Node2 -->
<g id="edge2" class="edge">
<title>Node3&#45;&gt;Node2</title>
<path fill="none" stroke="#9a32cd" stroke-dasharray="5,2" d="M74.61,-126.63C86.34,-113.92 102.15,-96.8 111.54,-86.63"/>
<polygon fill="#9a32cd" stroke="#9a32cd" points="71.8,-124.51 67.59,-134.23 76.95,-129.26 71.8,-124.51"/>
<text text-anchor="middle" x="99" y="-108" font-family="Helvetica,sans-Serif" font-size="10.00"> pf</text>
</g>
</g>
</svg>
