<?xml version="1.0" encoding="UTF-8" standalone="no"?>
<!DOCTYPE svg PUBLIC "-//W3C//DTD SVG 1.1//EN"
 "http://www.w3.org/Graphics/SVG/1.1/DTD/svg11.dtd">
<!-- Generated by graphviz version 2.43.0 (0)
 -->
<!-- Title: mo_p Pages: 1 -->
<svg width="170pt" height="187pt"
 viewBox="0.00 0.00 170.00 187.35" xmlns="http://www.w3.org/2000/svg" xmlns:xlink="http://www.w3.org/1999/xlink">
<g id="graph0" class="graph" transform="scale(1 1) rotate(0) translate(4 183.35)">
<title>mo_p</title>
<!-- Node1 -->
<g id="node1" class="node">
<title>Node1</title>
<g id="a_node1"><a xlink:title="Bundle of meson_observables with momentum p.">
<polygon fill="#bfbfbf" stroke="black" points="37.5,-0.5 37.5,-19.5 81.5,-19.5 81.5,-0.5 37.5,-0.5"/>
<text text-anchor="middle" x="59.5" y="-7.5" font-family="Helvetica,sans-Serif" font-size="10.00">mo_p</text>
</a>
</g>
</g>
<!-- Node2 -->
<g id="node2" class="node">
<title>Node2</title>
<g id="a_node2"><a xlink:href="../../d6/d0c/structmeson__observable__s.html" target="_top" xlink:title=" ">
<polygon fill="none" stroke="#bfbfbf" points="0,-155.5 0,-174.5 119,-174.5 119,-155.5 0,-155.5"/>
<text text-anchor="middle" x="59.5" y="-162.5" font-family="Helvetica,sans-Serif" font-size="10.00">meson_observable_s</text>
</a>
</g>
</g>
<!-- Node2&#45;&gt;Node1 -->
<g id="edge1" class="edge">
<title>Node2&#45;&gt;Node1</title>
<path fill="none" stroke="#9a32cd" stroke-dasharray="5,2" d="M59.5,-145.11C59.5,-111.72 59.5,-43.54 59.5,-19.57"/>
<polygon fill="#9a32cd" stroke="#9a32cd" points="56,-145.34 59.5,-155.34 63,-145.34 56,-145.34"/>
<text text-anchor="middle" x="67.5" y="-129" font-family="Helvetica,sans-Serif" font-size="10.00"> d</text>
<text text-anchor="middle" x="67.5" y="-118" font-family="Helvetica,sans-Serif" font-size="10.00">pi</text>
<text text-anchor="middle" x="67.5" y="-107" font-family="Helvetica,sans-Serif" font-size="10.00">r1</text>
<text text-anchor="middle" x="67.5" y="-96" font-family="Helvetica,sans-Serif" font-size="10.00">r2</text>
<text text-anchor="middle" x="67.5" y="-85" font-family="Helvetica,sans-Serif" font-size="10.00">r3</text>
<text text-anchor="middle" x="67.5" y="-74" font-family="Helvetica,sans-Serif" font-size="10.00">r4</text>
<text text-anchor="middle" x="67.5" y="-63" font-family="Helvetica,sans-Serif" font-size="10.00">rho</text>
<text text-anchor="middle" x="67.5" y="-52" font-family="Helvetica,sans-Serif" font-size="10.00">t1</text>
<text text-anchor="middle" x="67.5" y="-41" font-family="Helvetica,sans-Serif" font-size="10.00">t2</text>
</g>
<!-- Node2&#45;&gt;Node2 -->
<g id="edge2" class="edge">
<title>Node2&#45;&gt;Node2</title>
<path fill="none" stroke="#9a32cd" stroke-dasharray="5,2" d="M88.66,-177.19C112.4,-182.18 137,-178.11 137,-165 137,-150.08 105.15,-146.88 78.96,-155.38"/>
<polygon fill="#9a32cd" stroke="#9a32cd" points="89.52,-173.8 78.96,-174.62 87.73,-180.56 89.52,-173.8"/>
<text text-anchor="middle" x="149.5" y="-162.5" font-family="Helvetica,sans-Serif" font-size="10.00"> next</text>
</g>
</g>
</svg>
