<?xml version="1.0" encoding="UTF-8" standalone="no"?>
<!DOCTYPE svg PUBLIC "-//W3C//DTD SVG 1.1//EN"
 "http://www.w3.org/Graphics/SVG/1.1/DTD/svg11.dtd">
<!-- Generated by graphviz version 2.43.0 (0)
 -->
<!-- Title: mo_p Pages: 1 -->
<svg width="170pt" height="186pt"
 viewBox="0.00 0.00 170.00 185.85" xmlns="http://www.w3.org/2000/svg" xmlns:xlink="http://www.w3.org/1999/xlink">
<g id="graph0" class="graph" transform="scale(1 1) rotate(0) translate(4 181.85)">
<title>mo_p</title>
<!-- Node1 -->
<g id="Node000001" class="node">
<title>Node1</title>
<g id="a_Node000001"><a xlink:title="Bundle of meson_observables with momentum p.">
<polygon fill="#999999" stroke="#666666" points="81.5,-19 37.5,-19 37.5,0 81.5,0 81.5,-19"/>
<text text-anchor="middle" x="59.5" y="-7" font-family="Helvetica,sans-Serif" font-size="10.00">mo_p</text>
</a>
</g>
</g>
<!-- Node2 -->
<g id="Node000002" class="node">
<title>Node2</title>
<g id="a_Node000002"><a xlink:href="../../d6/d0c/structmeson__observable__s.html" target="_top" xlink:title=" ">
<polygon fill="white" stroke="#bfbfbf" points="119,-173 0,-173 0,-154 119,-154 119,-173"/>
<text text-anchor="middle" x="59.5" y="-161" font-family="Helvetica,sans-Serif" font-size="10.00">meson_observable_s</text>
</a>
</g>
</g>
<!-- Node2&#45;&gt;Node1 -->
<g id="edge1_Node000001_Node000002" class="edge">
<title>Node2&#45;&gt;Node1</title>
<g id="a_edge1_Node000001_Node000002"><a xlink:title=" ">
<path fill="none" stroke="#9a32cd" stroke-dasharray="5,2" d="M59.5,-143.73C59.5,-110.56 59.5,-42.83 59.5,-19.01"/>
<polygon fill="#9a32cd" stroke="#9a32cd" points="56,-143.89 59.5,-153.89 63,-143.89 56,-143.89"/>
</a>
</g>
<text text-anchor="middle" x="67.5" y="-128" font-family="Helvetica,sans-Serif" font-size="10.00" fill="grey"> d</text>
<text text-anchor="middle" x="67.5" y="-117" font-family="Helvetica,sans-Serif" font-size="10.00" fill="grey">pi</text>
<text text-anchor="middle" x="67.5" y="-106" font-family="Helvetica,sans-Serif" font-size="10.00" fill="grey">r1</text>
<text text-anchor="middle" x="67.5" y="-95" font-family="Helvetica,sans-Serif" font-size="10.00" fill="grey">r2</text>
<text text-anchor="middle" x="67.5" y="-84" font-family="Helvetica,sans-Serif" font-size="10.00" fill="grey">r3</text>
<text text-anchor="middle" x="67.5" y="-73" font-family="Helvetica,sans-Serif" font-size="10.00" fill="grey">r4</text>
<text text-anchor="middle" x="67.5" y="-62" font-family="Helvetica,sans-Serif" font-size="10.00" fill="grey">rho</text>
<text text-anchor="middle" x="67.5" y="-51" font-family="Helvetica,sans-Serif" font-size="10.00" fill="grey">t1</text>
<text text-anchor="middle" x="67.5" y="-40" font-family="Helvetica,sans-Serif" font-size="10.00" fill="grey">t2</text>
</g>
<!-- Node2&#45;&gt;Node2 -->
<g id="edge2_Node000002_Node000002" class="edge">
<title>Node2&#45;&gt;Node2</title>
<g id="a_edge2_Node000002_Node000002"><a xlink:title=" ">
<path fill="none" stroke="#9a32cd" stroke-dasharray="5,2" d="M88.66,-175.69C112.4,-180.68 137,-176.61 137,-163.5 137,-148.58 105.15,-145.38 78.96,-153.88"/>
<polygon fill="#9a32cd" stroke="#9a32cd" points="89.52,-172.3 78.96,-173.12 87.73,-179.06 89.52,-172.3"/>
</a>
</g>
<text text-anchor="middle" x="149.5" y="-161" font-family="Helvetica,sans-Serif" font-size="10.00" fill="grey"> next</text>
</g>
</g>
</svg>
