<?xml version="1.0" encoding="UTF-8" standalone="no"?>
<!DOCTYPE svg PUBLIC "-//W3C//DTD SVG 1.1//EN"
 "http://www.w3.org/Graphics/SVG/1.1/DTD/svg11.dtd">
<!-- Generated by graphviz version 2.43.0 (0)
 -->
<!-- Title: single_double_utils.c Pages: 1 -->
<svg width="231pt" height="84pt"
 viewBox="0.00 0.00 231.00 84.00" xmlns="http://www.w3.org/2000/svg" xmlns:xlink="http://www.w3.org/1999/xlink">
<g id="graph0" class="graph" transform="scale(1 1) rotate(0) translate(4 80)">
<title>single_double_utils.c</title>
<!-- Node1 -->
<g id="node1" class="node">
<title>Node1</title>
<g id="a_node1"><a xlink:title="Functions for conversion from single to double precision and vice versa.">
<polygon fill="#bfbfbf" stroke="black" points="43,-56.5 43,-75.5 162,-75.5 162,-56.5 43,-56.5"/>
<text text-anchor="middle" x="102.5" y="-63.5" font-family="Helvetica,sans-Serif" font-size="10.00">single_double_utils.c</text>
</a>
</g>
</g>
<!-- Node2 -->
<g id="node2" class="node">
<title>Node2</title>
<g id="a_node2"><a xlink:href="../../d5/d60/utils_8h_source.html" target="_top" xlink:title=" ">
<polygon fill="none" stroke="red" points="0,-0.5 0,-19.5 47,-19.5 47,-0.5 0,-0.5"/>
<text text-anchor="middle" x="23.5" y="-7.5" font-family="Helvetica,sans-Serif" font-size="10.00">utils.h</text>
</a>
</g>
</g>
<!-- Node1&#45;&gt;Node2 -->
<g id="edge1" class="edge">
<title>Node1&#45;&gt;Node2</title>
<path fill="none" stroke="midnightblue" d="M89.81,-56.32C77.6,-47.98 58.92,-35.21 44.5,-25.35"/>
<polygon fill="midnightblue" stroke="midnightblue" points="46.39,-22.41 36.16,-19.65 42.44,-28.19 46.39,-22.41"/>
</g>
<!-- Node34 -->
<g id="node3" class="node">
<title>Node34</title>
<g id="a_node3"><a xlink:href="../../d8/d1f/libhr__core_8h_source.html" target="_top" xlink:title=" ">
<polygon fill="none" stroke="red" points="65.5,-0.5 65.5,-19.5 139.5,-19.5 139.5,-0.5 65.5,-0.5"/>
<text text-anchor="middle" x="102.5" y="-7.5" font-family="Helvetica,sans-Serif" font-size="10.00">libhr_core.h</text>
</a>
</g>
</g>
<!-- Node1&#45;&gt;Node34 -->
<g id="edge2" class="edge">
<title>Node1&#45;&gt;Node34</title>
<path fill="none" stroke="midnightblue" d="M102.5,-56.08C102.5,-49.01 102.5,-38.86 102.5,-29.99"/>
<polygon fill="midnightblue" stroke="midnightblue" points="106,-29.75 102.5,-19.75 99,-29.75 106,-29.75"/>
</g>
<!-- Node85 -->
<g id="node4" class="node">
<title>Node85</title>
<g id="a_node4"><a xlink:href="../../dc/d18/memory_8h_source.html" target="_top" xlink:title=" ">
<polygon fill="none" stroke="red" points="158,-0.5 158,-19.5 223,-19.5 223,-0.5 158,-0.5"/>
<text text-anchor="middle" x="190.5" y="-7.5" font-family="Helvetica,sans-Serif" font-size="10.00">memory.h</text>
</a>
</g>
</g>
<!-- Node1&#45;&gt;Node85 -->
<g id="edge3" class="edge">
<title>Node1&#45;&gt;Node85</title>
<path fill="none" stroke="midnightblue" d="M116.64,-56.32C130.37,-47.9 151.44,-34.97 167.56,-25.07"/>
<polygon fill="midnightblue" stroke="midnightblue" points="169.7,-27.87 176.4,-19.65 166.04,-21.9 169.7,-27.87"/>
</g>
</g>
</svg>
