<?xml version="1.0" encoding="UTF-8" standalone="no"?>
<!DOCTYPE svg PUBLIC "-//W3C//DTD SVG 1.1//EN"
 "http://www.w3.org/Graphics/SVG/1.1/DTD/svg11.dtd">
<!-- Generated by graphviz version 2.43.0 (0)
 -->
<!-- Title: geometry_descriptor.h Pages: 1 -->
<svg width="292pt" height="140pt"
 viewBox="0.00 0.00 292.00 140.00" xmlns="http://www.w3.org/2000/svg" xmlns:xlink="http://www.w3.org/1999/xlink">
<g id="graph0" class="graph" transform="scale(1 1) rotate(0) translate(4 136)">
<title>geometry_descriptor.h</title>
<!-- Node1 -->
<g id="node1" class="node">
<title>Node1</title>
<g id="a_node1"><a xlink:title="Geometry descriptor struct, that contains all necessary information for multi&#45;node/ multi&#45;GPU calcula...">
<polygon fill="#bfbfbf" stroke="black" points="53,-112.5 53,-131.5 179,-131.5 179,-112.5 53,-112.5"/>
<text text-anchor="middle" x="116" y="-119.5" font-family="Helvetica,sans-Serif" font-size="10.00">geometry_descriptor.h</text>
</a>
</g>
</g>
<!-- Node2 -->
<g id="node2" class="node">
<title>Node2</title>
<g id="a_node2"><a xlink:href="../../d3/d58/eigval_8h_source.html" target="_top" xlink:title=" ">
<polygon fill="none" stroke="red" points="0,-56.5 0,-75.5 56,-75.5 56,-56.5 0,-56.5"/>
<text text-anchor="middle" x="28" y="-63.5" font-family="Helvetica,sans-Serif" font-size="10.00">eigval.h</text>
</a>
</g>
</g>
<!-- Node1&#45;&gt;Node2 -->
<g id="edge1" class="edge">
<title>Node1&#45;&gt;Node2</title>
<path fill="none" stroke="midnightblue" d="M93.02,-106.9C76.89,-97 55.82,-84.07 42.1,-75.65"/>
<polygon fill="midnightblue" stroke="midnightblue" points="91.51,-110.08 101.86,-112.32 95.17,-104.11 91.51,-110.08"/>
</g>
<!-- Node10 -->
<g id="node3" class="node">
<title>Node10</title>
<g id="a_node3"><a xlink:href="../../dd/d29/eva__deflation_8h_source.html" target="_top" xlink:title=" ">
<polygon fill="none" stroke="red" points="117,-0.5 117,-19.5 209,-19.5 209,-0.5 117,-0.5"/>
<text text-anchor="middle" x="163" y="-7.5" font-family="Helvetica,sans-Serif" font-size="10.00">eva_deflation.h</text>
</a>
</g>
</g>
<!-- Node1&#45;&gt;Node10 -->
<g id="edge2" class="edge">
<title>Node1&#45;&gt;Node10</title>
<path fill="none" stroke="midnightblue" d="M106.39,-102.91C100.59,-89.39 95.62,-70.76 103,-56 111.44,-39.11 129.57,-26.92 143.7,-19.52"/>
<polygon fill="midnightblue" stroke="midnightblue" points="103.32,-104.61 110.79,-112.11 109.63,-101.58 103.32,-104.61"/>
</g>
<!-- Node11 -->
<g id="node4" class="node">
<title>Node11</title>
<g id="a_node4"><a xlink:href="../../d4/d67/geometry_8h.html" target="_top" xlink:title="This file contains information on the geometry of the local lattice, block decomposed geometry,...">
<polygon fill="none" stroke="red" points="112.5,-56.5 112.5,-75.5 183.5,-75.5 183.5,-56.5 112.5,-56.5"/>
<text text-anchor="middle" x="148" y="-63.5" font-family="Helvetica,sans-Serif" font-size="10.00">geometry.h</text>
</a>
</g>
</g>
<!-- Node1&#45;&gt;Node11 -->
<g id="edge3" class="edge">
<title>Node1&#45;&gt;Node11</title>
<path fill="none" stroke="midnightblue" d="M126.5,-103.27C131.97,-94.05 138.42,-83.17 142.81,-75.75"/>
<polygon fill="midnightblue" stroke="midnightblue" points="123.37,-101.7 121.28,-112.08 129.39,-105.26 123.37,-101.7"/>
</g>
<!-- Node35 -->
<g id="node5" class="node">
<title>Node35</title>
<g id="a_node5"><a xlink:href="../../d3/ded/spinor__field_8h.html" target="_top" xlink:title="The elementary site structures defined in suN.h are used in this file to define field structures that...">
<polygon fill="none" stroke="red" points="202,-56.5 202,-75.5 284,-75.5 284,-56.5 202,-56.5"/>
<text text-anchor="middle" x="243" y="-63.5" font-family="Helvetica,sans-Serif" font-size="10.00">spinor_field.h</text>
</a>
</g>
</g>
<!-- Node1&#45;&gt;Node35 -->
<g id="edge4" class="edge">
<title>Node1&#45;&gt;Node35</title>
<path fill="none" stroke="midnightblue" d="M145.39,-108.5C169.2,-98.38 202.11,-84.39 222.97,-75.52"/>
<polygon fill="midnightblue" stroke="midnightblue" points="143.96,-105.31 136.12,-112.44 146.7,-111.75 143.96,-105.31"/>
</g>
<!-- Node35&#45;&gt;Node10 -->
<g id="edge5" class="edge">
<title>Node35&#45;&gt;Node10</title>
<path fill="none" stroke="midnightblue" d="M221.7,-50.62C207.08,-40.76 188.17,-27.99 175.82,-19.65"/>
<polygon fill="midnightblue" stroke="midnightblue" points="219.9,-53.63 230.15,-56.32 223.82,-47.83 219.9,-53.63"/>
</g>
</g>
</svg>
