<?xml version="1.0" encoding="UTF-8" standalone="no"?>
<!DOCTYPE svg PUBLIC "-//W3C//DTD SVG 1.1//EN"
 "http://www.w3.org/Graphics/SVG/1.1/DTD/svg11.dtd">
<!-- Generated by graphviz version 2.43.0 (0)
 -->
<!-- Title: hr_mpi.h Pages: 1 -->
<svg width="148pt" height="196pt"
 viewBox="0.00 0.00 147.50 196.00" xmlns="http://www.w3.org/2000/svg" xmlns:xlink="http://www.w3.org/1999/xlink">
<g id="graph0" class="graph" transform="scale(1 1) rotate(0) translate(4 192)">
<title>hr_mpi.h</title>
<!-- Node1 -->
<g id="node1" class="node">
<title>Node1</title>
<g id="a_node1"><a xlink:title="Setup for mpi.">
<polygon fill="#bfbfbf" stroke="black" points="0,-168.5 0,-187.5 59,-187.5 59,-168.5 0,-168.5"/>
<text text-anchor="middle" x="29.5" y="-175.5" font-family="Helvetica,sans-Serif" font-size="10.00">hr_mpi.h</text>
</a>
</g>
</g>
<!-- Node2 -->
<g id="node2" class="node">
<title>Node2</title>
<g id="a_node2"><a xlink:href="../../d2/d49/global_8h.html" target="_top" xlink:title="Global parameters and arrays.">
<polygon fill="none" stroke="black" points="17.5,-56.5 17.5,-75.5 73.5,-75.5 73.5,-56.5 17.5,-56.5"/>
<text text-anchor="middle" x="45.5" y="-63.5" font-family="Helvetica,sans-Serif" font-size="10.00">global.h</text>
</a>
</g>
</g>
<!-- Node1&#45;&gt;Node2 -->
<g id="edge1" class="edge">
<title>Node1&#45;&gt;Node2</title>
<path fill="none" stroke="midnightblue" d="M32.21,-158.35C35.72,-134.25 41.67,-93.31 44.25,-75.59"/>
<polygon fill="midnightblue" stroke="midnightblue" points="28.73,-157.97 30.76,-168.37 35.66,-158.98 28.73,-157.97"/>
</g>
<!-- Node3 -->
<g id="node3" class="node">
<title>Node3</title>
<g id="a_node3"><a xlink:href="../../d8/d1f/libhr__core_8h_source.html" target="_top" xlink:title=" ">
<polygon fill="none" stroke="red" points="8.5,-0.5 8.5,-19.5 82.5,-19.5 82.5,-0.5 8.5,-0.5"/>
<text text-anchor="middle" x="45.5" y="-7.5" font-family="Helvetica,sans-Serif" font-size="10.00">libhr_core.h</text>
</a>
</g>
</g>
<!-- Node1&#45;&gt;Node3 -->
<g id="edge3" class="edge">
<title>Node1&#45;&gt;Node3</title>
<path fill="none" stroke="midnightblue" d="M20.76,-158.91C10.36,-134.82 -4.09,-91.14 8.5,-56 13.75,-41.34 26.08,-28.03 35.06,-19.76"/>
<polygon fill="midnightblue" stroke="midnightblue" points="17.67,-160.58 25.01,-168.23 24.04,-157.68 17.67,-160.58"/>
</g>
<!-- Node27 -->
<g id="node4" class="node">
<title>Node27</title>
<g id="a_node4"><a xlink:href="../../d3/ded/spinor__field_8h.html" target="_top" xlink:title="The elementary site structures defined in suN.h are used in this file to define field structures that...">
<polygon fill="none" stroke="red" points="57.5,-112.5 57.5,-131.5 139.5,-131.5 139.5,-112.5 57.5,-112.5"/>
<text text-anchor="middle" x="98.5" y="-119.5" font-family="Helvetica,sans-Serif" font-size="10.00">spinor_field.h</text>
</a>
</g>
</g>
<!-- Node1&#45;&gt;Node27 -->
<g id="edge4" class="edge">
<title>Node1&#45;&gt;Node27</title>
<path fill="none" stroke="midnightblue" d="M48.54,-162.1C60.96,-152.38 76.74,-140.03 87.21,-131.83"/>
<polygon fill="midnightblue" stroke="midnightblue" points="46.3,-159.4 40.59,-168.32 50.62,-164.92 46.3,-159.4"/>
</g>
<!-- Node2&#45;&gt;Node3 -->
<g id="edge2" class="edge">
<title>Node2&#45;&gt;Node3</title>
<path fill="none" stroke="midnightblue" d="M45.5,-45.8C45.5,-36.91 45.5,-26.78 45.5,-19.75"/>
<polygon fill="midnightblue" stroke="midnightblue" points="42,-46.08 45.5,-56.08 49,-46.08 42,-46.08"/>
</g>
<!-- Node27&#45;&gt;Node2 -->
<g id="edge5" class="edge">
<title>Node27&#45;&gt;Node2</title>
<path fill="none" stroke="midnightblue" d="M82.52,-104.72C73.18,-95.2 61.75,-83.56 54.09,-75.75"/>
<polygon fill="midnightblue" stroke="midnightblue" points="80.25,-107.4 89.75,-112.08 85.24,-102.49 80.25,-107.4"/>
</g>
<!-- Node27&#45;&gt;Node3 -->
<g id="edge6" class="edge">
<title>Node27&#45;&gt;Node3</title>
<path fill="none" stroke="midnightblue" d="M96.14,-102.19C93.93,-88.78 89.82,-70.61 82.5,-56 75.43,-41.9 63.24,-28.27 54.79,-19.78"/>
<polygon fill="midnightblue" stroke="midnightblue" points="92.69,-102.76 97.59,-112.16 99.62,-101.76 92.69,-102.76"/>
</g>
</g>
</svg>
