<?xml version="1.0" encoding="UTF-8" standalone="no"?>
<!DOCTYPE svg PUBLIC "-//W3C//DTD SVG 1.1//EN"
 "http://www.w3.org/Graphics/SVG/1.1/DTD/svg11.dtd">
<!-- Generated by graphviz version 2.43.0 (0)
 -->
<!-- Title: logger.h Pages: 1 -->
<svg width="132pt" height="84pt"
 viewBox="0.00 0.00 131.50 84.00" xmlns="http://www.w3.org/2000/svg" xmlns:xlink="http://www.w3.org/1999/xlink">
<g id="graph0" class="graph" transform="scale(1 1) rotate(0) translate(4 80)">
<title>logger.h</title>
<!-- Node1 -->
<g id="node1" class="node">
<title>Node1</title>
<g id="a_node1"><a xlink:title="Simple output logging facility.">
<polygon fill="#bfbfbf" stroke="black" points="42,-56.5 42,-75.5 98,-75.5 98,-56.5 42,-56.5"/>
<text text-anchor="middle" x="70" y="-63.5" font-family="Helvetica,sans-Serif" font-size="10.00">logger.h</text>
</a>
</g>
</g>
<!-- Node2 -->
<g id="node2" class="node">
<title>Node2</title>
<g id="a_node2"><a xlink:href="../../db/d97/glueballs_8h_source.html" target="_top" xlink:title=" ">
<polygon fill="none" stroke="red" points="0,-0.5 0,-19.5 70,-19.5 70,-0.5 0,-0.5"/>
<text text-anchor="middle" x="35" y="-7.5" font-family="Helvetica,sans-Serif" font-size="10.00">glueballs.h</text>
</a>
</g>
</g>
<!-- Node1&#45;&gt;Node2 -->
<g id="edge1" class="edge">
<title>Node1&#45;&gt;Node2</title>
<path fill="none" stroke="midnightblue" d="M58.7,-47.57C52.68,-38.27 45.53,-27.25 40.67,-19.75"/>
<polygon fill="midnightblue" stroke="midnightblue" points="55.84,-49.6 64.22,-56.08 61.72,-45.79 55.84,-49.6"/>
</g>
<!-- Node9 -->
<g id="node3" class="node">
<title>Node9</title>
<g id="a_node3"><a xlink:href="../../dc/dac/io_8h_source.html" target="_top" xlink:title=" ">
<polygon fill="none" stroke="red" points="88.5,-0.5 88.5,-19.5 123.5,-19.5 123.5,-0.5 88.5,-0.5"/>
<text text-anchor="middle" x="106" y="-7.5" font-family="Helvetica,sans-Serif" font-size="10.00">io.h</text>
</a>
</g>
</g>
<!-- Node1&#45;&gt;Node9 -->
<g id="edge2" class="edge">
<title>Node1&#45;&gt;Node9</title>
<path fill="none" stroke="midnightblue" d="M81.62,-47.57C87.82,-38.27 95.17,-27.25 100.17,-19.75"/>
<polygon fill="midnightblue" stroke="midnightblue" points="78.58,-45.82 75.94,-56.08 84.4,-49.7 78.58,-45.82"/>
</g>
</g>
</svg>
