<?xml version="1.0" encoding="UTF-8" standalone="no"?>
<!DOCTYPE svg PUBLIC "-//W3C//DTD SVG 1.1//EN"
 "http://www.w3.org/Graphics/SVG/1.1/DTD/svg11.dtd">
<!-- Generated by graphviz version 2.43.0 (0)
 -->
<!-- Title: communications.h Pages: 1 -->
<svg width="470pt" height="84pt"
 viewBox="0.00 0.00 469.50 84.00" xmlns="http://www.w3.org/2000/svg" xmlns:xlink="http://www.w3.org/1999/xlink">
<g id="graph0" class="graph" transform="scale(1 1) rotate(0) translate(4 80)">
<title>communications.h</title>
<!-- Node1 -->
<g id="node1" class="node">
<title>Node1</title>
<g id="a_node1"><a xlink:title="Communications to send and receive sites from other nodes using MPI with GPU.">
<polygon fill="#bfbfbf" stroke="black" points="82.5,-56.5 82.5,-75.5 189.5,-75.5 189.5,-56.5 82.5,-56.5"/>
<text text-anchor="middle" x="136" y="-63.5" font-family="Helvetica,sans-Serif" font-size="10.00">communications.h</text>
</a>
</g>
</g>
<!-- Node2 -->
<g id="node2" class="node">
<title>Node2</title>
<g id="a_node2"><a xlink:href="../../d3/ded/spinor__field_8h.html" target="_top" xlink:title="The elementary site structures defined in suN.h are used in this file to define field structures that...">
<polygon fill="none" stroke="red" points="0,-0.5 0,-19.5 82,-19.5 82,-0.5 0,-0.5"/>
<text text-anchor="middle" x="41" y="-7.5" font-family="Helvetica,sans-Serif" font-size="10.00">spinor_field.h</text>
</a>
</g>
</g>
<!-- Node1&#45;&gt;Node2 -->
<g id="edge1" class="edge">
<title>Node1&#45;&gt;Node2</title>
<path fill="none" stroke="midnightblue" d="M120.74,-56.32C105.78,-47.82 82.75,-34.73 65.27,-24.8"/>
<polygon fill="midnightblue" stroke="midnightblue" points="66.65,-21.55 56.23,-19.65 63.19,-27.64 66.65,-21.55"/>
</g>
<!-- Node9 -->
<g id="node3" class="node">
<title>Node9</title>
<g id="a_node3"><a xlink:href="../../d4/d67/geometry_8h.html" target="_top" xlink:title="This file contains information on the geometry of the local lattice, block decomposed geometry,...">
<polygon fill="none" stroke="red" points="100.5,-0.5 100.5,-19.5 171.5,-19.5 171.5,-0.5 100.5,-0.5"/>
<text text-anchor="middle" x="136" y="-7.5" font-family="Helvetica,sans-Serif" font-size="10.00">geometry.h</text>
</a>
</g>
</g>
<!-- Node1&#45;&gt;Node9 -->
<g id="edge2" class="edge">
<title>Node1&#45;&gt;Node9</title>
<path fill="none" stroke="midnightblue" d="M130.83,-56.08C129.32,-48.93 128.89,-38.64 129.54,-29.69"/>
<polygon fill="midnightblue" stroke="midnightblue" points="133.02,-30.13 130.87,-19.75 126.08,-29.2 133.02,-30.13"/>
</g>
<!-- Node12 -->
<g id="node4" class="node">
<title>Node12</title>
<g id="a_node4"><a xlink:href="../../dd/d70/generics_8h_source.html" target="_top" xlink:title=" ">
<polygon fill="none" stroke="red" points="190,-0.5 190,-19.5 282,-19.5 282,-0.5 190,-0.5"/>
<text text-anchor="middle" x="236" y="-7.5" font-family="Helvetica,sans-Serif" font-size="10.00">Utils/generics.h</text>
</a>
</g>
</g>
<!-- Node1&#45;&gt;Node12 -->
<g id="edge4" class="edge">
<title>Node1&#45;&gt;Node12</title>
<path fill="none" stroke="midnightblue" d="M152.07,-56.32C167.96,-47.74 192.51,-34.49 210.96,-24.52"/>
<polygon fill="midnightblue" stroke="midnightblue" points="212.84,-27.49 219.97,-19.65 209.51,-21.33 212.84,-27.49"/>
</g>
<!-- Node46 -->
<g id="node5" class="node">
<title>Node46</title>
<g id="a_node5"><a xlink:title=" ">
<polygon fill="none" stroke="#bfbfbf" points="300.5,-0.5 300.5,-19.5 461.5,-19.5 461.5,-0.5 300.5,-0.5"/>
<text text-anchor="middle" x="381" y="-7.5" font-family="Helvetica,sans-Serif" font-size="10.00">TMPL/communications.h.tmpl</text>
</a>
</g>
</g>
<!-- Node1&#45;&gt;Node46 -->
<g id="edge5" class="edge">
<title>Node1&#45;&gt;Node46</title>
<path fill="none" stroke="midnightblue" d="M174.82,-56.44C217.56,-47.02 286.33,-31.87 332.57,-21.68"/>
<polygon fill="midnightblue" stroke="midnightblue" points="333.35,-25.09 342.36,-19.52 331.84,-18.25 333.35,-25.09"/>
</g>
<!-- Node9&#45;&gt;Node1 -->
<g id="edge3" class="edge">
<title>Node9&#45;&gt;Node1</title>
<path fill="none" stroke="midnightblue" d="M141.13,-19.75C142.66,-26.86 143.1,-37.14 142.47,-46.1"/>
<polygon fill="midnightblue" stroke="midnightblue" points="138.99,-45.71 141.17,-56.08 145.93,-46.62 138.99,-45.71"/>
</g>
</g>
</svg>
