<?xml version="1.0" encoding="UTF-8" standalone="no"?>
<!DOCTYPE svg PUBLIC "-//W3C//DTD SVG 1.1//EN"
 "http://www.w3.org/Graphics/SVG/1.1/DTD/svg11.dtd">
<!-- Generated by graphviz version 2.43.0 (0)
 -->
<!-- Title: random_generic.h Pages: 1 -->
<svg width="112pt" height="84pt"
 viewBox="0.00 0.00 112.00 84.00" xmlns="http://www.w3.org/2000/svg" xmlns:xlink="http://www.w3.org/1999/xlink">
<g id="graph0" class="graph" transform="scale(1 1) rotate(0) translate(4 80)">
<title>random_generic.h</title>
<!-- Node1 -->
<g id="node1" class="node">
<title>Node1</title>
<g id="a_node1"><a xlink:title="Generic random functions.">
<polygon fill="#bfbfbf" stroke="black" points="0,-56.5 0,-75.5 104,-75.5 104,-56.5 0,-56.5"/>
<text text-anchor="middle" x="52" y="-63.5" font-family="Helvetica,sans-Serif" font-size="10.00">random_generic.h</text>
</a>
</g>
</g>
<!-- Node2 -->
<g id="node2" class="node">
<title>Node2</title>
<g id="a_node2"><a xlink:href="../../d1/d79/random_8h_source.html" target="_top" xlink:title=" ">
<polygon fill="none" stroke="red" points="20.5,-0.5 20.5,-19.5 83.5,-19.5 83.5,-0.5 20.5,-0.5"/>
<text text-anchor="middle" x="52" y="-7.5" font-family="Helvetica,sans-Serif" font-size="10.00">random.h</text>
</a>
</g>
</g>
<!-- Node1&#45;&gt;Node2 -->
<g id="edge1" class="edge">
<title>Node1&#45;&gt;Node2</title>
<path fill="none" stroke="midnightblue" d="M45.53,-46.1C44.9,-37.14 45.34,-26.86 46.87,-19.75"/>
<polygon fill="midnightblue" stroke="midnightblue" points="42.07,-46.62 46.83,-56.08 49.01,-45.71 42.07,-46.62"/>
</g>
<!-- Node2&#45;&gt;Node1 -->
<g id="edge2" class="edge">
<title>Node2&#45;&gt;Node1</title>
<path fill="none" stroke="midnightblue" d="M58.46,-29.69C59.11,-38.64 58.68,-48.93 57.17,-56.08"/>
<polygon fill="midnightblue" stroke="midnightblue" points="61.92,-29.2 57.13,-19.75 54.98,-30.13 61.92,-29.2"/>
</g>
</g>
</svg>
