<?xml version="1.0" encoding="UTF-8" standalone="no"?>
<!DOCTYPE svg PUBLIC "-//W3C//DTD SVG 1.1//EN"
 "http://www.w3.org/Graphics/SVG/1.1/DTD/svg11.dtd">
<!-- Generated by graphviz version 2.43.0 (0)
 -->
<!-- Title: global.h Pages: 1 -->
<svg width="723pt" height="140pt"
 viewBox="0.00 0.00 723.00 140.00" xmlns="http://www.w3.org/2000/svg" xmlns:xlink="http://www.w3.org/1999/xlink">
<g id="graph0" class="graph" transform="scale(1 1) rotate(0) translate(4 136)">
<title>global.h</title>
<!-- Node1 -->
<g id="node1" class="node">
<title>Node1</title>
<g id="a_node1"><a xlink:title="Global parameters and arrays.">
<polygon fill="#bfbfbf" stroke="black" points="396.5,-112.5 396.5,-131.5 452.5,-131.5 452.5,-112.5 396.5,-112.5"/>
<text text-anchor="middle" x="424.5" y="-119.5" font-family="Helvetica,sans-Serif" font-size="10.00">global.h</text>
</a>
</g>
</g>
<!-- Node2 -->
<g id="node2" class="node">
<title>Node2</title>
<g id="a_node2"><a xlink:href="../../d8/d4c/check__options_8h.html" target="_top" xlink:title="Validation checks of the input parameters specified in the input file and error messages that give in...">
<polygon fill="none" stroke="black" points="0,-56.5 0,-75.5 95,-75.5 95,-56.5 0,-56.5"/>
<text text-anchor="middle" x="47.5" y="-63.5" font-family="Helvetica,sans-Serif" font-size="10.00">check_options.h</text>
</a>
</g>
</g>
<!-- Node1&#45;&gt;Node2 -->
<g id="edge1" class="edge">
<title>Node1&#45;&gt;Node2</title>
<path fill="none" stroke="midnightblue" d="M396.13,-117.22C341.72,-109.92 218.69,-93.22 105.06,-76.21"/>
<polygon fill="midnightblue" stroke="midnightblue" points="105.56,-72.75 95.15,-74.72 104.52,-79.67 105.56,-72.75"/>
</g>
<!-- Node3 -->
<g id="node3" class="node">
<title>Node3</title>
<g id="a_node3"><a xlink:href="../../d4/d1d/core__utils_8h.html" target="_top" xlink:title="Macros to declare global variables.">
<polygon fill="none" stroke="black" points="113,-56.5 113,-75.5 186,-75.5 186,-56.5 113,-56.5"/>
<text text-anchor="middle" x="149.5" y="-63.5" font-family="Helvetica,sans-Serif" font-size="10.00">core_utils.h</text>
</a>
</g>
</g>
<!-- Node1&#45;&gt;Node3 -->
<g id="edge2" class="edge">
<title>Node1&#45;&gt;Node3</title>
<path fill="none" stroke="midnightblue" d="M396.17,-115.5C354.53,-107.4 274.09,-91.73 196.3,-76.35"/>
<polygon fill="midnightblue" stroke="midnightblue" points="196.82,-72.89 186.33,-74.38 195.47,-79.75 196.82,-72.89"/>
</g>
<!-- Node4 -->
<g id="node4" class="node">
<title>Node4</title>
<g id="a_node4"><a xlink:href="../../d4/d67/geometry_8h.html" target="_top" xlink:title="This file contains information on the geometry of the local lattice, block decomposed geometry,...">
<polygon fill="none" stroke="red" points="204,-56.5 204,-75.5 275,-75.5 275,-56.5 204,-56.5"/>
<text text-anchor="middle" x="239.5" y="-63.5" font-family="Helvetica,sans-Serif" font-size="10.00">geometry.h</text>
</a>
</g>
</g>
<!-- Node1&#45;&gt;Node4 -->
<g id="edge3" class="edge">
<title>Node1&#45;&gt;Node4</title>
<path fill="none" stroke="midnightblue" d="M396.4,-112.8C365.03,-103.64 314.04,-88.76 278.74,-78.45"/>
<polygon fill="midnightblue" stroke="midnightblue" points="279.36,-74.99 268.78,-75.55 277.4,-81.71 279.36,-74.99"/>
</g>
<!-- Node39 -->
<g id="node5" class="node">
<title>Node39</title>
<g id="a_node5"><a xlink:title=" ">
<polygon fill="none" stroke="#bfbfbf" points="293.5,-56.5 293.5,-75.5 349.5,-75.5 349.5,-56.5 293.5,-56.5"/>
<text text-anchor="middle" x="321.5" y="-63.5" font-family="Helvetica,sans-Serif" font-size="10.00">stddef.h</text>
</a>
</g>
</g>
<!-- Node1&#45;&gt;Node39 -->
<g id="edge4" class="edge">
<title>Node1&#45;&gt;Node39</title>
<path fill="none" stroke="midnightblue" d="M407.95,-112.32C391.51,-103.7 366.07,-90.36 347.03,-80.39"/>
<polygon fill="midnightblue" stroke="midnightblue" points="348.49,-77.2 338.01,-75.65 345.24,-83.4 348.49,-77.2"/>
</g>
<!-- Node50 -->
<g id="node6" class="node">
<title>Node50</title>
<g id="a_node6"><a xlink:href="../../d9/da0/flags_8h.html" target="_top" xlink:title="Global flags that indicate for example that a certain field has been updated.">
<polygon fill="none" stroke="black" points="368,-56.5 368,-75.5 417,-75.5 417,-56.5 368,-56.5"/>
<text text-anchor="middle" x="392.5" y="-63.5" font-family="Helvetica,sans-Serif" font-size="10.00">flags.h</text>
</a>
</g>
</g>
<!-- Node1&#45;&gt;Node50 -->
<g id="edge5" class="edge">
<title>Node1&#45;&gt;Node50</title>
<path fill="none" stroke="midnightblue" d="M419.22,-112.08C414.79,-104.61 408.34,-93.72 402.88,-84.52"/>
<polygon fill="midnightblue" stroke="midnightblue" points="405.79,-82.57 397.69,-75.75 399.77,-86.14 405.79,-82.57"/>
</g>
<!-- Node11 -->
<g id="node7" class="node">
<title>Node11</title>
<g id="a_node7"><a xlink:href="../../d4/d1a/hr__mpi_8h.html" target="_top" xlink:title="Setup for mpi.">
<polygon fill="none" stroke="red" points="555,-0.5 555,-19.5 614,-19.5 614,-0.5 555,-0.5"/>
<text text-anchor="middle" x="584.5" y="-7.5" font-family="Helvetica,sans-Serif" font-size="10.00">hr_mpi.h</text>
</a>
</g>
</g>
<!-- Node1&#45;&gt;Node11 -->
<g id="edge6" class="edge">
<title>Node1&#45;&gt;Node11</title>
<path fill="none" stroke="midnightblue" d="M442.11,-112.39C458.89,-103.92 484.62,-90.21 505.5,-76 528.04,-60.65 551.97,-40.33 567.5,-26.52"/>
<polygon fill="midnightblue" stroke="midnightblue" points="570.11,-28.88 575.21,-19.59 565.43,-23.68 570.11,-28.88"/>
</g>
<!-- Node26 -->
<g id="node8" class="node">
<title>Node26</title>
<g id="a_node8"><a xlink:href="../../d3/d93/gpu_8h.html" target="_top" xlink:title="Basic gpu imports and structs. Include this in files that define GPU logic.">
<polygon fill="none" stroke="red" points="435.5,-56.5 435.5,-75.5 479.5,-75.5 479.5,-56.5 435.5,-56.5"/>
<text text-anchor="middle" x="457.5" y="-63.5" font-family="Helvetica,sans-Serif" font-size="10.00">gpu.h</text>
</a>
</g>
</g>
<!-- Node1&#45;&gt;Node26 -->
<g id="edge7" class="edge">
<title>Node1&#45;&gt;Node26</title>
<path fill="none" stroke="midnightblue" d="M429.95,-112.08C434.51,-104.61 441.17,-93.72 446.79,-84.52"/>
<polygon fill="midnightblue" stroke="midnightblue" points="449.92,-86.11 452.15,-75.75 443.95,-82.46 449.92,-86.11"/>
</g>
<!-- Node31 -->
<g id="node9" class="node">
<title>Node31</title>
<g id="a_node9"><a xlink:href="../../d8/d5a/input__par_8h_source.html" target="_top" xlink:title=" ">
<polygon fill="none" stroke="black" points="440.5,-0.5 440.5,-19.5 524.5,-19.5 524.5,-0.5 440.5,-0.5"/>
<text text-anchor="middle" x="482.5" y="-7.5" font-family="Helvetica,sans-Serif" font-size="10.00">IO/input_par.h</text>
</a>
</g>
</g>
<!-- Node1&#45;&gt;Node31 -->
<g id="edge13" class="edge">
<title>Node1&#45;&gt;Node31</title>
<path fill="none" stroke="midnightblue" d="M445.98,-112.36C460.89,-105.09 479.61,-93.12 488.5,-76 496,-61.56 493.2,-42.86 489.29,-29.23"/>
<polygon fill="midnightblue" stroke="midnightblue" points="492.56,-27.96 486.1,-19.57 485.91,-30.16 492.56,-27.96"/>
</g>
<!-- Node10 -->
<g id="node10" class="node">
<title>Node10</title>
<g id="a_node10"><a xlink:title=" ">
<polygon fill="none" stroke="#bfbfbf" points="638,-0.5 638,-19.5 715,-19.5 715,-0.5 638,-0.5"/>
<text text-anchor="middle" x="676.5" y="-7.5" font-family="Helvetica,sans-Serif" font-size="10.00">suN_types.h</text>
</a>
</g>
</g>
<!-- Node1&#45;&gt;Node10 -->
<g id="edge9" class="edge">
<title>Node1&#45;&gt;Node10</title>
<path fill="none" stroke="midnightblue" d="M452.6,-119.62C509.43,-116.22 635.09,-105.49 664.5,-76 676.39,-64.07 678.59,-44.46 678.31,-29.89"/>
<polygon fill="midnightblue" stroke="midnightblue" points="681.78,-29.3 677.68,-19.53 674.79,-29.72 681.78,-29.3"/>
</g>
<!-- Node8 -->
<g id="node11" class="node">
<title>Node8</title>
<g id="a_node11"><a xlink:href="../../d3/ded/spinor__field_8h.html" target="_top" xlink:title="The elementary site structures defined in suN.h are used in this file to define field structures that...">
<polygon fill="none" stroke="red" points="573.5,-56.5 573.5,-75.5 655.5,-75.5 655.5,-56.5 573.5,-56.5"/>
<text text-anchor="middle" x="614.5" y="-63.5" font-family="Helvetica,sans-Serif" font-size="10.00">spinor_field.h</text>
</a>
</g>
</g>
<!-- Node1&#45;&gt;Node8 -->
<g id="edge10" class="edge">
<title>Node1&#45;&gt;Node8</title>
<path fill="none" stroke="midnightblue" d="M452.54,-113.03C484.8,-103.86 538.05,-88.73 574.62,-78.33"/>
<polygon fill="midnightblue" stroke="midnightblue" points="575.8,-81.64 584.47,-75.54 573.89,-74.9 575.8,-81.64"/>
</g>
<!-- Node26&#45;&gt;Node31 -->
<g id="edge8" class="edge">
<title>Node26&#45;&gt;Node31</title>
<path fill="none" stroke="midnightblue" d="M461.63,-56.08C465.01,-48.77 469.92,-38.18 474.12,-29.1"/>
<polygon fill="midnightblue" stroke="midnightblue" points="477.42,-30.3 478.45,-19.75 471.07,-27.36 477.42,-30.3"/>
</g>
<!-- Node8&#45;&gt;Node11 -->
<g id="edge12" class="edge">
<title>Node8&#45;&gt;Node11</title>
<path fill="none" stroke="midnightblue" d="M609.55,-56.08C605.4,-48.61 599.35,-37.72 594.23,-28.52"/>
<polygon fill="midnightblue" stroke="midnightblue" points="597.28,-26.79 589.36,-19.75 591.16,-30.19 597.28,-26.79"/>
</g>
<!-- Node8&#45;&gt;Node10 -->
<g id="edge11" class="edge">
<title>Node8&#45;&gt;Node10</title>
<path fill="none" stroke="midnightblue" d="M624.46,-56.32C633.63,-48.34 647.44,-36.31 658.53,-26.65"/>
<polygon fill="midnightblue" stroke="midnightblue" points="661.12,-29.04 666.36,-19.83 656.52,-23.76 661.12,-29.04"/>
</g>
</g>
</svg>
