<?xml version="1.0" encoding="UTF-8" standalone="no"?>
<!DOCTYPE svg PUBLIC "-//W3C//DTD SVG 1.1//EN"
 "http://www.w3.org/Graphics/SVG/1.1/DTD/svg11.dtd">
<!-- Generated by graphviz version 2.43.0 (0)
 -->
<!-- Title: archive.h Pages: 1 -->
<svg width="158pt" height="84pt"
 viewBox="0.00 0.00 158.00 84.00" xmlns="http://www.w3.org/2000/svg" xmlns:xlink="http://www.w3.org/1999/xlink">
<g id="graph0" class="graph" transform="scale(1 1) rotate(0) translate(4 80)">
<title>archive.h</title>
<!-- Node1 -->
<g id="node1" class="node">
<title>Node1</title>
<g id="a_node1"><a xlink:title="Read and save configurations.">
<polygon fill="#bfbfbf" stroke="black" points="36,-56.5 36,-75.5 98,-75.5 98,-56.5 36,-56.5"/>
<text text-anchor="middle" x="67" y="-63.5" font-family="Helvetica,sans-Serif" font-size="10.00">archive.h</text>
</a>
</g>
</g>
<!-- Node2 -->
<g id="node2" class="node">
<title>Node2</title>
<g id="a_node2"><a xlink:title=" ">
<polygon fill="none" stroke="#bfbfbf" points="0,-0.5 0,-19.5 50,-19.5 50,-0.5 0,-0.5"/>
<text text-anchor="middle" x="25" y="-7.5" font-family="Helvetica,sans-Serif" font-size="10.00">stdio.h</text>
</a>
</g>
</g>
<!-- Node1&#45;&gt;Node2 -->
<g id="edge1" class="edge">
<title>Node1&#45;&gt;Node2</title>
<path fill="none" stroke="midnightblue" d="M60.06,-56.08C54.07,-48.38 45.25,-37.03 37.95,-27.65"/>
<polygon fill="midnightblue" stroke="midnightblue" points="40.71,-25.5 31.81,-19.75 35.18,-29.79 40.71,-25.5"/>
</g>
<!-- Node3 -->
<g id="node3" class="node">
<title>Node3</title>
<g id="a_node3"><a xlink:href="../../d3/ded/spinor__field_8h.html" target="_top" xlink:title="The elementary site structures defined in suN.h are used in this file to define field structures that...">
<polygon fill="none" stroke="red" points="68,-0.5 68,-19.5 150,-19.5 150,-0.5 68,-0.5"/>
<text text-anchor="middle" x="109" y="-7.5" font-family="Helvetica,sans-Serif" font-size="10.00">spinor_field.h</text>
</a>
</g>
</g>
<!-- Node1&#45;&gt;Node3 -->
<g id="edge2" class="edge">
<title>Node1&#45;&gt;Node3</title>
<path fill="none" stroke="midnightblue" d="M73.94,-56.08C79.93,-48.38 88.75,-37.03 96.05,-27.65"/>
<polygon fill="midnightblue" stroke="midnightblue" points="98.82,-29.79 102.19,-19.75 93.29,-25.5 98.82,-29.79"/>
</g>
</g>
</svg>
