<?xml version="1.0" encoding="UTF-8" standalone="no"?>
<!DOCTYPE svg PUBLIC "-//W3C//DTD SVG 1.1//EN"
 "http://www.w3.org/Graphics/SVG/1.1/DTD/svg11.dtd">
<!-- Generated by graphviz version 2.43.0 (0)
 -->
<!-- Title: geometry_check.h Pages: 1 -->
<svg width="115pt" height="84pt"
 viewBox="0.00 0.00 115.00 84.00" xmlns="http://www.w3.org/2000/svg" xmlns:xlink="http://www.w3.org/1999/xlink">
<g id="graph0" class="graph" transform="scale(1 1) rotate(0) translate(4 80)">
<title>geometry_check.h</title>
<!-- Node1 -->
<g id="node1" class="node">
<title>Node1</title>
<g id="a_node1"><a xlink:title="Validity checks on the geometry of spinor fields that are passed as function parameters....">
<polygon fill="#bfbfbf" stroke="black" points="0,-56.5 0,-75.5 107,-75.5 107,-56.5 0,-56.5"/>
<text text-anchor="middle" x="53.5" y="-63.5" font-family="Helvetica,sans-Serif" font-size="10.00">geometry_check.h</text>
</a>
</g>
</g>
<!-- Node2 -->
<g id="node2" class="node">
<title>Node2</title>
<g id="a_node2"><a xlink:href="../../d4/d67/geometry_8h.html" target="_top" xlink:title="This file contains information on the geometry of the local lattice, block decomposed geometry,...">
<polygon fill="none" stroke="red" points="18,-0.5 18,-19.5 89,-19.5 89,-0.5 18,-0.5"/>
<text text-anchor="middle" x="53.5" y="-7.5" font-family="Helvetica,sans-Serif" font-size="10.00">geometry.h</text>
</a>
</g>
</g>
<!-- Node1&#45;&gt;Node2 -->
<g id="edge1" class="edge">
<title>Node1&#45;&gt;Node2</title>
<path fill="none" stroke="midnightblue" d="M47.03,-46.1C46.4,-37.14 46.84,-26.86 48.37,-19.75"/>
<polygon fill="midnightblue" stroke="midnightblue" points="43.57,-46.62 48.33,-56.08 50.51,-45.71 43.57,-46.62"/>
</g>
<!-- Node2&#45;&gt;Node1 -->
<g id="edge2" class="edge">
<title>Node2&#45;&gt;Node1</title>
<path fill="none" stroke="midnightblue" d="M59.96,-29.69C60.61,-38.64 60.18,-48.93 58.67,-56.08"/>
<polygon fill="midnightblue" stroke="midnightblue" points="63.42,-29.2 58.63,-19.75 56.48,-30.13 63.42,-29.2"/>
</g>
</g>
</svg>
