<?xml version="1.0" encoding="UTF-8" standalone="no"?>
<!DOCTYPE svg PUBLIC "-//W3C//DTD SVG 1.1//EN"
 "http://www.w3.org/Graphics/SVG/1.1/DTD/svg11.dtd">
<!-- Generated by graphviz version 2.43.0 (0)
 -->
<!-- Title: gamma_spinor.h Pages: 1 -->
<svg width="189pt" height="137pt"
 viewBox="0.00 0.00 189.00 137.00" xmlns="http://www.w3.org/2000/svg" xmlns:xlink="http://www.w3.org/1999/xlink">
<g id="graph0" class="graph" transform="scale(1 1) rotate(0) translate(4 133)">
<title>gamma_spinor.h</title>
<!-- Node1 -->
<g id="Node000001" class="node">
<title>Node1</title>
<g id="a_Node000001"><a xlink:title="Macros for gamma x spinor.">
<polygon fill="#999999" stroke="#666666" points="133,-129 35,-129 35,-110 133,-110 133,-129"/>
<text text-anchor="middle" x="84" y="-117" font-family="Helvetica,sans-Serif" font-size="10.00">gamma_spinor.h</text>
</a>
</g>
</g>
<!-- Node2 -->
<g id="Node000002" class="node">
<title>Node2</title>
<g id="a_Node000002"><a xlink:href="../../d8/d1f/libhr__core_8h_source.html" target="_top" xlink:title=" ">
<polygon fill="#fff0f0" stroke="red" points="74,-19 0,-19 0,0 74,0 74,-19"/>
<text text-anchor="middle" x="37" y="-7" font-family="Helvetica,sans-Serif" font-size="10.00">libhr_core.h</text>
</a>
</g>
</g>
<!-- Node1&#45;&gt;Node2 -->
<g id="edge1_Node000001_Node000002" class="edge">
<title>Node1&#45;&gt;Node2</title>
<g id="a_edge1_Node000001_Node000002"><a xlink:title=" ">
<path fill="none" stroke="#63b8ff" d="M59.89,-104.19C49.57,-96.64 38.62,-86.37 33,-74 24.77,-55.9 30.09,-31.86 33.98,-19.18"/>
<polygon fill="#63b8ff" stroke="#63b8ff" points="58.03,-107.16 68.27,-109.88 61.96,-101.37 58.03,-107.16"/>
</a>
</g>
</g>
<!-- Node28 -->
<g id="Node000028" class="node">
<title>Node28</title>
<g id="a_Node000028"><a xlink:href="../../d6/d71/propagator_8h_source.html" target="_top" xlink:title=" ">
<polygon fill="#fff0f0" stroke="red" points="181,-19 103,-19 103,0 181,0 181,-19"/>
<text text-anchor="middle" x="142" y="-7" font-family="Helvetica,sans-Serif" font-size="10.00">propagator.h</text>
</a>
</g>
</g>
<!-- Node1&#45;&gt;Node28 -->
<g id="edge2_Node000001_Node000028" class="edge">
<title>Node1&#45;&gt;Node28</title>
<g id="a_edge2_Node000001_Node000028"><a xlink:title=" ">
<path fill="none" stroke="#63b8ff" d="M107.1,-104.2C117.4,-96.56 128.62,-86.2 135,-74 144.25,-56.31 143.95,-32.1 142.96,-19.29"/>
<polygon fill="#63b8ff" stroke="#63b8ff" points="105.01,-101.39 98.79,-109.96 109,-107.14 105.01,-101.39"/>
</a>
</g>
</g>
<!-- Node30 -->
<g id="Node000030" class="node">
<title>Node30</title>
<g id="a_Node000030"><a xlink:href="../../d8/d1e/spin__matrix_8h.html" target="_top" xlink:title="Type definitions and macros for spin_matrix.">
<polygon fill="white" stroke="#666666" points="125.5,-74 42.5,-74 42.5,-55 125.5,-55 125.5,-74"/>
<text text-anchor="middle" x="84" y="-62" font-family="Helvetica,sans-Serif" font-size="10.00">spin_matrix.h</text>
</a>
</g>
</g>
<!-- Node1&#45;&gt;Node30 -->
<g id="edge3_Node000001_Node000030" class="edge">
<title>Node1&#45;&gt;Node30</title>
<g id="a_edge3_Node000001_Node000030"><a xlink:title=" ">
<path fill="none" stroke="#63b8ff" d="M84,-99.66C84,-90.93 84,-80.99 84,-74.09"/>
<polygon fill="#63b8ff" stroke="#63b8ff" points="80.5,-99.75 84,-109.75 87.5,-99.75 80.5,-99.75"/>
</a>
</g>
</g>
<!-- Node30&#45;&gt;Node2 -->
<g id="edge4_Node000030_Node000002" class="edge">
<title>Node30&#45;&gt;Node2</title>
<g id="a_edge4_Node000030_Node000002"><a xlink:title=" ">
<path fill="none" stroke="#63b8ff" d="M69.58,-47.24C61.34,-37.95 51.35,-26.68 44.62,-19.09"/>
<polygon fill="#63b8ff" stroke="#63b8ff" points="66.99,-49.59 76.24,-54.75 72.22,-44.94 66.99,-49.59"/>
</a>
</g>
</g>
<!-- Node30&#45;&gt;Node28 -->
<g id="edge5_Node000030_Node000028" class="edge">
<title>Node30&#45;&gt;Node28</title>
<g id="a_edge5_Node000030_Node000028"><a xlink:title=" ">
<path fill="none" stroke="#63b8ff" d="M100.91,-48.04C111.2,-38.64 123.97,-26.98 132.51,-19.17"/>
<polygon fill="#63b8ff" stroke="#63b8ff" points="98.34,-45.66 93.32,-54.98 103.06,-50.82 98.34,-45.66"/>
</a>
</g>
</g>
</g>
</svg>
