<?xml version="1.0" encoding="UTF-8" standalone="no"?>
<!DOCTYPE svg PUBLIC "-//W3C//DTD SVG 1.1//EN"
 "http://www.w3.org/Graphics/SVG/1.1/DTD/svg11.dtd">
<!-- Generated by graphviz version 2.43.0 (0)
 -->
<!-- Title: gamma_spinor.h Pages: 1 -->
<svg width="189pt" height="140pt"
 viewBox="0.00 0.00 189.00 140.00" xmlns="http://www.w3.org/2000/svg" xmlns:xlink="http://www.w3.org/1999/xlink">
<g id="graph0" class="graph" transform="scale(1 1) rotate(0) translate(4 136)">
<title>gamma_spinor.h</title>
<!-- Node1 -->
<g id="node1" class="node">
<title>Node1</title>
<g id="a_node1"><a xlink:title="Macros for gamma x spinor.">
<polygon fill="#bfbfbf" stroke="black" points="35,-112.5 35,-131.5 133,-131.5 133,-112.5 35,-112.5"/>
<text text-anchor="middle" x="84" y="-119.5" font-family="Helvetica,sans-Serif" font-size="10.00">gamma_spinor.h</text>
</a>
</g>
</g>
<!-- Node2 -->
<g id="node2" class="node">
<title>Node2</title>
<g id="a_node2"><a xlink:href="../../d8/d1f/libhr__core_8h_source.html" target="_top" xlink:title=" ">
<polygon fill="none" stroke="red" points="0,-0.5 0,-19.5 74,-19.5 74,-0.5 0,-0.5"/>
<text text-anchor="middle" x="37" y="-7.5" font-family="Helvetica,sans-Serif" font-size="10.00">libhr_core.h</text>
</a>
</g>
</g>
<!-- Node1&#45;&gt;Node2 -->
<g id="edge1" class="edge">
<title>Node1&#45;&gt;Node2</title>
<path fill="none" stroke="midnightblue" d="M59.88,-106.47C49.56,-98.83 38.62,-88.44 33,-76 24.63,-57.45 30.01,-32.85 33.94,-19.88"/>
<polygon fill="midnightblue" stroke="midnightblue" points="58.04,-109.46 68.27,-112.24 62.01,-103.69 58.04,-109.46"/>
</g>
<!-- Node26 -->
<g id="node3" class="node">
<title>Node26</title>
<g id="a_node3"><a xlink:href="../../d6/d71/propagator_8h_source.html" target="_top" xlink:title=" ">
<polygon fill="none" stroke="red" points="103,-0.5 103,-19.5 181,-19.5 181,-0.5 103,-0.5"/>
<text text-anchor="middle" x="142" y="-7.5" font-family="Helvetica,sans-Serif" font-size="10.00">propagator.h</text>
</a>
</g>
</g>
<!-- Node1&#45;&gt;Node26 -->
<g id="edge2" class="edge">
<title>Node1&#45;&gt;Node26</title>
<path fill="none" stroke="midnightblue" d="M107.11,-106.5C117.42,-98.76 128.64,-88.29 135,-76 144.49,-57.65 144.03,-32.54 142.96,-19.55"/>
<polygon fill="midnightblue" stroke="midnightblue" points="104.97,-103.72 98.8,-112.33 109,-109.45 104.97,-103.72"/>
</g>
<!-- Node28 -->
<g id="node4" class="node">
<title>Node28</title>
<g id="a_node4"><a xlink:href="../../d8/d1e/spin__matrix_8h.html" target="_top" xlink:title="Type definitions and macros for spin_matrix.">
<polygon fill="none" stroke="black" points="42.5,-56.5 42.5,-75.5 125.5,-75.5 125.5,-56.5 42.5,-56.5"/>
<text text-anchor="middle" x="84" y="-63.5" font-family="Helvetica,sans-Serif" font-size="10.00">spin_matrix.h</text>
</a>
</g>
</g>
<!-- Node1&#45;&gt;Node28 -->
<g id="edge3" class="edge">
<title>Node1&#45;&gt;Node28</title>
<path fill="none" stroke="midnightblue" d="M84,-101.8C84,-92.91 84,-82.78 84,-75.75"/>
<polygon fill="midnightblue" stroke="midnightblue" points="80.5,-102.08 84,-112.08 87.5,-102.08 80.5,-102.08"/>
</g>
<!-- Node28&#45;&gt;Node2 -->
<g id="edge4" class="edge">
<title>Node28&#45;&gt;Node2</title>
<path fill="none" stroke="midnightblue" d="M69.58,-48.43C61.34,-38.97 51.35,-27.48 44.62,-19.75"/>
<polygon fill="midnightblue" stroke="midnightblue" points="67.03,-50.84 76.24,-56.08 72.31,-46.24 67.03,-50.84"/>
</g>
<!-- Node28&#45;&gt;Node26 -->
<g id="edge5" class="edge">
<title>Node28&#45;&gt;Node26</title>
<path fill="none" stroke="midnightblue" d="M100.91,-49.25C111.2,-39.67 123.97,-27.79 132.51,-19.83"/>
<polygon fill="midnightblue" stroke="midnightblue" points="98.25,-46.95 93.32,-56.32 103.02,-52.07 98.25,-46.95"/>
</g>
</g>
</svg>
