<?xml version="1.0" encoding="UTF-8" standalone="no"?>
<!DOCTYPE svg PUBLIC "-//W3C//DTD SVG 1.1//EN"
 "http://www.w3.org/Graphics/SVG/1.1/DTD/svg11.dtd">
<!-- Generated by graphviz version 2.43.0 (0)
 -->
<!-- Title: force_hmc_par Pages: 1 -->
<svg width="220pt" height="162pt"
 viewBox="0.00 0.00 220.00 162.00" xmlns="http://www.w3.org/2000/svg" xmlns:xlink="http://www.w3.org/1999/xlink">
<g id="graph0" class="graph" transform="scale(1 1) rotate(0) translate(4 158)">
<title>force_hmc_par</title>
<!-- Node1 -->
<g id="node1" class="node">
<title>Node1</title>
<g id="a_node1"><a xlink:title=" ">
<polygon fill="#bfbfbf" stroke="black" points="36,-0.5 36,-19.5 125,-19.5 125,-0.5 36,-0.5"/>
<text text-anchor="middle" x="80.5" y="-7.5" font-family="Helvetica,sans-Serif" font-size="10.00">force_hmc_par</text>
</a>
</g>
</g>
<!-- Node2 -->
<g id="node2" class="node">
<title>Node2</title>
<g id="a_node2"><a xlink:href="../../d0/da8/structspinor__field.html" target="_top" xlink:title="Spinor field array containing SU(N_f) spinors in chosen fermion representation.">
<polygon fill="none" stroke="red" points="0,-134.5 0,-153.5 73,-153.5 73,-134.5 0,-134.5"/>
<text text-anchor="middle" x="36.5" y="-141.5" font-family="Helvetica,sans-Serif" font-size="10.00">spinor_field</text>
</a>
</g>
</g>
<!-- Node2&#45;&gt;Node1 -->
<g id="edge1" class="edge">
<title>Node2&#45;&gt;Node1</title>
<path fill="none" stroke="#9a32cd" stroke-dasharray="5,2" d="M30.3,-124.59C26.02,-108.79 22.27,-85.67 29.5,-67 37.29,-46.89 56.03,-29.56 68.49,-19.71"/>
<polygon fill="#9a32cd" stroke="#9a32cd" points="26.97,-125.66 33.22,-134.22 33.67,-123.63 26.97,-125.66"/>
<text text-anchor="middle" x="36" y="-74.5" font-family="Helvetica,sans-Serif" font-size="10.00"> pf</text>
</g>
<!-- Node4 -->
<g id="node3" class="node">
<title>Node4</title>
<g id="a_node3"><a xlink:href="../../df/d69/structmre__par.html" target="_top" xlink:title=" ">
<polygon fill="none" stroke="#bfbfbf" points="52,-67.5 52,-86.5 109,-86.5 109,-67.5 52,-67.5"/>
<text text-anchor="middle" x="80.5" y="-74.5" font-family="Helvetica,sans-Serif" font-size="10.00">mre_par</text>
</a>
</g>
</g>
<!-- Node2&#45;&gt;Node4 -->
<g id="edge3" class="edge">
<title>Node2&#45;&gt;Node4</title>
<path fill="none" stroke="#9a32cd" stroke-dasharray="5,2" d="M48.07,-125.9C56.62,-113.27 67.91,-96.6 74.66,-86.63"/>
<polygon fill="#9a32cd" stroke="#9a32cd" points="45.14,-123.99 42.43,-134.23 50.94,-127.91 45.14,-123.99"/>
<text text-anchor="middle" x="66" y="-108" font-family="Helvetica,sans-Serif" font-size="10.00"> s</text>
</g>
<!-- Node4&#45;&gt;Node1 -->
<g id="edge2" class="edge">
<title>Node4&#45;&gt;Node1</title>
<path fill="none" stroke="#9a32cd" stroke-dasharray="5,2" d="M80.5,-57.04C80.5,-44.67 80.5,-29.12 80.5,-19.63"/>
<polygon fill="#9a32cd" stroke="#9a32cd" points="77,-57.23 80.5,-67.23 84,-57.23 77,-57.23"/>
<text text-anchor="middle" x="95" y="-41" font-family="Helvetica,sans-Serif" font-size="10.00"> mpar</text>
</g>
<!-- Node5 -->
<g id="node4" class="node">
<title>Node5</title>
<g id="a_node4"><a xlink:href="../../db/dc8/structsuNg__av__field.html" target="_top" xlink:title="Field of SU(N_g) algebra vectors.">
<polygon fill="none" stroke="red" points="127,-67.5 127,-86.5 212,-86.5 212,-67.5 127,-67.5"/>
<text text-anchor="middle" x="169.5" y="-74.5" font-family="Helvetica,sans-Serif" font-size="10.00">suNg_av_field</text>
</a>
</g>
</g>
<!-- Node5&#45;&gt;Node1 -->
<g id="edge4" class="edge">
<title>Node5&#45;&gt;Node1</title>
<path fill="none" stroke="#9a32cd" stroke-dasharray="5,2" d="M149.05,-61.07C131.49,-48.24 106.77,-30.19 92.31,-19.63"/>
<polygon fill="#9a32cd" stroke="#9a32cd" points="147.36,-64.16 157.5,-67.23 151.49,-58.51 147.36,-64.16"/>
<text text-anchor="middle" x="155" y="-41" font-family="Helvetica,sans-Serif" font-size="10.00"> momenta</text>
</g>
</g>
</svg>
